<svg width="37" height="617" viewBox="0 0 37 617" fill="none" xmlns="http://www.w3.org/2000/svg">
<path opacity="0.28" fill-rule="evenodd" clip-rule="evenodd" d="M0.533504 9.26428L0.533504 604.03H2.05301L2.05301 9.26428H0.533504Z" fill="white"/>
<path opacity="0.28" fill-rule="evenodd" clip-rule="evenodd" d="M35.4805 11.1171L35.4805 604.03H37L37 11.1171H35.4805Z" fill="white"/>
<path fill-rule="evenodd" clip-rule="evenodd" d="M34.5335 0L34.5335 617H35.5335L35.5335 0H34.5335Z" fill="#696969"/>
<path fill-rule="evenodd" clip-rule="evenodd" d="M1.53351 0L1.53351 617H2.53351L2.53351 0H1.53351Z" fill="#696969"/>
<path fill-rule="evenodd" clip-rule="evenodd" d="M30.9234 602.004V594.939H26.2952V589.294H21.6669V583.649H15.8749V589.294H11.2466V594.939H6.6184V602.004H7.20029H11.2466V607.649H15.8749V613.294H21.6669V607.649H26.2952V602.004H30.9234ZM7.78219 600.584V596.359H12.4104V590.713H17.0387V585.068H20.5031V590.713H25.1314V596.359H29.7596V600.584H25.1314V606.23H20.5031V611.875H17.0387V606.23H12.4104V600.584H7.78219Z" fill="#696969"/>
<path d="M21.2072 601.382C21.2072 601.227 21.2072 595.426 21.2072 595.426H16.3227V601.382H21.2072Z" stroke="#696969" stroke-miterlimit="10"/>
<path d="M35.4806 570.709L30.1639 570.679V576.197H25.6067V581.776H28.6974L30.1639 581.746V587.354H35.4806" stroke="#696969" stroke-miterlimit="10"/>
<path d="M2.82089 570.709L8.13761 570.679V576.197H12.6948V581.776H9.6041L8.13761 581.746V587.354H2.82089" stroke="#696969" stroke-miterlimit="10"/>
<path d="M35.4807 531.799L30.164 531.769V537.287H25.6068V542.866H28.6975L30.164 542.836V548.444H35.4807" stroke="#696969" stroke-miterlimit="10"/>
<path d="M2.82098 531.799L8.1377 531.769V537.287H12.6949V542.866H9.60419L8.1377 542.836V548.444H2.82098" stroke="#696969" stroke-miterlimit="10"/>
<path d="M35.4807 492.889L30.164 492.859V498.377H25.6068V503.956H28.6975L30.164 503.926V509.535H35.4807" stroke="#696969" stroke-miterlimit="10"/>
<path d="M2.82098 492.889L8.1377 492.859V498.377H12.6949V503.956H9.60419L8.1377 503.926V509.535H2.82098" stroke="#696969" stroke-miterlimit="10"/>
<path fill-rule="evenodd" clip-rule="evenodd" d="M30.9235 524.184V517.119H26.2952V511.474H21.667V505.829H15.875V511.474H11.2467V517.119H6.61849V524.184H7.20038H11.2467V529.829H15.875V535.474H21.667V529.829H26.2952V524.184H30.9235ZM7.78228 522.765V518.539H12.4105V512.894H17.0388V507.248H20.5032V512.894H25.1315V518.539H29.7597V522.765H25.1315V528.41H20.5032V534.055H17.0388V528.41H12.4105V522.765H7.78228Z" fill="#696969"/>
<path d="M21.2073 523.563C21.2073 523.407 21.2073 517.607 21.2073 517.607H16.3228V523.563H21.2073Z" stroke="#696969" stroke-miterlimit="10"/>
<path fill-rule="evenodd" clip-rule="evenodd" d="M30.9235 563.094V556.029H26.2952V550.384H21.667V544.739H15.875V550.384H11.2467V556.029H6.61849V563.094H7.20038H11.2467V568.739H15.875V574.384H21.667V568.739H26.2952V563.094H30.9235ZM7.78228 561.674V557.449H12.4105V551.803H17.0388V546.158H20.5032V551.803H25.1315V557.449H29.7597V561.674H25.1315V567.32H20.5032V572.965H17.0388V567.32H12.4105V561.674H7.78228Z" fill="#696969"/>
<path d="M21.1528 563.131C21.1528 562.979 21.1528 557.308 21.1528 557.308H16.3769V563.131H21.1528Z" stroke="#696969" stroke-miterlimit="10"/>
<path fill-rule="evenodd" clip-rule="evenodd" d="M30.9235 485.274V478.209H26.2952V472.564H21.667V466.919H15.875V472.564H11.2467V478.209H6.61849V485.274H7.20038H11.2467V490.919H15.875V496.565H21.667V490.919H26.2952V485.274H30.9235ZM7.78228 483.855V479.629H12.4105V473.984H17.0388V468.338H20.5032V473.984H25.1315V479.629H29.7597V483.855H25.1315V489.5H20.5032V495.145H17.0388V489.5H12.4105V483.855H7.78228Z" fill="#696969"/>
<path d="M21.1528 485.312C21.1528 485.159 21.1528 479.488 21.1528 479.488H16.3769V485.312H21.1528Z" stroke="#696969" stroke-miterlimit="10"/>
<path d="M35.4806 453.979L30.1639 453.949V459.468H25.6067V465.046H28.6974L30.1639 465.016V470.625H35.4806" stroke="#696969" stroke-miterlimit="10"/>
<path d="M2.82089 453.979L8.13761 453.949V459.468H12.6948V465.046H9.6041L8.13761 465.016V470.625H2.82089" stroke="#696969" stroke-miterlimit="10"/>
<path d="M35.4807 415.069L30.164 415.039V420.558H25.6068V426.136H28.6975L30.164 426.106V431.715H35.4807" stroke="#696969" stroke-miterlimit="10"/>
<path d="M2.82098 415.069L8.1377 415.039V420.558H12.6949V426.136H9.60419L8.1377 426.106V431.715H2.82098" stroke="#696969" stroke-miterlimit="10"/>
<path d="M35.4807 376.159L30.164 376.129V381.648H25.6068V387.226H28.6975L30.164 387.196V392.805H35.4807" stroke="#696969" stroke-miterlimit="10"/>
<path d="M2.82098 376.159L8.1377 376.129V381.648H12.6949V387.226H9.60419L8.1377 387.196V392.805H2.82098" stroke="#696969" stroke-miterlimit="10"/>
<path fill-rule="evenodd" clip-rule="evenodd" d="M30.9235 407.454V400.39H26.2952V394.744H21.667V389.099H15.875V394.744H11.2467V400.39H6.61849V407.454H7.20038H11.2467V413.1H15.875V418.745H21.667V413.1H26.2952V407.454H30.9235ZM7.78228 406.035V401.809H12.4105V396.164H17.0388V390.519H20.5032V396.164H25.1315V401.809H29.7597V406.035H25.1315V411.68H20.5032V417.325H17.0388V411.68H12.4105V406.035H7.78228Z" fill="#696969"/>
<path d="M21.2073 406.833C21.2073 406.677 21.2073 400.877 21.2073 400.877H16.3228V406.833H21.2073Z" stroke="#696969" stroke-miterlimit="10"/>
<path fill-rule="evenodd" clip-rule="evenodd" d="M30.9235 446.364V439.299H26.2952V433.654H21.667V428.009H15.875V433.654H11.2467V439.299H6.61849V446.364H7.20038H11.2467V452.009H15.875V457.655H21.667V452.009H26.2952V446.364H30.9235ZM7.78228 444.945V440.719H12.4105V435.074H17.0388V429.429H20.5032V435.074H25.1315V440.719H29.7597V444.945H25.1315V450.59H20.5032V456.235H17.0388V450.59H12.4105V444.945H7.78228Z" fill="#696969"/>
<path d="M21.1528 446.402C21.1528 446.249 21.1528 440.578 21.1528 440.578H16.3769V446.402H21.1528Z" stroke="#696969" stroke-miterlimit="10"/>
<path fill-rule="evenodd" clip-rule="evenodd" d="M30.9235 368.544V361.48H26.2952V355.834H21.667V350.189H15.875V355.834H11.2467V361.48H6.61849V368.544H7.20038H11.2467V374.19H15.875V379.835H21.667V374.19H26.2952V368.544H30.9235ZM7.78228 367.125V362.899H12.4105V357.254H17.0388V351.609H20.5032V357.254H25.1315V362.899H29.7597V367.125H25.1315V372.77H20.5032V378.415H17.0388V372.77H12.4105V367.125H7.78228Z" fill="#696969"/>
<path d="M21.1528 368.582C21.1528 368.429 21.1528 362.758 21.1528 362.758H16.3769V368.582H21.1528Z" stroke="#696969" stroke-miterlimit="10"/>
<path d="M35.4806 337.249L30.1639 337.219V342.738H25.6067V348.316H28.6974L30.1639 348.286V353.895H35.4806" stroke="#696969" stroke-miterlimit="10"/>
<path d="M2.82089 337.249L8.13761 337.219V342.738H12.6948V348.316H9.6041L8.13761 348.286V353.895H2.82089" stroke="#696969" stroke-miterlimit="10"/>
<path d="M35.4807 298.339L30.164 298.309V303.828H25.6068V309.406H28.6975L30.164 309.376V314.985H35.4807" stroke="#696969" stroke-miterlimit="10"/>
<path d="M2.82098 298.339L8.1377 298.309V303.828H12.6949V309.406H9.60419L8.1377 309.376V314.985H2.82098" stroke="#696969" stroke-miterlimit="10"/>
<path d="M35.4807 259.429L30.164 259.399V264.918H25.6068V270.497H28.6975L30.164 270.466V276.075H35.4807" stroke="#696969" stroke-miterlimit="10"/>
<path d="M2.82098 259.429L8.1377 259.399V264.918H12.6949V270.497H9.60419L8.1377 270.466V276.075H2.82098" stroke="#696969" stroke-miterlimit="10"/>
<path fill-rule="evenodd" clip-rule="evenodd" d="M30.9235 290.725V283.66H26.2952V278.015H21.667V272.369H15.875V278.015H11.2467V283.66H6.61849V290.725H7.20038H11.2467V296.37H15.875V302.015H21.667V296.37H26.2952V290.725H30.9235ZM7.78228 289.305V285.079H12.4105V279.434H17.0388V273.789H20.5032V279.434H25.1315V285.079H29.7597V289.305H25.1315V294.95H20.5032V300.596H17.0388V294.95H12.4105V289.305H7.78228Z" fill="#696969"/>
<path d="M21.2073 290.103C21.2073 289.947 21.2073 284.147 21.2073 284.147H16.3228V290.103H21.2073Z" stroke="#696969" stroke-miterlimit="10"/>
<path fill-rule="evenodd" clip-rule="evenodd" d="M30.9235 329.634V322.57H26.2952V316.925H21.667V311.279H15.875V316.925H11.2467V322.57H6.61849V329.634H7.20038H11.2467V335.28H15.875V340.925H21.667V335.28H26.2952V329.634H30.9235ZM7.78228 328.215V323.989H12.4105V318.344H17.0388V312.699H20.5032V318.344H25.1315V323.989H29.7597V328.215H25.1315V333.86H20.5032V339.505H17.0388V333.86H12.4105V328.215H7.78228Z" fill="#696969"/>
<path d="M21.1528 329.672C21.1528 329.52 21.1528 323.848 21.1528 323.848H16.3769V329.672H21.1528Z" stroke="#696969" stroke-miterlimit="10"/>
<path fill-rule="evenodd" clip-rule="evenodd" d="M30.9235 251.815V244.75H26.2952V239.105H21.667V233.459H15.875V239.105H11.2467V244.75H6.61849V251.815H7.20038H11.2467V257.46H15.875V263.105H21.667V257.46H26.2952V251.815H30.9235ZM7.78228 250.395V246.169H12.4105V240.524H17.0388V234.879H20.5032V240.524H25.1315V246.169H29.7597V250.395H25.1315V256.04H20.5032V261.686H17.0388V256.04H12.4105V250.395H7.78228Z" fill="#696969"/>
<path d="M21.1528 251.852C21.1528 251.7 21.1528 246.028 21.1528 246.028H16.3769V251.852H21.1528Z" stroke="#696969" stroke-miterlimit="10"/>
<path d="M35.4806 220.52L30.1639 220.49V226.008H25.6067V231.587H28.6974L30.1639 231.557V237.165H35.4806" stroke="#696969" stroke-miterlimit="10"/>
<path d="M2.82089 220.52L8.13761 220.49V226.008H12.6948V231.587H9.6041L8.13761 231.557V237.165H2.82089" stroke="#696969" stroke-miterlimit="10"/>
<path d="M35.4807 181.61L30.164 181.58V187.098H25.6068V192.677H28.6975L30.164 192.647V198.255H35.4807" stroke="#696969" stroke-miterlimit="10"/>
<path d="M2.82098 181.61L8.1377 181.58V187.098H12.6949V192.677H9.60419L8.1377 192.647V198.255H2.82098" stroke="#696969" stroke-miterlimit="10"/>
<path d="M35.4807 142.7L30.164 142.67V148.188H25.6068V153.767H28.6975L30.164 153.737V159.345H35.4807" stroke="#696969" stroke-miterlimit="10"/>
<path d="M2.82098 142.7L8.1377 142.67V148.188H12.6949V153.767H9.60419L8.1377 153.737V159.345H2.82098" stroke="#696969" stroke-miterlimit="10"/>
<path fill-rule="evenodd" clip-rule="evenodd" d="M30.9235 173.995V166.93H26.2952V161.285H21.667V155.64H15.875V161.285H11.2467V166.93H6.61849V173.995H7.20038H11.2467V179.64H15.875V185.285H21.667V179.64H26.2952V173.995H30.9235ZM7.78228 172.575V168.35H12.4105V162.704H17.0388V157.059H20.5032V162.704H25.1315V168.35H29.7597V172.575H25.1315V178.221H20.5032V183.866H17.0388V178.221H12.4105V172.575H7.78228Z" fill="#696969"/>
<path d="M21.2073 173.373C21.2073 173.218 21.2073 167.417 21.2073 167.417H16.3228V173.373H21.2073Z" stroke="#696969" stroke-miterlimit="10"/>
<path fill-rule="evenodd" clip-rule="evenodd" d="M30.9235 212.905V205.84H26.2952V200.195H21.667V194.55H15.875V200.195H11.2467V205.84H6.61849V212.905H7.20038H11.2467V218.55H15.875V224.195H21.667V218.55H26.2952V212.905H30.9235ZM7.78228 211.485V207.26H12.4105V201.614H17.0388V195.969H20.5032V201.614H25.1315V207.26H29.7597V211.485H25.1315V217.131H20.5032V222.776H17.0388V217.131H12.4105V211.485H7.78228Z" fill="#696969"/>
<path d="M21.1528 212.942C21.1528 212.79 21.1528 207.119 21.1528 207.119H16.3769V212.942H21.1528Z" stroke="#696969" stroke-miterlimit="10"/>
<path fill-rule="evenodd" clip-rule="evenodd" d="M30.9235 135.085V128.02H26.2952V122.375H21.667V116.73H15.875V122.375H11.2467V128.02H6.61849V135.085H7.20038H11.2467V140.73H15.875V146.375H21.667V140.73H26.2952V135.085H30.9235ZM7.78228 133.666V129.44H12.4105V123.795H17.0388V118.149H20.5032V123.795H25.1315V129.44H29.7597V133.666H25.1315V139.311H20.5032V144.956H17.0388V139.311H12.4105V133.666H7.78228Z" fill="#696969"/>
<path d="M21.1528 135.122C21.1528 134.97 21.1528 129.299 21.1528 129.299H16.3769V135.122H21.1528Z" stroke="#696969" stroke-miterlimit="10"/>
<path d="M35.4806 103.79L30.1639 103.76V109.278H25.6067V114.857H28.6974L30.1639 114.827V120.436H35.4806" stroke="#696969" stroke-miterlimit="10"/>
<path d="M2.82089 103.79L8.13761 103.76V109.278H12.6948V114.857H9.6041L8.13761 114.827V120.436H2.82089" stroke="#696969" stroke-miterlimit="10"/>
<path d="M35.4807 64.88L30.164 64.85V70.3685H25.6068V75.9471H28.6975L30.164 75.9171V81.5256H35.4807" stroke="#696969" stroke-miterlimit="10"/>
<path d="M2.82098 64.88L8.1377 64.85V70.3685H12.6949V75.9471H9.60419L8.1377 75.9171V81.5256H2.82098" stroke="#696969" stroke-miterlimit="10"/>
<path d="M35.4807 25.9701L30.164 25.94V31.4586H25.6068V37.0372H28.6975L30.164 37.0071V42.6157H35.4807" stroke="#696969" stroke-miterlimit="10"/>
<path d="M2.82098 25.9701L8.1377 25.94V31.4586H12.6949V37.0372H9.60419L8.1377 37.0071V42.6157H2.82098" stroke="#696969" stroke-miterlimit="10"/>
<path fill-rule="evenodd" clip-rule="evenodd" d="M30.9235 57.2652V50.2005H26.2952V44.5552H21.667V38.91H15.875V44.5552H11.2467V50.2005H6.61849V57.2652H7.20038H11.2467V62.9104H15.875V68.5557H21.667V62.9104H26.2952V57.2652H30.9235ZM7.78228 55.8457V51.62H12.4105V45.9748H17.0388V40.3295H20.5032V45.9748H25.1315V51.62H29.7597V55.8457H25.1315V61.4909H20.5032V67.1362H17.0388V61.4909H12.4105V55.8457H7.78228Z" fill="#696969"/>
<path d="M21.2073 56.6437C21.2073 56.4879 21.2073 50.6876 21.2073 50.6876H16.3228V56.6437H21.2073Z" stroke="#696969" stroke-miterlimit="10"/>
<path fill-rule="evenodd" clip-rule="evenodd" d="M30.9235 96.1751V89.1104H26.2952V83.4652H21.667V77.8199H15.875V83.4652H11.2467V89.1104H6.61849V96.1751H7.20038H11.2467V101.82H15.875V107.466H21.667V101.82H26.2952V96.1751H30.9235ZM7.78228 94.7556V90.5299H12.4105V84.8847H17.0388V79.2394H20.5032V84.8847H25.1315V90.5299H29.7597V94.7556H25.1315V100.401H20.5032V106.046H17.0388V100.401H12.4105V94.7556H7.78228Z" fill="#696969"/>
<path d="M21.1528 96.2125C21.1528 96.0602 21.1528 90.3889 21.1528 90.3889H16.3769V96.2125H21.1528Z" stroke="#696969" stroke-miterlimit="10"/>
<path fill-rule="evenodd" clip-rule="evenodd" d="M30.9235 18.3553V11.2906H26.2952V5.64534H21.667V0.000108719H15.875V5.64534H11.2467V11.2906H6.61849V18.3553H7.20038H11.2467V24.0005H15.875V29.6458H21.667V24.0005H26.2952V18.3553H30.9235ZM7.78228 16.9358V12.7101H12.4105V7.06484H17.0388V1.41962H20.5032V7.06484H25.1315V12.7101H29.7597V16.9358H25.1315V22.581H20.5032V28.2262H17.0388V22.581H12.4105V16.9358H7.78228Z" fill="#696969"/>
<path d="M21.1528 18.3927C21.1528 18.2403 21.1528 12.5691 21.1528 12.5691H16.3769V18.3927H21.1528Z" stroke="#696969" stroke-miterlimit="10"/>
<path fill-rule="evenodd" clip-rule="evenodd" d="M25.4275 617V614.046V613.543L25.9312 613.546L29.7528 613.574V608.264V607.761L30.2558 607.764L35.4796 607.796L35.4735 608.796L30.7528 608.767V614.078V614.581L30.2491 614.578L26.4275 614.55V617H25.4275Z" fill="#696969"/>
<path fill-rule="evenodd" clip-rule="evenodd" d="M11.1041 617V614.55L7.28249 614.577L6.77885 614.581V614.077L6.77885 608.767L2.05809 608.796L2.05207 607.796L7.27584 607.764L7.77885 607.761V608.264L7.77885 613.574L11.6005 613.546L12.1041 613.542V614.046V617H11.1041Z" fill="#696969"/>
</svg>
