<svg width="244" height="202" viewBox="0 0 244 202" fill="none" xmlns="http://www.w3.org/2000/svg">
<g clip-path="url(#clip0_91_2)">
<path d="M211.729 200.327C211.61 195.067 211.312 187.776 211.252 182.577C211.431 181.202 211.848 179.947 212.384 178.692C213.455 176.242 215.361 173.971 217.861 173.015C221.434 171.7 226.435 172.537 229.412 174.927C231.556 176.66 232.866 179.23 233.283 181.86L233.223 200.506V200.685H233.044C227.09 200.685 217.742 200.446 211.729 200.327ZM211.729 200.327L233.044 200.625C232.985 200.745 233.044 181.979 233.044 181.979C232.509 178.035 229.591 174.449 225.78 173.314C220.064 171.64 215.063 173.015 212.562 178.752C212.026 179.947 211.61 181.262 211.431 182.577C211.431 182.577 211.729 200.327 211.729 200.327Z" stroke="#5B402C" stroke-miterlimit="10"/>
<path d="M11.7892 200.327C11.6701 195.067 11.3724 187.776 11.3128 182.577C11.4915 181.202 11.9082 179.947 12.4441 178.692C13.5159 176.242 15.4212 173.971 17.9219 173.015C21.4348 171.7 26.4959 172.537 29.4729 174.927C31.5569 176.66 32.9858 179.23 33.3431 181.86L33.2836 200.506V200.685H33.1049C27.1508 200.685 17.8028 200.446 11.7892 200.327ZM11.7892 200.327L33.1049 200.625C33.0454 200.745 33.1049 181.979 33.1049 181.979C32.5691 178.035 29.6515 174.449 25.8409 173.314C20.1249 171.64 15.1235 173.015 12.6227 178.752C12.0869 179.947 11.6701 181.262 11.4915 182.577C11.4319 182.577 11.7892 200.327 11.7892 200.327Z" stroke="#5B402C" stroke-miterlimit="10"/>
<path d="M123.667 17.69C123.369 12.6698 123.369 7.53019 123.548 2.45031C123.548 1.73315 123.608 1.01599 123.667 0.298828C123.667 4.60179 123.727 13.4468 123.667 17.69Z" stroke="#5B402C" stroke-miterlimit="10"/>
<path d="M119.202 6.45446C122.06 6.15564 124.977 6.15564 127.835 6.45446C125.692 6.45446 121.286 6.51422 119.202 6.45446Z" stroke="#5B402C" stroke-miterlimit="10"/>
<path d="M121.286 54.9823C121.345 58.2095 121.464 61.6758 121.524 64.903L121.286 64.664H125.513L125.275 64.903V59.9427C125.275 58.329 125.334 56.6557 125.334 54.9823L125.453 55.1018C124.739 55.1018 124.084 55.0421 123.369 55.0421L121.286 54.9823ZM121.286 54.9823C121.286 54.9823 125.513 55.0421 125.572 55.0421V64.903C125.572 64.903 121.345 64.903 121.286 64.903V54.9823Z" stroke="#5B402C" stroke-miterlimit="10"/>
<path d="M29.0561 136.978C29.1157 140.205 29.2347 143.671 29.2943 146.898L29.0561 146.659H33.2836L33.0454 146.898V141.938C33.0454 140.324 33.1049 138.651 33.1049 136.978L33.224 137.097C32.5095 137.097 31.8546 137.037 31.1401 137.037L29.0561 136.978ZM29.0561 136.978C29.0561 136.978 33.2836 137.037 33.3431 137.037V146.898C33.3431 146.898 29.1157 146.898 29.0561 146.898C29.0561 146.898 29.0561 136.978 29.0561 136.978Z" stroke="#5B402C" stroke-miterlimit="10"/>
<path d="M212.324 136.978C212.384 140.205 212.503 143.671 212.562 146.898L212.324 146.659H216.552L216.313 146.898V141.938C216.313 140.324 216.373 138.651 216.373 136.978L216.492 137.097C215.837 137.097 215.123 137.037 214.408 137.037L212.324 136.978ZM212.324 136.978C212.324 136.978 216.551 137.037 216.611 137.037V146.898C216.611 146.898 212.384 146.898 212.324 146.898C212.265 146.898 212.324 136.978 212.324 136.978Z" stroke="#5B402C" stroke-miterlimit="10"/>
<path d="M123.786 13.8651C131.586 24.2639 146.888 44.7627 154.569 55.2213L154.033 55.1018C154.033 55.1018 137.123 50.7391 137.362 50.7988L122.834 50.5L108.306 50.1414C108.663 50.0817 92.8248 55.1018 92.8843 55.1018L92.2889 55.2811C100.267 44.8225 115.808 24.3237 123.786 13.8651ZM123.786 13.9249C123.786 13.9249 92.8248 55.042 92.8248 54.9225L108.306 49.9622L137.421 50.5598L154.152 54.9225C154.152 55.1018 123.786 13.8651 123.786 13.9249Z" stroke="#5B402C" stroke-miterlimit="10"/>
<path d="M94.0752 73.5686C93.7775 68.5485 93.7775 63.4089 93.9561 58.329C93.9561 57.6118 94.0156 56.8946 94.0752 56.1775C94.0752 60.4804 94.1347 69.2657 94.0752 73.5686Z" fill="#5B402C" stroke="#5B402C"/>
<path d="M151.532 73.5686C151.056 68.5485 150.878 63.4089 150.878 58.329C150.878 57.6118 150.878 56.8349 150.878 56.1775C151.056 60.4804 151.413 69.2657 151.532 73.5686Z" fill="#5B402C" stroke="#5B402C"/>
<path d="M54.7779 110.502L59.6603 90.0035V89.9438H59.7199C91.6935 89.8242 155.939 89.8242 187.853 89.9438H187.972V90.0633C188.15 93.41 188.329 96.697 188.508 99.984C188.508 99.984 189.103 109.964 189.043 109.905C189.043 109.905 187.793 89.9438 187.793 90.0633H59.7199C59.7199 89.9438 54.8375 110.622 54.7779 110.502Z" stroke="#5B402C" stroke-miterlimit="10"/>
<path d="M151.294 89.1071L151.235 75.6604L151.473 75.8994L92.7653 75.7201C92.8248 75.3615 92.7653 88.8083 92.7653 88.7485C92.7057 88.7485 92.7653 75.6006 92.7653 75.6604C92.7653 75.6604 151.532 75.6006 151.473 75.6604C151.532 75.6604 151.413 89.1071 151.294 89.1071Z" stroke="#5B402C" stroke-miterlimit="10"/>
<path d="M156.296 100.88L156.355 106.14L156.296 106.02C159.69 106.498 164.632 107.395 168.085 107.933C178.921 109.785 192.556 112.116 203.333 114.148H203.572L203.393 114.267C203.393 114.267 197.736 118.033 197.796 117.913L203.333 114.208C203.393 114.267 156.296 106.14 156.296 106.199C156.236 106.199 156.296 100.88 156.296 100.88ZM156.296 100.88C156.236 100.88 156.296 100.88 156.296 100.88Z" stroke="#5B402C" stroke-miterlimit="10"/>
<path d="M88.8355 101.179L123.489 66.5763L157.546 101.179" fill="#ECE9E9"/>
<path d="M88.776 101.179C98.3621 91.3183 113.664 76.0787 123.429 66.158C129.145 72.0148 143.494 86.7165 149.091 92.3941C149.091 92.3941 157.606 101.12 157.487 101.179C157.487 101.179 123.31 66.5165 123.429 66.5165C123.489 66.5763 88.8355 101.299 88.776 101.179Z" stroke="#5B402C" stroke-miterlimit="10"/>
<path d="M46.6803 116.718L41.6789 113.67L41.5002 113.55C43.1079 113.251 46.204 112.773 47.8712 112.534C59.1245 110.801 73.4739 108.709 84.7272 107.156C86.7516 106.857 88.8355 106.618 90.8599 106.319L90.8004 106.438C90.8004 106.438 90.6218 101.06 90.6813 101.12C90.6813 101.12 90.9195 106.438 90.8599 106.438C90.8599 106.438 41.6789 113.67 41.7384 113.55C41.7384 113.67 46.7994 116.718 46.6803 116.718Z" stroke="#5B402C" stroke-miterlimit="10"/>
<path d="M198.391 117.973L198.451 136.619V136.738H198.332C164.512 136.798 118.189 136.918 84.3699 136.798C73.2357 136.798 57.2787 136.798 46.2635 136.738V136.619C46.2635 136.619 46.2635 118.092 46.3826 118.152C46.3826 118.152 46.3826 136.679 46.3826 136.619H198.332C198.332 136.679 198.332 117.913 198.391 117.973Z" stroke="#5B402C" stroke-miterlimit="10"/>
<path d="M119.142 130.404L127.776 130.284L127.656 130.404L127.597 119.527V108.65C127.716 107.574 127.418 106.319 126.585 105.542C125.096 104.168 121.702 104.168 120.273 105.662C119.499 106.498 119.261 107.694 119.38 108.829C119.321 115.044 119.202 124.069 119.142 130.404ZM119.142 130.404V108.829C119.023 107.634 119.261 106.379 120.095 105.423C121.166 104.287 122.834 104.108 124.263 104.287C125.751 104.407 127.24 105.303 127.656 106.797C127.835 107.335 127.895 107.992 127.835 108.59L127.776 130.344C127.776 130.463 119.142 130.404 119.142 130.404Z" stroke="#5B402C" stroke-miterlimit="10"/>
<path d="M92.2889 76.0521C95.266 73.7213 98.6003 71.271 101.637 69.1195L101.756 69L101.875 69.1195C103.899 70.7331 106.341 72.7053 108.306 74.3189L110.389 76.1118C110.389 76.1118 101.577 69.2391 101.756 69.2988C101.816 69.2988 92.2889 76.1118 92.2889 76.0521Z" stroke="#5B402C"/>
<path d="M133.372 74.8568C136.528 72.8846 140.041 70.8527 143.256 69C145.638 70.4343 148.436 72.287 150.758 73.8408C151.532 74.3787 152.426 74.9166 153.14 75.5142L143.256 69.2988C143.375 69.2391 133.313 74.9763 133.372 74.8568Z" stroke="#5B402C"/>
<path d="M38.0469 136.619L36.9156 199.968C35.8438 199.789 210.24 200.625 208.633 201.223C208.573 201.283 207.442 135.722 207.799 136.798L122.953 136.738L38.0469 136.619ZM38.0469 136.619H207.799C207.858 136.619 208.871 201.283 208.871 201.283C208.871 201.283 36.7965 200.028 36.7369 200.028C36.7965 199.968 38.0469 136.619 38.0469 136.619Z" stroke="#5B402C" stroke-miterlimit="10"/>
<path d="M87.4428 173.003L87.6762 199.468H49.6967L50.5132 173.009L50.5162 172.993C50.5229 172.958 50.5333 172.905 50.5476 172.836C50.5762 172.696 50.6205 172.49 50.6825 172.227C50.8065 171.701 51.0012 170.947 51.2829 170.041C51.8469 168.226 52.7566 165.812 54.1398 163.403C56.9091 158.579 61.5222 153.853 69.0083 153.853C76.494 153.853 81.0921 158.578 83.8464 163.402C85.2222 165.811 86.1246 168.225 86.6831 170.039C86.962 170.945 87.1544 171.7 87.2768 172.226C87.338 172.489 87.3816 172.695 87.4098 172.834C87.4239 172.904 87.4341 172.957 87.4407 172.992L87.4428 173.003Z" stroke="black"/>
<path d="M49.1811 199.968C49.4192 192.259 49.5978 180.545 49.836 172.895C50.8482 168.054 52.8131 163.333 55.9688 159.508C62.6969 151.082 75.2006 151.022 81.9883 159.448C85.144 163.333 87.1088 168.054 88.121 172.895C88.121 173.194 88.2997 199.789 88.2997 200.147C78.5349 200.147 59.0054 200.088 49.1811 199.968ZM49.1811 199.968C49.1811 199.968 88.2401 199.968 88.1806 199.968C88.1806 199.968 87.9424 172.895 87.9424 172.955C86.3943 165.903 82.8219 158.433 76.1532 155.026C71.7472 152.875 66.2694 152.875 61.8633 155.026C57.3978 157.237 54.3016 161.48 52.3367 165.903C51.3245 168.174 50.5505 170.505 50.0146 172.895L49.1811 199.968Z" fill="#5B402C"/>
<path d="M140.97 172.981V200.126H102.794L102.911 172.046L102.912 172.04C102.918 172.009 102.927 171.96 102.94 171.897C102.966 171.77 103.007 171.581 103.066 171.34C103.182 170.856 103.368 170.162 103.644 169.326C104.196 167.652 105.105 165.417 106.532 163.168C109.381 158.677 114.279 154.144 122.553 153.852C130.782 153.563 135.367 158.292 137.924 163.162C139.205 165.602 139.968 168.066 140.411 169.924C140.633 170.852 140.773 171.626 140.859 172.166C140.901 172.436 140.93 172.648 140.948 172.791C140.957 172.862 140.963 172.916 140.967 172.952L140.97 172.981Z" stroke="black"/>
<mask id="path-25-inside-1_91_2" fill="white">
<path d="M102.292 200.625C112.057 200.566 131.705 200.506 141.47 200.446L141.291 200.625C141.291 200.625 141.232 172.895 141.232 173.015C140.934 170.565 140.279 168.114 139.386 165.843C136.945 159.568 132.479 154.608 125.572 153.771C116.582 152.815 109.258 157.058 105.15 165.126C104.019 167.278 103.125 169.788 102.649 172.059L102.59 179.17C102.47 183.772 102.351 195.904 102.292 200.625ZM102.292 200.625L102.411 171.999C102.887 169.549 103.78 167.158 104.912 164.947C108.186 158.492 113.664 154.189 120.869 153.472C126.763 152.815 132.062 154.548 135.933 159.21C138.314 162.138 139.862 165.664 140.815 169.25C141.113 170.445 141.351 171.7 141.53 172.955V200.625C141.53 200.685 102.292 200.566 102.292 200.625Z"/>
</mask>
<path d="M102.292 200.625L101.292 200.613L101.279 201.632L102.298 201.625L102.292 200.625ZM141.47 200.446L142.178 201.152L143.893 199.431L141.464 199.446L141.47 200.446ZM141.291 200.625L140.291 200.628L140.297 203.041L142 201.331L141.291 200.625ZM141.232 173.015L140.239 173.135L142.232 173.015H141.232ZM139.386 165.843L138.454 166.206L138.455 166.209L139.386 165.843ZM125.572 153.771L125.693 152.778L125.685 152.777L125.678 152.777L125.572 153.771ZM105.15 165.126L106.035 165.592L106.041 165.58L105.15 165.126ZM102.649 172.059L101.67 171.853L101.65 171.951L101.649 172.05L102.649 172.059ZM102.59 179.17L103.589 179.196L103.589 179.188L103.59 179.179L102.59 179.17ZM102.292 200.625H101.292L103.292 200.63L102.292 200.625ZM102.411 171.999L101.429 171.808L101.411 171.901L101.411 171.995L102.411 171.999ZM104.912 164.947L105.802 165.402L105.803 165.399L104.912 164.947ZM120.869 153.472L120.968 154.467L120.98 154.466L120.869 153.472ZM135.933 159.21L136.709 158.579L136.702 158.571L135.933 159.21ZM140.815 169.25L141.785 169.008L141.784 169.001L141.782 168.993L140.815 169.25ZM141.53 172.955H142.53V172.884L142.52 172.814L141.53 172.955ZM102.298 201.625C107.179 201.596 114.531 201.566 121.885 201.536C129.238 201.506 136.592 201.476 141.476 201.446L141.464 199.446C136.583 199.476 129.231 199.506 121.877 199.536C114.524 199.566 107.169 199.596 102.286 199.626L102.298 201.625ZM140.762 199.74L140.583 199.92L142 201.331L142.178 201.152L140.762 199.74ZM141.291 200.625C142.291 200.623 142.291 200.623 142.291 200.623C142.291 200.623 142.291 200.623 142.291 200.622C142.291 200.621 142.291 200.62 142.291 200.618C142.291 200.615 142.291 200.61 142.291 200.603C142.291 200.59 142.291 200.57 142.291 200.544C142.291 200.491 142.291 200.413 142.291 200.312C142.29 200.109 142.29 199.811 142.289 199.432C142.287 198.674 142.285 197.591 142.282 196.292C142.276 193.695 142.269 190.232 142.262 186.773C142.254 183.314 142.247 179.859 142.241 177.276C142.238 175.985 142.236 174.912 142.234 174.165C142.234 173.791 142.233 173.5 142.232 173.303C142.232 173.205 142.232 173.13 142.232 173.081C142.232 173.057 142.232 173.039 142.232 173.027C142.232 173.021 142.232 173.017 142.232 173.014C142.232 173.013 142.232 173.011 142.232 173.01C142.232 173.008 141.238 172.014 140.232 172.993C140.232 173.003 140.232 173.014 140.232 173.015H142.232C142.232 173.016 142.232 173.026 142.232 173.036C141.225 174.014 140.232 173.021 140.232 173.019C140.232 173.019 140.232 173.019 140.232 173.02C140.232 173.022 140.232 173.026 140.232 173.032C140.232 173.043 140.232 173.061 140.232 173.086C140.232 173.135 140.232 173.209 140.232 173.307C140.233 173.504 140.234 173.796 140.234 174.169C140.236 174.916 140.238 175.989 140.241 177.281C140.247 179.864 140.254 183.319 140.262 186.778C140.269 190.236 140.276 193.699 140.282 196.297C140.285 197.596 140.287 198.678 140.289 199.436C140.29 199.815 140.29 200.113 140.291 200.316C140.291 200.418 140.291 200.496 140.291 200.548C140.291 200.574 140.291 200.594 140.291 200.608C140.291 200.614 140.291 200.619 140.291 200.623C140.291 200.624 140.291 200.626 140.291 200.626C140.291 200.627 140.291 200.627 140.291 200.627C140.291 200.628 140.291 200.628 141.291 200.625ZM142.225 172.894C141.916 170.351 141.238 167.819 140.317 165.477L138.455 166.209C139.321 168.41 139.953 170.778 140.239 173.135L142.225 172.894ZM140.318 165.481C137.798 159.002 133.094 153.675 125.693 152.778L125.452 154.764C131.865 155.541 136.092 160.134 138.454 166.206L140.318 165.481ZM125.678 152.777C116.251 151.774 108.544 156.257 104.259 164.672L106.041 165.58C109.972 157.859 116.912 153.856 125.467 154.765L125.678 152.777ZM104.265 164.661C103.09 166.895 102.166 169.492 101.67 171.853L103.628 172.264C104.085 170.083 104.947 167.661 106.035 165.591L104.265 164.661ZM101.649 172.05L101.59 179.162L103.59 179.179L103.649 172.067L101.649 172.05ZM101.59 179.145C101.471 183.755 101.351 195.901 101.292 200.613L103.292 200.638C103.351 195.907 103.47 183.789 103.589 179.196L101.59 179.145ZM103.292 200.63L103.411 172.003L101.411 171.995L101.292 200.621L103.292 200.63ZM103.393 172.19C103.848 169.847 104.705 167.546 105.802 165.402L104.021 164.491C102.855 166.77 101.927 169.25 101.429 171.808L103.393 172.19ZM105.803 165.399C108.948 159.201 114.153 155.146 120.968 154.467L120.77 152.477C113.175 153.233 107.425 157.784 104.02 164.494L105.803 165.399ZM120.98 154.466C126.589 153.84 131.538 155.482 135.163 159.848L136.702 158.571C132.587 153.614 126.938 151.789 120.758 152.478L120.98 154.466ZM135.157 159.84C137.426 162.631 138.922 166.017 139.849 169.507L141.782 168.993C140.803 165.311 139.202 161.645 136.708 158.579L135.157 159.84ZM139.845 169.491C140.133 170.65 140.365 171.871 140.54 173.096L142.52 172.814C142.337 171.529 142.092 170.24 141.785 169.008L139.845 169.491ZM140.53 172.955V200.625H142.53V172.955H140.53ZM140.53 200.625C140.632 200.186 141.038 199.755 141.169 199.693C141.224 199.674 141.31 199.65 141.34 199.644C141.387 199.635 141.424 199.632 141.429 199.631C141.449 199.629 141.462 199.629 141.456 199.629C141.45 199.629 141.432 199.63 141.396 199.631C141.328 199.632 141.223 199.634 141.08 199.635C140.796 199.637 140.377 199.639 139.841 199.64C138.77 199.643 137.238 199.643 135.399 199.642C131.721 199.64 126.817 199.633 121.912 199.626C117.008 199.618 112.102 199.611 108.423 199.609C106.584 199.608 105.05 199.608 103.975 199.611C103.439 199.612 103.015 199.614 102.724 199.616C102.579 199.618 102.464 199.619 102.384 199.621C102.345 199.621 102.307 199.622 102.275 199.624C102.262 199.624 102.235 199.626 102.206 199.628C102.196 199.629 102.155 199.633 102.106 199.643C102.075 199.649 101.988 199.673 101.932 199.692C101.8 199.754 101.394 200.185 101.292 200.625H103.292C103.19 201.065 102.784 201.496 102.652 201.558C102.597 201.578 102.511 201.601 102.481 201.607C102.434 201.616 102.397 201.619 102.392 201.62C102.372 201.622 102.359 201.622 102.365 201.622C102.371 201.622 102.39 201.621 102.425 201.62C102.493 201.619 102.598 201.617 102.741 201.616C103.025 201.614 103.444 201.612 103.98 201.611C105.052 201.608 106.583 201.608 108.422 201.609C112.1 201.611 117.004 201.618 121.909 201.625C126.814 201.633 131.719 201.64 135.398 201.642C137.238 201.643 138.771 201.643 139.846 201.64C140.383 201.639 140.807 201.637 141.097 201.635C141.242 201.633 141.357 201.632 141.438 201.63C141.476 201.63 141.515 201.629 141.546 201.627C141.559 201.627 141.586 201.625 141.616 201.623C141.626 201.622 141.666 201.618 141.715 201.608C141.746 201.602 141.833 201.578 141.889 201.559C142.021 201.497 142.428 201.066 142.53 200.625H140.53Z" fill="black" mask="url(#path-25-inside-1_91_2)"/>
<path d="M193.547 173.865L193.547 173.866L193.547 173.866L193.547 173.867L193.546 173.881L193.545 173.896L192.727 200.715L156.198 200.133L156.081 172.535L156.081 172.535L156.081 172.523L156.081 172.523L156.081 172.523L156.081 172.521L156.081 172.513L156.08 172.476C156.08 172.443 156.08 172.393 156.08 172.326C156.081 172.192 156.085 171.993 156.098 171.739C156.122 171.23 156.18 170.5 156.311 169.623C156.575 167.865 157.134 165.53 158.312 163.2C159.489 160.874 161.281 158.558 164.013 156.823C166.743 155.088 170.443 153.912 175.468 153.912C180.486 153.912 184.095 155.17 186.696 157.023C189.301 158.877 190.933 161.354 191.952 163.851C192.972 166.35 193.372 168.858 193.516 170.746C193.587 171.689 193.595 172.474 193.584 173.021C193.579 173.295 193.57 173.508 193.561 173.653C193.557 173.725 193.554 173.78 193.551 173.816L193.548 173.855L193.547 173.865Z" stroke="black"/>
<mask id="path-28-inside-2_91_2" fill="white">
<path d="M155.7 200.625C165.048 200.685 183.863 200.984 193.211 201.104L193.033 201.283L193.449 186.462C193.509 184.011 193.688 177.736 193.807 175.405C194.224 169.429 193.092 162.855 188.746 158.433C183.566 153.233 174.932 152.815 168.204 154.667C160.761 156.819 156.415 163.572 155.879 171.102C155.76 172.178 155.819 173.672 155.819 174.748C155.7 181.382 155.7 193.812 155.7 200.625ZM155.641 200.625C155.641 195.665 155.581 183.234 155.581 178.453C155.581 177.198 155.581 174.091 155.581 172.895C155.581 169.847 156.177 166.74 157.427 163.931C159.392 159.389 163.322 155.803 168.144 154.428C172.848 153.054 178.028 152.994 182.673 154.428C190.294 156.759 193.926 164.11 194.164 171.7C194.224 173.852 193.985 176.899 193.985 179.111C193.866 183.832 193.449 196.442 193.271 201.343C193.211 201.283 155.7 200.625 155.641 200.625Z"/>
</mask>
<path d="M155.7 200.625H154.7V201.619L155.694 201.625L155.7 200.625ZM193.211 201.104L193.92 201.809L195.589 200.134L193.224 200.104L193.211 201.104ZM193.033 201.283L192.033 201.255L191.962 203.774L193.741 201.989L193.033 201.283ZM193.449 186.462L194.449 186.49L194.449 186.486L193.449 186.462ZM193.807 175.405L192.809 175.336L192.809 175.345L192.808 175.354L193.807 175.405ZM188.746 158.433L189.459 157.732L189.454 157.727L188.746 158.433ZM168.204 154.667L167.939 153.703L167.926 153.707L168.204 154.667ZM155.879 171.102L156.873 171.212L156.875 171.193L156.876 171.173L155.879 171.102ZM155.819 174.748L156.819 174.766L156.819 174.757V174.748H155.819ZM155.641 200.625H154.641V201.625H155.641V200.625ZM157.427 163.931L158.341 164.338L158.345 164.328L157.427 163.931ZM168.144 154.428L168.419 155.39L168.425 155.388L168.144 154.428ZM182.673 154.428L182.377 155.384L182.38 155.385L182.673 154.428ZM194.164 171.7L195.164 171.672L195.164 171.669L194.164 171.7ZM193.985 179.111L194.985 179.136L194.985 179.123V179.111H193.985ZM193.271 201.343L192.562 202.048L194.186 203.678L194.27 201.379L193.271 201.343ZM155.694 201.625C165.038 201.685 183.843 201.984 193.199 202.104L193.224 200.104C183.883 199.984 165.059 199.685 155.707 199.626L155.694 201.625ZM192.503 200.398L192.324 200.577L193.741 201.989L193.92 201.809L192.503 200.398ZM194.032 201.311L194.449 186.49L192.45 186.433L192.033 201.255L194.032 201.311ZM194.449 186.486C194.509 184.033 194.687 177.772 194.805 175.456L192.808 175.354C192.688 177.701 192.509 183.989 192.45 186.437L194.449 186.486ZM194.804 175.475C195.23 169.368 194.094 162.448 189.459 157.732L188.033 159.134C192.09 163.262 193.217 169.49 192.809 175.336L194.804 175.475ZM189.454 157.727C183.905 152.157 174.823 151.808 167.939 153.703L168.469 155.632C175.041 153.822 183.226 154.309 188.037 159.138L189.454 157.727ZM167.926 153.707C159.996 155.999 155.44 163.179 154.881 171.031L156.876 171.173C157.389 163.965 161.527 157.639 168.482 155.628L167.926 153.707ZM154.885 170.992C154.758 172.141 154.819 173.746 154.819 174.748H156.819C156.819 173.599 156.762 172.215 156.873 171.212L154.885 170.992ZM154.82 174.73C154.7 181.375 154.7 193.817 154.7 200.625H156.7C156.7 193.808 156.7 181.388 156.819 174.766L154.82 174.73ZM156.641 200.625C156.641 198.143 156.626 193.793 156.611 189.469C156.596 185.142 156.581 180.842 156.581 178.453H154.581C154.581 180.846 154.596 185.151 154.611 189.476C154.626 193.802 154.641 198.147 154.641 200.625H156.641ZM156.581 178.453C156.581 178.451 156.581 178.448 156.581 178.446C156.581 178.443 156.581 178.441 156.581 178.439C156.581 178.436 156.581 178.434 156.581 178.431C156.581 178.429 156.581 178.426 156.581 178.424C156.581 178.421 156.581 178.419 156.581 178.416C156.581 178.413 156.581 178.411 156.581 178.408C156.581 178.406 156.581 178.403 156.581 178.401C156.581 178.398 156.581 178.396 156.581 178.393C156.581 178.391 156.581 178.388 156.581 178.385C156.581 178.383 156.581 178.38 156.581 178.378C156.581 178.375 156.581 178.372 156.581 178.37C156.581 178.367 156.581 178.365 156.581 178.362C156.581 178.359 156.581 178.357 156.581 178.354C156.581 178.352 156.581 178.349 156.581 178.346C156.581 178.344 156.581 178.341 156.581 178.338C156.581 178.336 156.581 178.333 156.581 178.33C156.581 178.328 156.581 178.325 156.581 178.322C156.581 178.32 156.581 178.317 156.581 178.314C156.581 178.312 156.581 178.309 156.581 178.306C156.581 178.303 156.581 178.301 156.581 178.298C156.581 178.295 156.581 178.293 156.581 178.29C156.581 178.287 156.581 178.284 156.581 178.282C156.581 178.279 156.581 178.276 156.581 178.273C156.581 178.271 156.581 178.268 156.581 178.265C156.581 178.262 156.581 178.259 156.581 178.257C156.581 178.254 156.581 178.251 156.581 178.248C156.581 178.245 156.581 178.243 156.581 178.24C156.581 178.237 156.581 178.234 156.581 178.231C156.581 178.229 156.581 178.226 156.581 178.223C156.581 178.22 156.581 178.217 156.581 178.214C156.581 178.212 156.581 178.209 156.581 178.206C156.581 178.203 156.581 178.2 156.581 178.197C156.581 178.194 156.581 178.191 156.581 178.189C156.581 178.186 156.581 178.183 156.581 178.18C156.581 178.177 156.581 178.174 156.581 178.171C156.581 178.168 156.581 178.165 156.581 178.162C156.581 178.159 156.581 178.157 156.581 178.154C156.581 178.151 156.581 178.148 156.581 178.145C156.581 178.142 156.581 178.139 156.581 178.136C156.581 178.133 156.581 178.13 156.581 178.127C156.581 178.124 156.581 178.121 156.581 178.118C156.581 178.115 156.581 178.112 156.581 178.109C156.581 178.106 156.581 178.103 156.581 178.1C156.581 178.097 156.581 178.094 156.581 178.091C156.581 178.088 156.581 178.085 156.581 178.082C156.581 178.079 156.581 178.076 156.581 178.073C156.581 178.07 156.581 178.067 156.581 178.064C156.581 178.061 156.581 178.058 156.581 178.055C156.581 178.052 156.581 178.048 156.581 178.045C156.581 178.042 156.581 178.039 156.581 178.036C156.581 178.033 156.581 178.03 156.581 178.027C156.581 178.024 156.581 178.021 156.581 178.018C156.581 178.014 156.581 178.011 156.581 178.008C156.581 178.005 156.581 178.002 156.581 177.999C156.581 177.996 156.581 177.993 156.581 177.989C156.581 177.986 156.581 177.983 156.581 177.98C156.581 177.977 156.581 177.974 156.581 177.97C156.581 177.967 156.581 177.964 156.581 177.961C156.581 177.958 156.581 177.955 156.581 177.951C156.581 177.948 156.581 177.945 156.581 177.942C156.581 177.939 156.581 177.935 156.581 177.932C156.581 177.929 156.581 177.926 156.581 177.923C156.581 177.919 156.581 177.916 156.581 177.913C156.581 177.91 156.581 177.906 156.581 177.903C156.581 177.9 156.581 177.897 156.581 177.893C156.581 177.89 156.581 177.887 156.581 177.884C156.581 177.88 156.581 177.877 156.581 177.874C156.581 177.871 156.581 177.867 156.581 177.864C156.581 177.861 156.581 177.857 156.581 177.854C156.581 177.851 156.581 177.848 156.581 177.844C156.581 177.841 156.581 177.838 156.581 177.834C156.581 177.831 156.581 177.828 156.581 177.824C156.581 177.821 156.581 177.818 156.581 177.814C156.581 177.811 156.581 177.808 156.581 177.804C156.581 177.801 156.581 177.798 156.581 177.794C156.581 177.791 156.581 177.788 156.581 177.784C156.581 177.781 156.581 177.778 156.581 177.774C156.581 177.771 156.581 177.767 156.581 177.764C156.581 177.761 156.581 177.757 156.581 177.754C156.581 177.75 156.581 177.747 156.581 177.744C156.581 177.74 156.581 177.737 156.581 177.733C156.581 177.73 156.581 177.727 156.581 177.723C156.581 177.72 156.581 177.716 156.581 177.713C156.581 177.709 156.581 177.706 156.581 177.703C156.581 177.699 156.581 177.696 156.581 177.692C156.581 177.689 156.581 177.685 156.581 177.682C156.581 177.678 156.581 177.675 156.581 177.672C156.581 177.668 156.581 177.665 156.581 177.661C156.581 177.658 156.581 177.654 156.581 177.651C156.581 177.647 156.581 177.644 156.581 177.64C156.581 177.637 156.581 177.633 156.581 177.63C156.581 177.626 156.581 177.623 156.581 177.619C156.581 177.616 156.581 177.612 156.581 177.609C156.581 177.605 156.581 177.602 156.581 177.598C156.581 177.594 156.581 177.591 156.581 177.587C156.581 177.584 156.581 177.58 156.581 177.577C156.581 177.573 156.581 177.57 156.581 177.566C156.581 177.563 156.581 177.559 156.581 177.555C156.581 177.552 156.581 177.548 156.581 177.545C156.581 177.541 156.581 177.538 156.581 177.534C156.581 177.53 156.581 177.527 156.581 177.523C156.581 177.52 156.581 177.516 156.581 177.512C156.581 177.509 156.581 177.505 156.581 177.502C156.581 177.498 156.581 177.494 156.581 177.491C156.581 177.487 156.581 177.484 156.581 177.48C156.581 177.476 156.581 177.473 156.581 177.469C156.581 177.465 156.581 177.462 156.581 177.458C156.581 177.454 156.581 177.451 156.581 177.447C156.581 177.443 156.581 177.44 156.581 177.436C156.581 177.433 156.581 177.429 156.581 177.425C156.581 177.422 156.581 177.418 156.581 177.414C156.581 177.411 156.581 177.407 156.581 177.403C156.581 177.399 156.581 177.396 156.581 177.392C156.581 177.388 156.581 177.385 156.581 177.381C156.581 177.377 156.581 177.374 156.581 177.37C156.581 177.366 156.581 177.362 156.581 177.359C156.581 177.355 156.581 177.351 156.581 177.348C156.581 177.344 156.581 177.34 156.581 177.336C156.581 177.333 156.581 177.329 156.581 177.325C156.581 177.322 156.581 177.318 156.581 177.314C156.581 177.31 156.581 177.307 156.581 177.303C156.581 177.299 156.581 177.295 156.581 177.292C156.581 177.288 156.581 177.284 156.581 177.28C156.581 177.276 156.581 177.273 156.581 177.269C156.581 177.265 156.581 177.261 156.581 177.258C156.581 177.254 156.581 177.25 156.581 177.246C156.581 177.242 156.581 177.239 156.581 177.235C156.581 177.231 156.581 177.227 156.581 177.223C156.581 177.22 156.581 177.216 156.581 177.212C156.581 177.208 156.581 177.204 156.581 177.201C156.581 177.197 156.581 177.193 156.581 177.189C156.581 177.185 156.581 177.182 156.581 177.178C156.581 177.174 156.581 177.17 156.581 177.166C156.581 177.162 156.581 177.159 156.581 177.155C156.581 177.151 156.581 177.147 156.581 177.143C156.581 177.139 156.581 177.135 156.581 177.132C156.581 177.128 156.581 177.124 156.581 177.12C156.581 177.116 156.581 177.112 156.581 177.108C156.581 177.105 156.581 177.101 156.581 177.097C156.581 177.093 156.581 177.089 156.581 177.085C156.581 177.081 156.581 177.077 156.581 177.074C156.581 177.07 156.581 177.066 156.581 177.062C156.581 177.058 156.581 177.054 156.581 177.05C156.581 177.046 156.581 177.042 156.581 177.038C156.581 177.035 156.581 177.031 156.581 177.027C156.581 177.023 156.581 177.019 156.581 177.015C156.581 177.011 156.581 177.007 156.581 177.003C156.581 176.999 156.581 176.995 156.581 176.991C156.581 176.988 156.581 176.984 156.581 176.98C156.581 176.976 156.581 176.972 156.581 176.968C156.581 176.964 156.581 176.96 156.581 176.956C156.581 176.952 156.581 176.948 156.581 176.944C156.581 176.94 156.581 176.936 156.581 176.932C156.581 176.928 156.581 176.924 156.581 176.92C156.581 176.917 156.581 176.913 156.581 176.909C156.581 176.905 156.581 176.901 156.581 176.897C156.581 176.893 156.581 176.889 156.581 176.885C156.581 176.881 156.581 176.877 156.581 176.873C156.581 176.869 156.581 176.865 156.581 176.861C156.581 176.857 156.581 176.853 156.581 176.849C156.581 176.845 156.581 176.841 156.581 176.837C156.581 176.833 156.581 176.829 156.581 176.825C156.581 176.821 156.581 176.817 156.581 176.813C156.581 176.809 156.581 176.805 156.581 176.801C156.581 176.797 156.581 176.793 156.581 176.789C156.581 176.785 156.581 176.781 156.581 176.777C156.581 176.773 156.581 176.769 156.581 176.765C156.581 176.761 156.581 176.757 156.581 176.752C156.581 176.748 156.581 176.744 156.581 176.74C156.581 176.736 156.581 176.732 156.581 176.728C156.581 176.724 156.581 176.72 156.581 176.716C156.581 176.712 156.581 176.708 156.581 176.704C156.581 176.7 156.581 176.696 156.581 176.692C156.581 176.688 156.581 176.684 156.581 176.68C156.581 176.676 156.581 176.672 156.581 176.667C156.581 176.663 156.581 176.659 156.581 176.655C156.581 176.651 156.581 176.647 156.581 176.643C156.581 176.639 156.581 176.635 156.581 176.631C156.581 176.627 156.581 176.623 156.581 176.619C156.581 176.614 156.581 176.61 156.581 176.606C156.581 176.602 156.581 176.598 156.581 176.594C156.581 176.59 156.581 176.586 156.581 176.582C156.581 176.578 156.581 176.574 156.581 176.569C156.581 176.565 156.581 176.561 156.581 176.557C156.581 176.553 156.581 176.549 156.581 176.545C156.581 176.541 156.581 176.537 156.581 176.533C156.581 176.528 156.581 176.524 156.581 176.52C156.581 176.516 156.581 176.512 156.581 176.508C156.581 176.504 156.581 176.5 156.581 176.495C156.581 176.491 156.581 176.487 156.581 176.483C156.581 176.479 156.581 176.475 156.581 176.471C156.581 176.467 156.581 176.462 156.581 176.458C156.581 176.454 156.581 176.45 156.581 176.446C156.581 176.442 156.581 176.438 156.581 176.434C156.581 176.429 156.581 176.425 156.581 176.421C156.581 176.417 156.581 176.413 156.581 176.409C156.581 176.405 156.581 176.4 156.581 176.396C156.581 176.392 156.581 176.388 156.581 176.384C156.581 176.38 156.581 176.376 156.581 176.371C156.581 176.367 156.581 176.363 156.581 176.359C156.581 176.355 156.581 176.351 156.581 176.346C156.581 176.342 156.581 176.338 156.581 176.334C156.581 176.33 156.581 176.326 156.581 176.321C156.581 176.317 156.581 176.313 156.581 176.309C156.581 176.305 156.581 176.301 156.581 176.296C156.581 176.292 156.581 176.288 156.581 176.284C156.581 176.28 156.581 176.276 156.581 176.271C156.581 176.267 156.581 176.263 156.581 176.259C156.581 176.255 156.581 176.251 156.581 176.246C156.581 176.242 156.581 176.238 156.581 176.234C156.581 176.23 156.581 176.225 156.581 176.221C156.581 176.217 156.581 176.213 156.581 176.209C156.581 176.205 156.581 176.2 156.581 176.196C156.581 176.192 156.581 176.188 156.581 176.184C156.581 176.179 156.581 176.175 156.581 176.171C156.581 176.167 156.581 176.163 156.581 176.158C156.581 176.154 156.581 176.15 156.581 176.146C156.581 176.142 156.581 176.137 156.581 176.133C156.581 176.129 156.581 176.125 156.581 176.121C156.581 176.116 156.581 176.112 156.581 176.108C156.581 176.104 156.581 176.1 156.581 176.095C156.581 176.091 156.581 176.087 156.581 176.083C156.581 176.079 156.581 176.074 156.581 176.07C156.581 176.066 156.581 176.062 156.581 176.058C156.581 176.053 156.581 176.049 156.581 176.045C156.581 176.041 156.581 176.036 156.581 176.032C156.581 176.028 156.581 176.024 156.581 176.02C156.581 176.015 156.581 176.011 156.581 176.007C156.581 176.003 156.581 175.999 156.581 175.994C156.581 175.99 156.581 175.986 156.581 175.982C156.581 175.977 156.581 175.973 156.581 175.969C156.581 175.965 156.581 175.961 156.581 175.956C156.581 175.952 156.581 175.948 156.581 175.944C156.581 175.939 156.581 175.935 156.581 175.931C156.581 175.927 156.581 175.923 156.581 175.918C156.581 175.914 156.581 175.91 156.581 175.906C156.581 175.901 156.581 175.897 156.581 175.893C156.581 175.889 156.581 175.885 156.581 175.88C156.581 175.876 156.581 175.872 156.581 175.868C156.581 175.863 156.581 175.859 156.581 175.855C156.581 175.851 156.581 175.847 156.581 175.842C156.581 175.838 156.581 175.834 156.581 175.83C156.581 175.825 156.581 175.821 156.581 175.817C156.581 175.813 156.581 175.808 156.581 175.804C156.581 175.8 156.581 175.796 156.581 175.792C156.581 175.787 156.581 175.783 156.581 175.779C156.581 175.775 156.581 175.77 156.581 175.766C156.581 175.762 156.581 175.758 156.581 175.753C156.581 175.749 156.581 175.745 156.581 175.741C156.581 175.737 156.581 175.732 156.581 175.728C156.581 175.724 156.581 175.72 156.581 175.715C156.581 175.711 156.581 175.707 156.581 175.703C156.581 175.698 156.581 175.694 156.581 175.69C156.581 175.686 156.581 175.682 156.581 175.677C156.581 175.673 156.581 175.669 156.581 175.665C156.581 175.66 156.581 175.656 156.581 175.652C156.581 175.648 156.581 175.643 156.581 175.639C156.581 175.635 156.581 175.631 156.581 175.627C156.581 175.622 156.581 175.618 156.581 175.614C156.581 175.61 156.581 175.605 156.581 175.601C156.581 175.597 156.581 175.593 156.581 175.588C156.581 175.584 156.581 175.58 156.581 175.576C156.581 175.572 156.581 175.567 156.581 175.563C156.581 175.559 156.581 175.555 156.581 175.55C156.581 175.546 156.581 175.542 156.581 175.538C156.581 175.533 156.581 175.529 156.581 175.525C156.581 175.521 156.581 175.517 156.581 175.512C156.581 175.508 156.581 175.504 156.581 175.5C156.581 175.495 156.581 175.491 156.581 175.487C156.581 175.483 156.581 175.479 156.581 175.474C156.581 175.47 156.581 175.466 156.581 175.462C156.581 175.457 156.581 175.453 156.581 175.449C156.581 175.445 156.581 175.441 156.581 175.436C156.581 175.432 156.581 175.428 156.581 175.424C156.581 175.419 156.581 175.415 156.581 175.411C156.581 175.407 156.581 175.403 156.581 175.398C156.581 175.394 156.581 175.39 156.581 175.386C156.581 175.382 156.581 175.377 156.581 175.373C156.581 175.369 156.581 175.365 156.581 175.36C156.581 175.356 156.581 175.352 156.581 175.348C156.581 175.344 156.581 175.339 156.581 175.335C156.581 175.331 156.581 175.327 156.581 175.323C156.581 175.318 156.581 175.314 156.581 175.31C156.581 175.306 156.581 175.302 156.581 175.297C156.581 175.293 156.581 175.289 156.581 175.285C156.581 175.281 156.581 175.276 156.581 175.272C156.581 175.268 156.581 175.264 156.581 175.26C156.581 175.255 156.581 175.251 156.581 175.247C156.581 175.243 156.581 175.239 156.581 175.234C156.581 175.23 156.581 175.226 156.581 175.222C156.581 175.218 156.581 175.213 156.581 175.209C156.581 175.205 156.581 175.201 156.581 175.197C156.581 175.192 156.581 175.188 156.581 175.184C156.581 175.18 156.581 175.176 156.581 175.172C156.581 175.167 156.581 175.163 156.581 175.159C156.581 175.155 156.581 175.151 156.581 175.146C156.581 175.142 156.581 175.138 156.581 175.134C156.581 175.13 156.581 175.126 156.581 175.121C156.581 175.117 156.581 175.113 156.581 175.109C156.581 175.105 156.581 175.101 156.581 175.096C156.581 175.092 156.581 175.088 156.581 175.084C156.581 175.08 156.581 175.076 156.581 175.071C156.581 175.067 156.581 175.063 156.581 175.059C156.581 175.055 156.581 175.051 156.581 175.046C156.581 175.042 156.581 175.038 156.581 175.034C156.581 175.03 156.581 175.026 156.581 175.022C156.581 175.017 156.581 175.013 156.581 175.009C156.581 175.005 156.581 175.001 156.581 174.997C156.581 174.993 156.581 174.988 156.581 174.984C156.581 174.98 156.581 174.976 156.581 174.972C156.581 174.968 156.581 174.964 156.581 174.959C156.581 174.955 156.581 174.951 156.581 174.947C156.581 174.943 156.581 174.939 156.581 174.935C156.581 174.931 156.581 174.926 156.581 174.922C156.581 174.918 156.581 174.914 156.581 174.91C156.581 174.906 156.581 174.902 156.581 174.898C156.581 174.893 156.581 174.889 156.581 174.885C156.581 174.881 156.581 174.877 156.581 174.873C156.581 174.869 156.581 174.865 156.581 174.861C156.581 174.856 156.581 174.852 156.581 174.848C156.581 174.844 156.581 174.84 156.581 174.836C156.581 174.832 156.581 174.828 156.581 174.824C156.581 174.82 156.581 174.815 156.581 174.811C156.581 174.807 156.581 174.803 156.581 174.799C156.581 174.795 156.581 174.791 156.581 174.787C156.581 174.783 156.581 174.779 156.581 174.775C156.581 174.771 156.581 174.766 156.581 174.762C156.581 174.758 156.581 174.754 156.581 174.75C156.581 174.746 156.581 174.742 156.581 174.738C156.581 174.734 156.581 174.73 156.581 174.726C156.581 174.722 156.581 174.718 156.581 174.714C156.581 174.71 156.581 174.705 156.581 174.701C156.581 174.697 156.581 174.693 156.581 174.689C156.581 174.685 156.581 174.681 156.581 174.677C156.581 174.673 156.581 174.669 156.581 174.665C156.581 174.661 156.581 174.657 156.581 174.653C156.581 174.649 156.581 174.645 156.581 174.641C156.581 174.637 156.581 174.633 156.581 174.629C156.581 174.625 156.581 174.621 156.581 174.617C156.581 174.613 156.581 174.609 156.581 174.605C156.581 174.601 156.581 174.597 156.581 174.593C156.581 174.589 156.581 174.585 156.581 174.581C156.581 174.577 156.581 174.573 156.581 174.569C156.581 174.565 156.581 174.561 156.581 174.557C156.581 174.553 156.581 174.549 156.581 174.545C156.581 174.541 156.581 174.537 156.581 174.533C156.581 174.529 156.581 174.525 156.581 174.521C156.581 174.517 156.581 174.513 156.581 174.509C156.581 174.505 156.581 174.501 156.581 174.497C156.581 174.493 156.581 174.489 156.581 174.485C156.581 174.481 156.581 174.477 156.581 174.473C156.581 174.469 156.581 174.465 156.581 174.461C156.581 174.457 156.581 174.453 156.581 174.449C156.581 174.445 156.581 174.442 156.581 174.438C156.581 174.434 156.581 174.43 156.581 174.426C156.581 174.422 156.581 174.418 156.581 174.414C156.581 174.41 156.581 174.406 156.581 174.402C156.581 174.398 156.581 174.394 156.581 174.39C156.581 174.387 156.581 174.383 156.581 174.379C156.581 174.375 156.581 174.371 156.581 174.367C156.581 174.363 156.581 174.359 156.581 174.355C156.581 174.351 156.581 174.347 156.581 174.344C156.581 174.34 156.581 174.336 156.581 174.332C156.581 174.328 156.581 174.324 156.581 174.32C156.581 174.316 156.581 174.313 156.581 174.309C156.581 174.305 156.581 174.301 156.581 174.297C156.581 174.293 156.581 174.289 156.581 174.285C156.581 174.282 156.581 174.278 156.581 174.274C156.581 174.27 156.581 174.266 156.581 174.262C156.581 174.258 156.581 174.255 156.581 174.251C156.581 174.247 156.581 174.243 156.581 174.239C156.581 174.235 156.581 174.232 156.581 174.228C156.581 174.224 156.581 174.22 156.581 174.216C156.581 174.212 156.581 174.209 156.581 174.205C156.581 174.201 156.581 174.197 156.581 174.193C156.581 174.19 156.581 174.186 156.581 174.182C156.581 174.178 156.581 174.174 156.581 174.171C156.581 174.167 156.581 174.163 156.581 174.159C156.581 174.155 156.581 174.152 156.581 174.148C156.581 174.144 156.581 174.14 156.581 174.137C156.581 174.133 156.581 174.129 156.581 174.125C156.581 174.122 156.581 174.118 156.581 174.114C156.581 174.11 156.581 174.106 156.581 174.103C156.581 174.099 156.581 174.095 156.581 174.092C156.581 174.088 156.581 174.084 156.581 174.08C156.581 174.077 156.581 174.073 156.581 174.069C156.581 174.065 156.581 174.062 156.581 174.058C156.581 174.054 156.581 174.05 156.581 174.047C156.581 174.043 156.581 174.039 156.581 174.036C156.581 174.032 156.581 174.028 156.581 174.025C156.581 174.021 156.581 174.017 156.581 174.013C156.581 174.01 156.581 174.006 156.581 174.002C156.581 173.999 156.581 173.995 156.581 173.991C156.581 173.988 156.581 173.984 156.581 173.98C156.581 173.977 156.581 173.973 156.581 173.969C156.581 173.966 156.581 173.962 156.581 173.958C156.581 173.955 156.581 173.951 156.581 173.947C156.581 173.944 156.581 173.94 156.581 173.937C156.581 173.933 156.581 173.929 156.581 173.926C156.581 173.922 156.581 173.918 156.581 173.915C156.581 173.911 156.581 173.908 156.581 173.904C156.581 173.9 156.581 173.897 156.581 173.893C156.581 173.89 156.581 173.886 156.581 173.882C156.581 173.879 156.581 173.875 156.581 173.872C156.581 173.868 156.581 173.864 156.581 173.861C156.581 173.857 156.581 173.854 156.581 173.85C156.581 173.847 156.581 173.843 156.581 173.839C156.581 173.836 156.581 173.832 156.581 173.829C156.581 173.825 156.581 173.822 156.581 173.818C156.581 173.815 156.581 173.811 156.581 173.808C156.581 173.804 156.581 173.801 156.581 173.797C156.581 173.793 156.581 173.79 156.581 173.786C156.581 173.783 156.581 173.779 156.581 173.776C156.581 173.772 156.581 173.769 156.581 173.765C156.581 173.762 156.581 173.758 156.581 173.755C156.581 173.751 156.581 173.748 156.581 173.745C156.581 173.741 156.581 173.738 156.581 173.734C156.581 173.731 156.581 173.727 156.581 173.724C156.581 173.72 156.581 173.717 156.581 173.713C156.581 173.71 156.581 173.706 156.581 173.703C156.581 173.7 156.581 173.696 156.581 173.693C156.581 173.689 156.581 173.686 156.581 173.682C156.581 173.679 156.581 173.676 156.581 173.672C156.581 173.669 156.581 173.665 156.581 173.662C156.581 173.659 156.581 173.655 156.581 173.652C156.581 173.648 156.581 173.645 156.581 173.642C156.581 173.638 156.581 173.635 156.581 173.632C156.581 173.628 156.581 173.625 156.581 173.621C156.581 173.618 156.581 173.615 156.581 173.611C156.581 173.608 156.581 173.605 156.581 173.601C156.581 173.598 156.581 173.595 156.581 173.591C156.581 173.588 156.581 173.585 156.581 173.581C156.581 173.578 156.581 173.575 156.581 173.571C156.581 173.568 156.581 173.565 156.581 173.561C156.581 173.558 156.581 173.555 156.581 173.552C156.581 173.548 156.581 173.545 156.581 173.542C156.581 173.538 156.581 173.535 156.581 173.532C156.581 173.529 156.581 173.525 156.581 173.522C156.581 173.519 156.581 173.516 156.581 173.512C156.581 173.509 156.581 173.506 156.581 173.503C156.581 173.499 156.581 173.496 156.581 173.493C156.581 173.49 156.581 173.486 156.581 173.483C156.581 173.48 156.581 173.477 156.581 173.474C156.581 173.47 156.581 173.467 156.581 173.464C156.581 173.461 156.581 173.458 156.581 173.454C156.581 173.451 156.581 173.448 156.581 173.445C156.581 173.442 156.581 173.438 156.581 173.435C156.581 173.432 156.581 173.429 156.581 173.426C156.581 173.423 156.581 173.42 156.581 173.416C156.581 173.413 156.581 173.41 156.581 173.407C156.581 173.404 156.581 173.401 156.581 173.398C156.581 173.394 156.581 173.391 156.581 173.388C156.581 173.385 156.581 173.382 156.581 173.379C156.581 173.376 156.581 173.373 156.581 173.37C156.581 173.367 156.581 173.363 156.581 173.36C156.581 173.357 156.581 173.354 156.581 173.351C156.581 173.348 156.581 173.345 156.581 173.342C156.581 173.339 156.581 173.336 156.581 173.333C156.581 173.33 156.581 173.327 156.581 173.324C156.581 173.321 156.581 173.318 156.581 173.315C156.581 173.312 156.581 173.309 156.581 173.306C156.581 173.303 156.581 173.3 156.581 173.297C156.581 173.294 156.581 173.291 156.581 173.288C156.581 173.285 156.581 173.282 156.581 173.279C156.581 173.276 156.581 173.273 156.581 173.27C156.581 173.267 156.581 173.264 156.581 173.261C156.581 173.258 156.581 173.255 156.581 173.252C156.581 173.249 156.581 173.246 156.581 173.243C156.581 173.241 156.581 173.238 156.581 173.235C156.581 173.232 156.581 173.229 156.581 173.226C156.581 173.223 156.581 173.22 156.581 173.217C156.581 173.214 156.581 173.212 156.581 173.209C156.581 173.206 156.581 173.203 156.581 173.2C156.581 173.197 156.581 173.194 156.581 173.192C156.581 173.189 156.581 173.186 156.581 173.183C156.581 173.18 156.581 173.177 156.581 173.174C156.581 173.172 156.581 173.169 156.581 173.166C156.581 173.163 156.581 173.16 156.581 173.158C156.581 173.155 156.581 173.152 156.581 173.149C156.581 173.146 156.581 173.144 156.581 173.141C156.581 173.138 156.581 173.135 156.581 173.133C156.581 173.13 156.581 173.127 156.581 173.124C156.581 173.122 156.581 173.119 156.581 173.116C156.581 173.113 156.581 173.111 156.581 173.108C156.581 173.105 156.581 173.103 156.581 173.1C156.581 173.097 156.581 173.094 156.581 173.092C156.581 173.089 156.581 173.086 156.581 173.084C156.581 173.081 156.581 173.078 156.581 173.076C156.581 173.073 156.581 173.07 156.581 173.068C156.581 173.065 156.581 173.062 156.581 173.06C156.581 173.057 156.581 173.054 156.581 173.052C156.581 173.049 156.581 173.047 156.581 173.044C156.581 173.041 156.581 173.039 156.581 173.036C156.581 173.033 156.581 173.031 156.581 173.028C156.581 173.026 156.581 173.023 156.581 173.021C156.581 173.018 156.581 173.015 156.581 173.013C156.581 173.01 156.581 173.008 156.581 173.005C156.581 173.003 156.581 173 156.581 172.998C156.581 172.995 156.581 172.993 156.581 172.99C156.581 172.987 156.581 172.985 156.581 172.982C156.581 172.98 156.581 172.977 156.581 172.975C156.581 172.972 156.581 172.97 156.581 172.968C156.581 172.965 156.581 172.963 156.581 172.96C156.581 172.958 156.581 172.955 156.581 172.953C156.581 172.95 156.581 172.948 156.581 172.945C156.581 172.943 156.581 172.941 156.581 172.938C156.581 172.936 156.581 172.933 156.581 172.931C156.581 172.928 156.581 172.926 156.581 172.924C156.581 172.921 156.581 172.919 156.581 172.917C156.581 172.914 156.581 172.912 156.581 172.909C156.581 172.907 156.581 172.905 156.581 172.902C156.581 172.9 156.581 172.898 156.581 172.895H154.581C154.581 172.898 154.581 172.9 154.581 172.902C154.581 172.905 154.581 172.907 154.581 172.909C154.581 172.912 154.581 172.914 154.581 172.917C154.581 172.919 154.581 172.921 154.581 172.924C154.581 172.926 154.581 172.928 154.581 172.931C154.581 172.933 154.581 172.936 154.581 172.938C154.581 172.941 154.581 172.943 154.581 172.945C154.581 172.948 154.581 172.95 154.581 172.953C154.581 172.955 154.581 172.958 154.581 172.96C154.581 172.963 154.581 172.965 154.581 172.968C154.581 172.97 154.581 172.972 154.581 172.975C154.581 172.977 154.581 172.98 154.581 172.982C154.581 172.985 154.581 172.987 154.581 172.99C154.581 172.993 154.581 172.995 154.581 172.998C154.581 173 154.581 173.003 154.581 173.005C154.581 173.008 154.581 173.01 154.581 173.013C154.581 173.015 154.581 173.018 154.581 173.021C154.581 173.023 154.581 173.026 154.581 173.028C154.581 173.031 154.581 173.033 154.581 173.036C154.581 173.039 154.581 173.041 154.581 173.044C154.581 173.047 154.581 173.049 154.581 173.052C154.581 173.054 154.581 173.057 154.581 173.06C154.581 173.062 154.581 173.065 154.581 173.068C154.581 173.07 154.581 173.073 154.581 173.076C154.581 173.078 154.581 173.081 154.581 173.084C154.581 173.086 154.581 173.089 154.581 173.092C154.581 173.094 154.581 173.097 154.581 173.1C154.581 173.103 154.581 173.105 154.581 173.108C154.581 173.111 154.581 173.113 154.581 173.116C154.581 173.119 154.581 173.122 154.581 173.124C154.581 173.127 154.581 173.13 154.581 173.133C154.581 173.135 154.581 173.138 154.581 173.141C154.581 173.144 154.581 173.146 154.581 173.149C154.581 173.152 154.581 173.155 154.581 173.158C154.581 173.16 154.581 173.163 154.581 173.166C154.581 173.169 154.581 173.172 154.581 173.174C154.581 173.177 154.581 173.18 154.581 173.183C154.581 173.186 154.581 173.189 154.581 173.192C154.581 173.194 154.581 173.197 154.581 173.2C154.581 173.203 154.581 173.206 154.581 173.209C154.581 173.212 154.581 173.214 154.581 173.217C154.581 173.22 154.581 173.223 154.581 173.226C154.581 173.229 154.581 173.232 154.581 173.235C154.581 173.238 154.581 173.241 154.581 173.243C154.581 173.246 154.581 173.249 154.581 173.252C154.581 173.255 154.581 173.258 154.581 173.261C154.581 173.264 154.581 173.267 154.581 173.27C154.581 173.273 154.581 173.276 154.581 173.279C154.581 173.282 154.581 173.285 154.581 173.288C154.581 173.291 154.581 173.294 154.581 173.297C154.581 173.3 154.581 173.303 154.581 173.306C154.581 173.309 154.581 173.312 154.581 173.315C154.581 173.318 154.581 173.321 154.581 173.324C154.581 173.327 154.581 173.33 154.581 173.333C154.581 173.336 154.581 173.339 154.581 173.342C154.581 173.345 154.581 173.348 154.581 173.351C154.581 173.354 154.581 173.357 154.581 173.36C154.581 173.363 154.581 173.367 154.581 173.37C154.581 173.373 154.581 173.376 154.581 173.379C154.581 173.382 154.581 173.385 154.581 173.388C154.581 173.391 154.581 173.394 154.581 173.398C154.581 173.401 154.581 173.404 154.581 173.407C154.581 173.41 154.581 173.413 154.581 173.416C154.581 173.42 154.581 173.423 154.581 173.426C154.581 173.429 154.581 173.432 154.581 173.435C154.581 173.438 154.581 173.442 154.581 173.445C154.581 173.448 154.581 173.451 154.581 173.454C154.581 173.458 154.581 173.461 154.581 173.464C154.581 173.467 154.581 173.47 154.581 173.474C154.581 173.477 154.581 173.48 154.581 173.483C154.581 173.486 154.581 173.49 154.581 173.493C154.581 173.496 154.581 173.499 154.581 173.503C154.581 173.506 154.581 173.509 154.581 173.512C154.581 173.516 154.581 173.519 154.581 173.522C154.581 173.525 154.581 173.529 154.581 173.532C154.581 173.535 154.581 173.538 154.581 173.542C154.581 173.545 154.581 173.548 154.581 173.552C154.581 173.555 154.581 173.558 154.581 173.561C154.581 173.565 154.581 173.568 154.581 173.571C154.581 173.575 154.581 173.578 154.581 173.581C154.581 173.585 154.581 173.588 154.581 173.591C154.581 173.595 154.581 173.598 154.581 173.601C154.581 173.605 154.581 173.608 154.581 173.611C154.581 173.615 154.581 173.618 154.581 173.621C154.581 173.625 154.581 173.628 154.581 173.632C154.581 173.635 154.581 173.638 154.581 173.642C154.581 173.645 154.581 173.648 154.581 173.652C154.581 173.655 154.581 173.659 154.581 173.662C154.581 173.665 154.581 173.669 154.581 173.672C154.581 173.676 154.581 173.679 154.581 173.682C154.581 173.686 154.581 173.689 154.581 173.693C154.581 173.696 154.581 173.7 154.581 173.703C154.581 173.706 154.581 173.71 154.581 173.713C154.581 173.717 154.581 173.72 154.581 173.724C154.581 173.727 154.581 173.731 154.581 173.734C154.581 173.738 154.581 173.741 154.581 173.745C154.581 173.748 154.581 173.751 154.581 173.755C154.581 173.758 154.581 173.762 154.581 173.765C154.581 173.769 154.581 173.772 154.581 173.776C154.581 173.779 154.581 173.783 154.581 173.786C154.581 173.79 154.581 173.793 154.581 173.797C154.581 173.801 154.581 173.804 154.581 173.808C154.581 173.811 154.581 173.815 154.581 173.818C154.581 173.822 154.581 173.825 154.581 173.829C154.581 173.832 154.581 173.836 154.581 173.839C154.581 173.843 154.581 173.847 154.581 173.85C154.581 173.854 154.581 173.857 154.581 173.861C154.581 173.864 154.581 173.868 154.581 173.872C154.581 173.875 154.581 173.879 154.581 173.882C154.581 173.886 154.581 173.89 154.581 173.893C154.581 173.897 154.581 173.9 154.581 173.904C154.581 173.908 154.581 173.911 154.581 173.915C154.581 173.918 154.581 173.922 154.581 173.926C154.581 173.929 154.581 173.933 154.581 173.937C154.581 173.94 154.581 173.944 154.581 173.947C154.581 173.951 154.581 173.955 154.581 173.958C154.581 173.962 154.581 173.966 154.581 173.969C154.581 173.973 154.581 173.977 154.581 173.98C154.581 173.984 154.581 173.988 154.581 173.991C154.581 173.995 154.581 173.999 154.581 174.002C154.581 174.006 154.581 174.01 154.581 174.013C154.581 174.017 154.581 174.021 154.581 174.025C154.581 174.028 154.581 174.032 154.581 174.036C154.581 174.039 154.581 174.043 154.581 174.047C154.581 174.05 154.581 174.054 154.581 174.058C154.581 174.062 154.581 174.065 154.581 174.069C154.581 174.073 154.581 174.077 154.581 174.08C154.581 174.084 154.581 174.088 154.581 174.092C154.581 174.095 154.581 174.099 154.581 174.103C154.581 174.106 154.581 174.11 154.581 174.114C154.581 174.118 154.581 174.122 154.581 174.125C154.581 174.129 154.581 174.133 154.581 174.137C154.581 174.14 154.581 174.144 154.581 174.148C154.581 174.152 154.581 174.155 154.581 174.159C154.581 174.163 154.581 174.167 154.581 174.171C154.581 174.174 154.581 174.178 154.581 174.182C154.581 174.186 154.581 174.19 154.581 174.193C154.581 174.197 154.581 174.201 154.581 174.205C154.581 174.209 154.581 174.212 154.581 174.216C154.581 174.22 154.581 174.224 154.581 174.228C154.581 174.232 154.581 174.235 154.581 174.239C154.581 174.243 154.581 174.247 154.581 174.251C154.581 174.255 154.581 174.258 154.581 174.262C154.581 174.266 154.581 174.27 154.581 174.274C154.581 174.278 154.581 174.282 154.581 174.285C154.581 174.289 154.581 174.293 154.581 174.297C154.581 174.301 154.581 174.305 154.581 174.309C154.581 174.313 154.581 174.316 154.581 174.32C154.581 174.324 154.581 174.328 154.581 174.332C154.581 174.336 154.581 174.34 154.581 174.344C154.581 174.347 154.581 174.351 154.581 174.355C154.581 174.359 154.581 174.363 154.581 174.367C154.581 174.371 154.581 174.375 154.581 174.379C154.581 174.383 154.581 174.387 154.581 174.39C154.581 174.394 154.581 174.398 154.581 174.402C154.581 174.406 154.581 174.41 154.581 174.414C154.581 174.418 154.581 174.422 154.581 174.426C154.581 174.43 154.581 174.434 154.581 174.438C154.581 174.442 154.581 174.445 154.581 174.449C154.581 174.453 154.581 174.457 154.581 174.461C154.581 174.465 154.581 174.469 154.581 174.473C154.581 174.477 154.581 174.481 154.581 174.485C154.581 174.489 154.581 174.493 154.581 174.497C154.581 174.501 154.581 174.505 154.581 174.509C154.581 174.513 154.581 174.517 154.581 174.521C154.581 174.525 154.581 174.529 154.581 174.533C154.581 174.537 154.581 174.541 154.581 174.545C154.581 174.549 154.581 174.553 154.581 174.557C154.581 174.561 154.581 174.565 154.581 174.569C154.581 174.573 154.581 174.577 154.581 174.581C154.581 174.585 154.581 174.589 154.581 174.593C154.581 174.597 154.581 174.601 154.581 174.605C154.581 174.609 154.581 174.613 154.581 174.617C154.581 174.621 154.581 174.625 154.581 174.629C154.581 174.633 154.581 174.637 154.581 174.641C154.581 174.645 154.581 174.649 154.581 174.653C154.581 174.657 154.581 174.661 154.581 174.665C154.581 174.669 154.581 174.673 154.581 174.677C154.581 174.681 154.581 174.685 154.581 174.689C154.581 174.693 154.581 174.697 154.581 174.701C154.581 174.705 154.581 174.71 154.581 174.714C154.581 174.718 154.581 174.722 154.581 174.726C154.581 174.73 154.581 174.734 154.581 174.738C154.581 174.742 154.581 174.746 154.581 174.75C154.581 174.754 154.581 174.758 154.581 174.762C154.581 174.766 154.581 174.771 154.581 174.775C154.581 174.779 154.581 174.783 154.581 174.787C154.581 174.791 154.581 174.795 154.581 174.799C154.581 174.803 154.581 174.807 154.581 174.811C154.581 174.815 154.581 174.82 154.581 174.824C154.581 174.828 154.581 174.832 154.581 174.836C154.581 174.84 154.581 174.844 154.581 174.848C154.581 174.852 154.581 174.856 154.581 174.861C154.581 174.865 154.581 174.869 154.581 174.873C154.581 174.877 154.581 174.881 154.581 174.885C154.581 174.889 154.581 174.893 154.581 174.898C154.581 174.902 154.581 174.906 154.581 174.91C154.581 174.914 154.581 174.918 154.581 174.922C154.581 174.926 154.581 174.931 154.581 174.935C154.581 174.939 154.581 174.943 154.581 174.947C154.581 174.951 154.581 174.955 154.581 174.959C154.581 174.964 154.581 174.968 154.581 174.972C154.581 174.976 154.581 174.98 154.581 174.984C154.581 174.988 154.581 174.993 154.581 174.997C154.581 175.001 154.581 175.005 154.581 175.009C154.581 175.013 154.581 175.017 154.581 175.022C154.581 175.026 154.581 175.03 154.581 175.034C154.581 175.038 154.581 175.042 154.581 175.046C154.581 175.051 154.581 175.055 154.581 175.059C154.581 175.063 154.581 175.067 154.581 175.071C154.581 175.076 154.581 175.08 154.581 175.084C154.581 175.088 154.581 175.092 154.581 175.096C154.581 175.101 154.581 175.105 154.581 175.109C154.581 175.113 154.581 175.117 154.581 175.121C154.581 175.126 154.581 175.13 154.581 175.134C154.581 175.138 154.581 175.142 154.581 175.146C154.581 175.151 154.581 175.155 154.581 175.159C154.581 175.163 154.581 175.167 154.581 175.172C154.581 175.176 154.581 175.18 154.581 175.184C154.581 175.188 154.581 175.192 154.581 175.197C154.581 175.201 154.581 175.205 154.581 175.209C154.581 175.213 154.581 175.218 154.581 175.222C154.581 175.226 154.581 175.23 154.581 175.234C154.581 175.239 154.581 175.243 154.581 175.247C154.581 175.251 154.581 175.255 154.581 175.26C154.581 175.264 154.581 175.268 154.581 175.272C154.581 175.276 154.581 175.281 154.581 175.285C154.581 175.289 154.581 175.293 154.581 175.297C154.581 175.302 154.581 175.306 154.581 175.31C154.581 175.314 154.581 175.318 154.581 175.323C154.581 175.327 154.581 175.331 154.581 175.335C154.581 175.339 154.581 175.344 154.581 175.348C154.581 175.352 154.581 175.356 154.581 175.36C154.581 175.365 154.581 175.369 154.581 175.373C154.581 175.377 154.581 175.382 154.581 175.386C154.581 175.39 154.581 175.394 154.581 175.398C154.581 175.403 154.581 175.407 154.581 175.411C154.581 175.415 154.581 175.419 154.581 175.424C154.581 175.428 154.581 175.432 154.581 175.436C154.581 175.441 154.581 175.445 154.581 175.449C154.581 175.453 154.581 175.457 154.581 175.462C154.581 175.466 154.581 175.47 154.581 175.474C154.581 175.479 154.581 175.483 154.581 175.487C154.581 175.491 154.581 175.495 154.581 175.5C154.581 175.504 154.581 175.508 154.581 175.512C154.581 175.517 154.581 175.521 154.581 175.525C154.581 175.529 154.581 175.533 154.581 175.538C154.581 175.542 154.581 175.546 154.581 175.55C154.581 175.555 154.581 175.559 154.581 175.563C154.581 175.567 154.581 175.572 154.581 175.576C154.581 175.58 154.581 175.584 154.581 175.588C154.581 175.593 154.581 175.597 154.581 175.601C154.581 175.605 154.581 175.61 154.581 175.614C154.581 175.618 154.581 175.622 154.581 175.627C154.581 175.631 154.581 175.635 154.581 175.639C154.581 175.643 154.581 175.648 154.581 175.652C154.581 175.656 154.581 175.66 154.581 175.665C154.581 175.669 154.581 175.673 154.581 175.677C154.581 175.682 154.581 175.686 154.581 175.69C154.581 175.694 154.581 175.698 154.581 175.703C154.581 175.707 154.581 175.711 154.581 175.715C154.581 175.72 154.581 175.724 154.581 175.728C154.581 175.732 154.581 175.737 154.581 175.741C154.581 175.745 154.581 175.749 154.581 175.753C154.581 175.758 154.581 175.762 154.581 175.766C154.581 175.77 154.581 175.775 154.581 175.779C154.581 175.783 154.581 175.787 154.581 175.792C154.581 175.796 154.581 175.8 154.581 175.804C154.581 175.808 154.581 175.813 154.581 175.817C154.581 175.821 154.581 175.825 154.581 175.83C154.581 175.834 154.581 175.838 154.581 175.842C154.581 175.847 154.581 175.851 154.581 175.855C154.581 175.859 154.581 175.863 154.581 175.868C154.581 175.872 154.581 175.876 154.581 175.88C154.581 175.885 154.581 175.889 154.581 175.893C154.581 175.897 154.581 175.901 154.581 175.906C154.581 175.91 154.581 175.914 154.581 175.918C154.581 175.923 154.581 175.927 154.581 175.931C154.581 175.935 154.581 175.939 154.581 175.944C154.581 175.948 154.581 175.952 154.581 175.956C154.581 175.961 154.581 175.965 154.581 175.969C154.581 175.973 154.581 175.977 154.581 175.982C154.581 175.986 154.581 175.99 154.581 175.994C154.581 175.999 154.581 176.003 154.581 176.007C154.581 176.011 154.581 176.015 154.581 176.02C154.581 176.024 154.581 176.028 154.581 176.032C154.581 176.036 154.581 176.041 154.581 176.045C154.581 176.049 154.581 176.053 154.581 176.058C154.581 176.062 154.581 176.066 154.581 176.07C154.581 176.074 154.581 176.079 154.581 176.083C154.581 176.087 154.581 176.091 154.581 176.095C154.581 176.1 154.581 176.104 154.581 176.108C154.581 176.112 154.581 176.116 154.581 176.121C154.581 176.125 154.581 176.129 154.581 176.133C154.581 176.137 154.581 176.142 154.581 176.146C154.581 176.15 154.581 176.154 154.581 176.158C154.581 176.163 154.581 176.167 154.581 176.171C154.581 176.175 154.581 176.179 154.581 176.184C154.581 176.188 154.581 176.192 154.581 176.196C154.581 176.2 154.581 176.205 154.581 176.209C154.581 176.213 154.581 176.217 154.581 176.221C154.581 176.225 154.581 176.23 154.581 176.234C154.581 176.238 154.581 176.242 154.581 176.246C154.581 176.251 154.581 176.255 154.581 176.259C154.581 176.263 154.581 176.267 154.581 176.271C154.581 176.276 154.581 176.28 154.581 176.284C154.581 176.288 154.581 176.292 154.581 176.296C154.581 176.301 154.581 176.305 154.581 176.309C154.581 176.313 154.581 176.317 154.581 176.321C154.581 176.326 154.581 176.33 154.581 176.334C154.581 176.338 154.581 176.342 154.581 176.346C154.581 176.351 154.581 176.355 154.581 176.359C154.581 176.363 154.581 176.367 154.581 176.371C154.581 176.376 154.581 176.38 154.581 176.384C154.581 176.388 154.581 176.392 154.581 176.396C154.581 176.4 154.581 176.405 154.581 176.409C154.581 176.413 154.581 176.417 154.581 176.421C154.581 176.425 154.581 176.429 154.581 176.434C154.581 176.438 154.581 176.442 154.581 176.446C154.581 176.45 154.581 176.454 154.581 176.458C154.581 176.462 154.581 176.467 154.581 176.471C154.581 176.475 154.581 176.479 154.581 176.483C154.581 176.487 154.581 176.491 154.581 176.495C154.581 176.5 154.581 176.504 154.581 176.508C154.581 176.512 154.581 176.516 154.581 176.52C154.581 176.524 154.581 176.528 154.581 176.533C154.581 176.537 154.581 176.541 154.581 176.545C154.581 176.549 154.581 176.553 154.581 176.557C154.581 176.561 154.581 176.565 154.581 176.569C154.581 176.574 154.581 176.578 154.581 176.582C154.581 176.586 154.581 176.59 154.581 176.594C154.581 176.598 154.581 176.602 154.581 176.606C154.581 176.61 154.581 176.614 154.581 176.619C154.581 176.623 154.581 176.627 154.581 176.631C154.581 176.635 154.581 176.639 154.581 176.643C154.581 176.647 154.581 176.651 154.581 176.655C154.581 176.659 154.581 176.663 154.581 176.667C154.581 176.672 154.581 176.676 154.581 176.68C154.581 176.684 154.581 176.688 154.581 176.692C154.581 176.696 154.581 176.7 154.581 176.704C154.581 176.708 154.581 176.712 154.581 176.716C154.581 176.72 154.581 176.724 154.581 176.728C154.581 176.732 154.581 176.736 154.581 176.74C154.581 176.744 154.581 176.748 154.581 176.752C154.581 176.757 154.581 176.761 154.581 176.765C154.581 176.769 154.581 176.773 154.581 176.777C154.581 176.781 154.581 176.785 154.581 176.789C154.581 176.793 154.581 176.797 154.581 176.801C154.581 176.805 154.581 176.809 154.581 176.813C154.581 176.817 154.581 176.821 154.581 176.825C154.581 176.829 154.581 176.833 154.581 176.837C154.581 176.841 154.581 176.845 154.581 176.849C154.581 176.853 154.581 176.857 154.581 176.861C154.581 176.865 154.581 176.869 154.581 176.873C154.581 176.877 154.581 176.881 154.581 176.885C154.581 176.889 154.581 176.893 154.581 176.897C154.581 176.901 154.581 176.905 154.581 176.909C154.581 176.913 154.581 176.917 154.581 176.92C154.581 176.924 154.581 176.928 154.581 176.932C154.581 176.936 154.581 176.94 154.581 176.944C154.581 176.948 154.581 176.952 154.581 176.956C154.581 176.96 154.581 176.964 154.581 176.968C154.581 176.972 154.581 176.976 154.581 176.98C154.581 176.984 154.581 176.988 154.581 176.991C154.581 176.995 154.581 176.999 154.581 177.003C154.581 177.007 154.581 177.011 154.581 177.015C154.581 177.019 154.581 177.023 154.581 177.027C154.581 177.031 154.581 177.035 154.581 177.038C154.581 177.042 154.581 177.046 154.581 177.05C154.581 177.054 154.581 177.058 154.581 177.062C154.581 177.066 154.581 177.07 154.581 177.074C154.581 177.077 154.581 177.081 154.581 177.085C154.581 177.089 154.581 177.093 154.581 177.097C154.581 177.101 154.581 177.105 154.581 177.108C154.581 177.112 154.581 177.116 154.581 177.12C154.581 177.124 154.581 177.128 154.581 177.132C154.581 177.135 154.581 177.139 154.581 177.143C154.581 177.147 154.581 177.151 154.581 177.155C154.581 177.159 154.581 177.162 154.581 177.166C154.581 177.17 154.581 177.174 154.581 177.178C154.581 177.182 154.581 177.185 154.581 177.189C154.581 177.193 154.581 177.197 154.581 177.201C154.581 177.204 154.581 177.208 154.581 177.212C154.581 177.216 154.581 177.22 154.581 177.223C154.581 177.227 154.581 177.231 154.581 177.235C154.581 177.239 154.581 177.242 154.581 177.246C154.581 177.25 154.581 177.254 154.581 177.258C154.581 177.261 154.581 177.265 154.581 177.269C154.581 177.273 154.581 177.276 154.581 177.28C154.581 177.284 154.581 177.288 154.581 177.292C154.581 177.295 154.581 177.299 154.581 177.303C154.581 177.307 154.581 177.31 154.581 177.314C154.581 177.318 154.581 177.322 154.581 177.325C154.581 177.329 154.581 177.333 154.581 177.336C154.581 177.34 154.581 177.344 154.581 177.348C154.581 177.351 154.581 177.355 154.581 177.359C154.581 177.362 154.581 177.366 154.581 177.37C154.581 177.374 154.581 177.377 154.581 177.381C154.581 177.385 154.581 177.388 154.581 177.392C154.581 177.396 154.581 177.399 154.581 177.403C154.581 177.407 154.581 177.411 154.581 177.414C154.581 177.418 154.581 177.422 154.581 177.425C154.581 177.429 154.581 177.433 154.581 177.436C154.581 177.44 154.581 177.443 154.581 177.447C154.581 177.451 154.581 177.454 154.581 177.458C154.581 177.462 154.581 177.465 154.581 177.469C154.581 177.473 154.581 177.476 154.581 177.48C154.581 177.484 154.581 177.487 154.581 177.491C154.581 177.494 154.581 177.498 154.581 177.502C154.581 177.505 154.581 177.509 154.581 177.512C154.581 177.516 154.581 177.52 154.581 177.523C154.581 177.527 154.581 177.53 154.581 177.534C154.581 177.538 154.581 177.541 154.581 177.545C154.581 177.548 154.581 177.552 154.581 177.555C154.581 177.559 154.581 177.563 154.581 177.566C154.581 177.57 154.581 177.573 154.581 177.577C154.581 177.58 154.581 177.584 154.581 177.587C154.581 177.591 154.581 177.594 154.581 177.598C154.581 177.602 154.581 177.605 154.581 177.609C154.581 177.612 154.581 177.616 154.581 177.619C154.581 177.623 154.581 177.626 154.581 177.63C154.581 177.633 154.581 177.637 154.581 177.64C154.581 177.644 154.581 177.647 154.581 177.651C154.581 177.654 154.581 177.658 154.581 177.661C154.581 177.665 154.581 177.668 154.581 177.672C154.581 177.675 154.581 177.678 154.581 177.682C154.581 177.685 154.581 177.689 154.581 177.692C154.581 177.696 154.581 177.699 154.581 177.703C154.581 177.706 154.581 177.709 154.581 177.713C154.581 177.716 154.581 177.72 154.581 177.723C154.581 177.727 154.581 177.73 154.581 177.733C154.581 177.737 154.581 177.74 154.581 177.744C154.581 177.747 154.581 177.75 154.581 177.754C154.581 177.757 154.581 177.761 154.581 177.764C154.581 177.767 154.581 177.771 154.581 177.774C154.581 177.778 154.581 177.781 154.581 177.784C154.581 177.788 154.581 177.791 154.581 177.794C154.581 177.798 154.581 177.801 154.581 177.804C154.581 177.808 154.581 177.811 154.581 177.814C154.581 177.818 154.581 177.821 154.581 177.824C154.581 177.828 154.581 177.831 154.581 177.834C154.581 177.838 154.581 177.841 154.581 177.844C154.581 177.848 154.581 177.851 154.581 177.854C154.581 177.857 154.581 177.861 154.581 177.864C154.581 177.867 154.581 177.871 154.581 177.874C154.581 177.877 154.581 177.88 154.581 177.884C154.581 177.887 154.581 177.89 154.581 177.893C154.581 177.897 154.581 177.9 154.581 177.903C154.581 177.906 154.581 177.91 154.581 177.913C154.581 177.916 154.581 177.919 154.581 177.923C154.581 177.926 154.581 177.929 154.581 177.932C154.581 177.935 154.581 177.939 154.581 177.942C154.581 177.945 154.581 177.948 154.581 177.951C154.581 177.955 154.581 177.958 154.581 177.961C154.581 177.964 154.581 177.967 154.581 177.97C154.581 177.974 154.581 177.977 154.581 177.98C154.581 177.983 154.581 177.986 154.581 177.989C154.581 177.993 154.581 177.996 154.581 177.999C154.581 178.002 154.581 178.005 154.581 178.008C154.581 178.011 154.581 178.014 154.581 178.018C154.581 178.021 154.581 178.024 154.581 178.027C154.581 178.03 154.581 178.033 154.581 178.036C154.581 178.039 154.581 178.042 154.581 178.045C154.581 178.048 154.581 178.052 154.581 178.055C154.581 178.058 154.581 178.061 154.581 178.064C154.581 178.067 154.581 178.07 154.581 178.073C154.581 178.076 154.581 178.079 154.581 178.082C154.581 178.085 154.581 178.088 154.581 178.091C154.581 178.094 154.581 178.097 154.581 178.1C154.581 178.103 154.581 178.106 154.581 178.109C154.581 178.112 154.581 178.115 154.581 178.118C154.581 178.121 154.581 178.124 154.581 178.127C154.581 178.13 154.581 178.133 154.581 178.136C154.581 178.139 154.581 178.142 154.581 178.145C154.581 178.148 154.581 178.151 154.581 178.154C154.581 178.157 154.581 178.159 154.581 178.162C154.581 178.165 154.581 178.168 154.581 178.171C154.581 178.174 154.581 178.177 154.581 178.18C154.581 178.183 154.581 178.186 154.581 178.189C154.581 178.191 154.581 178.194 154.581 178.197C154.581 178.2 154.581 178.203 154.581 178.206C154.581 178.209 154.581 178.212 154.581 178.214C154.581 178.217 154.581 178.22 154.581 178.223C154.581 178.226 154.581 178.229 154.581 178.231C154.581 178.234 154.581 178.237 154.581 178.24C154.581 178.243 154.581 178.245 154.581 178.248C154.581 178.251 154.581 178.254 154.581 178.257C154.581 178.259 154.581 178.262 154.581 178.265C154.581 178.268 154.581 178.271 154.581 178.273C154.581 178.276 154.581 178.279 154.581 178.282C154.581 178.284 154.581 178.287 154.581 178.29C154.581 178.293 154.581 178.295 154.581 178.298C154.581 178.301 154.581 178.303 154.581 178.306C154.581 178.309 154.581 178.312 154.581 178.314C154.581 178.317 154.581 178.32 154.581 178.322C154.581 178.325 154.581 178.328 154.581 178.33C154.581 178.333 154.581 178.336 154.581 178.338C154.581 178.341 154.581 178.344 154.581 178.346C154.581 178.349 154.581 178.352 154.581 178.354C154.581 178.357 154.581 178.359 154.581 178.362C154.581 178.365 154.581 178.367 154.581 178.37C154.581 178.372 154.581 178.375 154.581 178.378C154.581 178.38 154.581 178.383 154.581 178.385C154.581 178.388 154.581 178.391 154.581 178.393C154.581 178.396 154.581 178.398 154.581 178.401C154.581 178.403 154.581 178.406 154.581 178.408C154.581 178.411 154.581 178.413 154.581 178.416C154.581 178.419 154.581 178.421 154.581 178.424C154.581 178.426 154.581 178.429 154.581 178.431C154.581 178.434 154.581 178.436 154.581 178.439C154.581 178.441 154.581 178.443 154.581 178.446C154.581 178.448 154.581 178.451 154.581 178.453H156.581ZM156.581 172.895C156.581 169.974 157.153 167.006 158.341 164.337L156.513 163.524C155.201 166.473 154.581 169.721 154.581 172.895H156.581ZM158.345 164.328C160.196 160.049 163.897 156.679 168.419 155.39L167.87 153.467C162.746 154.927 158.588 158.729 156.509 163.534L158.345 164.328ZM168.425 155.388C172.955 154.064 177.934 154.012 182.377 155.384L182.968 153.473C178.122 151.977 172.741 152.043 167.864 153.469L168.425 155.388ZM182.38 155.385C189.444 157.545 192.934 164.391 193.164 171.731L195.164 171.669C194.918 163.829 191.144 155.973 182.965 153.472L182.38 155.385ZM193.164 171.728C193.193 172.764 193.15 174.031 193.098 175.343C193.046 176.638 192.985 177.98 192.985 179.111H194.985C194.985 178.03 195.044 176.742 195.096 175.423C195.148 174.12 195.194 172.787 195.164 171.672L193.164 171.728ZM192.986 179.085C192.867 183.801 192.45 196.407 192.272 201.306L194.27 201.379C194.449 196.477 194.866 183.863 194.985 179.136L192.986 179.085ZM193.979 200.637C193.843 200.522 193.625 200.407 193.559 200.385C193.525 200.375 193.47 200.362 193.449 200.358C193.411 200.351 193.381 200.348 193.37 200.347C193.343 200.344 193.319 200.342 193.305 200.341C193.274 200.34 193.237 200.338 193.199 200.336C193.12 200.333 193.008 200.329 192.868 200.325C192.587 200.317 192.178 200.307 191.662 200.295C190.629 200.271 189.158 200.241 187.394 200.206C183.868 200.136 179.171 200.048 174.474 199.962C165.092 199.79 155.683 199.625 155.641 199.625V201.625C155.637 201.625 156.212 201.635 157.255 201.654C158.286 201.672 159.757 201.698 161.52 201.729C165.045 201.792 169.741 201.876 174.438 201.961C179.134 202.047 183.829 202.135 187.355 202.205C189.117 202.24 190.586 202.271 191.616 202.294C192.132 202.306 192.535 202.316 192.81 202.324C192.948 202.328 193.05 202.332 193.117 202.334C193.151 202.336 193.17 202.337 193.177 202.337C193.182 202.338 193.172 202.337 193.155 202.335C193.15 202.335 193.123 202.332 193.088 202.325C193.068 202.322 193.014 202.309 192.981 202.3C192.916 202.278 192.699 202.163 192.562 202.048L193.979 200.637Z" fill="black" mask="url(#path-28-inside-2_91_2)"/>
<path d="M208.394 147.197C214.527 147.018 221.315 146.958 227.507 146.958H233.878H233.997C235.247 148.333 237.689 150.962 238.939 152.396C239.773 153.293 240.547 154.189 241.38 155.086L243.762 157.775C243.762 157.835 233.938 147.197 233.938 147.257C233.938 147.197 208.275 147.257 208.394 147.197Z" stroke="#5B402C" stroke-miterlimit="10"/>
<path d="M0.297699 157.715C4.16788 154.249 8.57393 150.364 12.5632 146.958L12.6227 146.898H12.6823C18.3982 146.898 25.4836 146.898 31.2591 146.958C33.2835 146.958 35.3675 147.018 37.4514 147.077C37.511 147.137 12.6227 147.077 12.7418 147.077C12.6823 147.197 0.297699 157.835 0.297699 157.715Z" stroke="#5B402C" stroke-miterlimit="10"/>
<path d="M241.082 201.223C241.082 201.223 240.011 157.417 240.189 157.835C231.139 157.895 216.849 157.895 207.68 157.954L207.858 157.775L208.216 168.652C208.454 176.003 208.93 193.693 209.109 201.283L208.93 201.104C216.968 201.044 233.104 201.163 241.082 201.223ZM241.082 201.223H208.93L207.62 157.715C207.62 157.715 240.13 157.715 240.189 157.715L241.082 201.223Z" stroke="#5B402C" stroke-miterlimit="10"/>
<path d="M36.7965 199.968C36.856 188.972 37.0942 166.859 37.2728 155.863L37.4514 156.042L5.89458 156.102L6.13274 155.863L3.57247 200.625L3.39385 200.446L11.7296 200.327C17.0288 200.207 31.3187 200.028 36.7965 199.968ZM36.7965 199.968L3.3343 200.566L5.7755 155.803H37.3324C37.4514 155.863 36.7965 199.968 36.7965 199.968Z" stroke="#5B402C" stroke-miterlimit="10"/>
<path d="M36.7965 147.197C33.8194 147.078 29.7111 146.898 26.734 146.719C26.734 144.926 26.6745 141.52 26.6745 139.727V132.914V132.675H26.9126H36.2011H36.4392V132.854C36.5583 136.978 36.7369 143.073 36.7965 147.197ZM36.7965 147.197L36.2011 132.914C36.3202 132.973 26.9126 132.914 26.9126 132.914V146.599C26.8531 146.48 36.7965 147.197 36.7965 147.197Z" stroke="#5B402C" stroke-miterlimit="10"/>
<path d="M218.814 147.197C215.956 147.197 212.145 147.317 209.347 147.376C209.347 145.404 209.287 141.699 209.287 139.727V132.256V132.017H209.526H218.814H219.052V132.256C218.993 136.499 218.874 142.894 218.814 147.197ZM218.814 147.197V132.316C218.933 132.376 209.526 132.316 209.526 132.316V147.197C209.407 147.137 218.814 147.197 218.814 147.197Z" stroke="#5B402C" stroke-miterlimit="10"/>
<path d="M25.2455 132.914C26.9722 128.312 29.1157 123.112 31.021 118.57L31.1996 118.092C32.3904 120.423 33.998 123.471 35.1293 125.742L36.9156 129.328L38.7018 132.973L31.2591 118.69C31.3782 118.511 25.2455 132.973 25.2455 132.914Z" stroke="#5B402C" stroke-miterlimit="10"/>
<path d="M207.144 133.511C209.228 129.328 211.729 124.666 213.991 120.602L214.229 120.184L214.468 120.602C216.254 123.71 218.457 127.595 220.243 130.762L222.089 134.228C222.089 134.288 214.289 120.782 214.229 120.782C214.289 120.602 207.144 133.571 207.144 133.511Z" stroke="#5B402C" stroke-miterlimit="10"/>
<path d="M23.8165 177.617H22.5661V185.087H23.8165V177.617Z" fill="#5B402C"/>
<path d="M26.2577 180.067H20.0654V181.322H26.2577V180.067Z" fill="#5B402C"/>
<path d="M221.91 178.872H220.66V186.342H221.91V178.872Z" fill="#5B402C"/>
<path d="M224.351 181.382H218.159V182.637H224.351V181.382Z" fill="#5B402C"/>
</g>
<defs>
<clipPath id="clip0_91_2">
<rect width="244" height="202" fill="white"/>
</clipPath>
</defs>
</svg>
