<?xml version="1.0" encoding="utf-8"?>
<!-- Generator: Adobe Illustrator 24.3.0, SVG Export Plug-In . SVG Version: 6.00 Build 0)  -->
<svg version="1.1" id="Слой_1" xmlns="http://www.w3.org/2000/svg" xmlns:xlink="http://www.w3.org/1999/xlink" x="0px" y="0px"
	 viewBox="0 0 1440 163" style="enable-background:new 0 0 1440 163;" xml:space="preserve">
<style type="text/css">
	.st0{fill-rule:evenodd;clip-rule:evenodd;fill:#7D0000;}
	.st1{fill:none;}
	.st2{fill:#7D0000;}
	.st3{fill:#ECE9E9;}
</style>
<g>
	<path class="st0" d="M25,66.8h3.3v-5.6h5.5l0-7l-1,0l0,6h-5.5v5.6H25"/>
	<path class="st0" d="M24.7,81.5h3.6v5.6h5.5l0,7l-1,0l0-6h-5.5v-5.6h-2.6"/>
	<path class="st0" d="M60.6,66.8h6.6v-5.6h5.5l0-7l-1,0l0,6h-5.5v5.6h-4.6v-3.3l0-2.3h-5.6v-6h-1v7h5.6l0,1.3L60.6,66.8z"/>
	<path class="st0" d="M60.6,81.5h6.6v5.6h5.5l0,7l-1,0l0-6h-5.5v-5.6h-4.6v3.3l0,2.3h-5.6v6h-1v-7h5.6l0-1.3L60.6,81.5z"/>
	<path class="st0" d="M99.5,66.8h6.6v-5.6h5.5l0-7l-1,0l0,6h-5.5v5.6h-4.6v-3.3l0-2.3H95v-6h-1v7h5.6l0,1.3L99.5,66.8z"/>
	<path class="st0" d="M99.5,81.5h6.6v5.6h5.5l0,7l-1,0l0-6h-5.5v-5.6h-4.6v3.3l0,2.3H95v6h-1v-7h5.6l0-1.3L99.5,81.5z"/>
	<path class="st0" d="M79.8,59.8h7.1v5.6h5.6v5.6h5.6v7.1h-5.6v5.6h-5.6v5.6h-7.1v-0.7v-4.9h-5.6v-5.6h-5.6v-7.1h5.6v-5.6h5.6V59.8z
		 M81.2,88h4.2v-5.6h5.6v-5.6h5.6v-4.2h-5.6v-5.6h-5.6v-5.6h-4.2v5.6h-5.6v5.6h-5.6v4.2h5.6v5.6h5.6V88z"/>
	<path class="st0" d="M79.9,71.2h6.5l0,0.5v-0.5h0.5v7h-7V71.2z M85.9,72.2h-5v5h5V72.2z"/>
	<path class="st0" d="M40.9,59.8H48v5.6h5.6v5.6h5.6v7.1h-5.6v5.6H48v5.6h-7.1v-0.7v-4.9h-5.6v-5.6h-5.6v-7.1h5.6v-5.6h5.6V59.8z
		 M42.3,88h4.2v-5.6h5.6v-5.6h5.6v-4.2h-5.6v-5.6h-5.6v-5.6h-4.2v5.6h-5.6v5.6H31v4.2h5.6v5.6h5.6V88z"/>
	<path class="st0" d="M40.4,71.2h6.3l0,0.5v-0.5h0.5v6.8h-6.8V71.2z M46.2,72.2h-4.8l0,4.8h4.8V72.2z"/>
	<path class="st0" d="M118.7,59.8h7.1v5.6h5.6v5.6h5.6v7.1h-5.6v5.6h-5.6v5.6h-7.1v-0.7v-4.9h-5.6v-5.6h-5.6v-7.1h5.6v-5.6h5.6V59.8
		z M120.1,88h4.2v-5.6h5.6v-5.6h5.6v-4.2H130v-5.6h-5.6v-5.6h-4.2v5.6h-5.6v5.6h-5.6v4.2h5.6v5.6h5.6V88z"/>
	<path class="st0" d="M118.2,71.2h6.3l0,0.5v-0.5h0.5v6.8h-6.8V71.2z M124,72.2h-4.8l0,4.8h4.8V72.2z"/>
	<path class="st0" d="M138.5,66.8h6.6v-5.6h5.5l0-7l-1,0l0,6H144v5.6h-4.6v-3.3l0-2.3h-5.6v-6h-1v7h5.6l0,1.3V66.8z"/>
	<path class="st0" d="M138.5,81.5h6.6v5.6h5.5l0,7l-1,0l0-6H144v-5.6h-4.6v3.3l0,2.3h-5.6v6h-1v-7h5.6l0-1.3V81.5z"/>
	<path class="st0" d="M177.4,66.8h6.6v-5.6h5.5l0-7l-1,0l0,6h-5.5v5.6h-4.6v-3.3l0-2.3h-5.6v-6h-1v7h5.6l0,1.3V66.8z"/>
	<path class="st0" d="M177.4,81.5h6.6v5.6h5.5l0,7l-1,0l0-6h-5.5v-5.6h-4.6v3.3l0,2.3h-5.6v6h-1v-7h5.6l0-1.3V81.5z"/>
	<path class="st0" d="M216.3,66.8h6.6v-5.6h5.5l0-7l-1,0l0,6h-5.5v5.6h-4.6v-3.3l0-2.3h-5.6v-6h-1v7h5.6l0,1.3V66.8z"/>
	<path class="st0" d="M216.3,81.5h6.6v5.6h5.5l0,7l-1,0l0-6h-5.5v-5.6h-4.6v3.3l0,2.3h-5.6v6h-1v-7h5.6l0-1.3V81.5z"/>
	<path class="st0" d="M196.5,59.8h7.1v5.6h5.6v5.6h5.6v7.1h-5.6v5.6h-5.6v5.6h-7.1v-0.7v-4.9h-5.6v-5.6h-5.6v-7.1h5.6v-5.6h5.6V59.8
		z M198,88h4.2v-5.6h5.6v-5.6h5.6v-4.2h-5.6v-5.6h-5.6v-5.6H198v5.6h-5.6v5.6h-5.6v4.2h5.6v5.6h5.6V88z"/>
	<path class="st0" d="M196.7,71.2h6.5l0,0.5v-0.5h0.5v7h-7V71.2z M202.6,72.2h-5v5h5V72.2z"/>
	<path class="st0" d="M157.6,59.8h7.1v5.6h5.6v5.6h5.6v7.1h-5.6v5.6h-5.6v5.6h-7.1v-0.7v-4.9H152v-5.6h-5.6v-7.1h5.6v-5.6h5.6V59.8z
		 M159.1,88h4.2v-5.6h5.6v-5.6h5.6v-4.2h-5.6v-5.6h-5.6v-5.6h-4.2v5.6h-5.6v5.6h-5.6v4.2h5.6v5.6h5.6V88z"/>
	<path class="st0" d="M157.1,71.2h6.3l0,0.5v-0.5h0.5v6.8h-6.8V71.2z M162.9,72.2h-4.8l0,4.8h4.8V72.2z"/>
	<path class="st0" d="M235.5,59.8h7.1v5.6h5.6v5.6h5.6v7.1h-5.6v5.6h-5.6v5.6h-7.1v-0.7v-4.9h-5.6v-5.6h-5.6v-7.1h5.6v-5.6h5.6V59.8
		z M236.9,88h4.2v-5.6h5.6v-5.6h5.6v-4.2h-5.6v-5.6h-5.6v-5.6h-4.2v5.6h-5.6v5.6h-5.6v4.2h5.6v5.6h5.6V88z"/>
	<path class="st0" d="M234.9,71.2h6.3l0,0.5v-0.5h0.5v6.8h-6.8V71.2z M240.7,72.2h-4.8l0,4.8h4.8V72.2z"/>
	<path class="st0" d="M255.2,66.8h6.6v-5.6h5.5l0-7l-1,0l0,6h-5.5v5.6h-4.6v-3.3l0-2.3h-5.6v-6h-1v7h5.6l0,1.3V66.8z"/>
	<path class="st0" d="M255.2,81.5h6.6v5.6h5.5l0,7l-1,0l0-6h-5.5v-5.6h-4.6v3.3l0,2.3h-5.6v6h-1v-7h5.6l0-1.3V81.5z"/>
	<g>
		<polygon class="st1" points="1038.3,88.1 1038.3,82.5 1033.7,82.5 1033.7,85.8 1033.8,88.1 1028.2,88.1 1028.2,93.2 1043.8,93.2 
			1043.8,88.1 		"/>
		<polygon class="st1" points="1116.1,88.1 1116.1,82.5 1111.6,82.5 1111.6,85.8 1111.6,88.1 1106,88.1 1106,93.2 1121.6,93.2 
			1121.7,88.1 		"/>
		<polygon class="st1" points="1077.2,88.1 1077.2,82.5 1072.6,82.5 1072.6,85.8 1072.7,88.1 1067.1,88.1 1067.1,93.2 1082.7,93.2 
			1082.7,88.1 		"/>
		<polygon class="st1" points="999.4,88.1 999.4,82.5 994.8,82.5 994.8,85.8 994.9,88.1 989.2,88.1 989.2,93.2 1004.9,93.2 
			1004.9,88.1 		"/>
		<polygon class="st1" points="1150.5,82.5 1150.5,85.8 1150.5,88.1 1144.9,88.1 1144.9,93.2 1153,93.2 1153,82.5 		"/>
		<polygon class="st1" points="921.6,88.1 921.6,82.5 917,82.5 917,85.8 917,88.1 911.4,88.1 911.4,93.2 927.1,93.2 927.1,88.1 		
			"/>
		<polygon class="st1" points="960.5,88.1 960.5,82.5 955.9,82.5 955.9,85.8 956,88.1 950.3,88.1 950.3,93.2 966,93.2 966,88.1 		
			"/>
		<polygon class="st1" points="872.5,60.2 878.1,60.2 878.1,62.5 878.1,65.8 882.7,65.8 882.7,60.2 888.2,60.2 888.2,56.1 
			872.5,56.1 		"/>
		<polygon class="st1" points="911.4,60.2 917,60.2 917,62.5 917,65.8 921.6,65.8 921.6,60.2 927.1,60.2 927.1,56.1 911.4,56.1 		
			"/>
		<polygon class="st1" points="950.3,60.2 956,60.2 955.9,62.5 955.9,65.8 960.5,65.8 960.5,60.2 966,60.2 966,56.1 950.3,56.1 		
			"/>
		<polygon class="st1" points="989.2,60.2 994.9,60.2 994.8,62.5 994.8,65.8 999.4,65.8 999.4,60.2 1004.9,60.2 1004.9,56.1 
			989.2,56.1 		"/>
		<polygon class="st1" points="1028.2,60.2 1033.8,60.2 1033.7,62.5 1033.7,65.8 1038.3,65.8 1038.3,60.2 1043.8,60.2 1043.8,56.1 
			1028.2,56.1 		"/>
		<polygon class="st1" points="716.9,60.2 722.5,60.2 722.5,62.5 722.5,65.8 727,65.8 727,60.2 732.5,60.2 732.5,56.1 716.9,56.1 		
			"/>
		<polygon class="st1" points="755.8,60.2 761.4,60.2 761.4,62.5 761.4,65.8 765.9,65.8 765.9,60.2 771.5,60.2 771.4,56.1 
			755.8,56.1 		"/>
		<polygon class="st1" points="833.6,60.2 839.2,60.2 839.2,62.5 839.2,65.8 843.8,65.8 843.8,60.2 849.3,60.2 849.3,56.1 
			833.6,56.1 		"/>
		<polygon class="st1" points="794.7,60.2 800.3,60.2 800.3,62.5 800.3,65.8 804.9,65.8 804.9,60.2 810.4,60.2 810.3,56.1 
			794.7,56.1 		"/>
		<polygon class="st1" points="882.7,88.1 882.7,82.5 878.1,82.5 878.1,85.8 878.1,88.1 872.5,88.1 872.5,93.2 888.2,93.2 
			888.2,88.1 		"/>
		<polygon class="st1" points="484.1,60.2 489.7,60.2 489.6,62.5 489.6,65.8 494.2,65.8 494.2,60.2 499.7,60.2 499.7,56.1 
			484.1,56.1 		"/>
		<polygon class="st1" points="1387.8,88.1 1387.8,82.5 1383.3,82.5 1383.3,85.8 1383.3,88.1 1377.7,88.1 1377.7,93.2 1393.3,93.2 
			1393.4,88.1 		"/>
		<polygon class="st1" points="1310,88.1 1310,82.5 1305.4,82.5 1305.4,85.8 1305.5,88.1 1299.9,88.1 1299.9,93.2 1315.5,93.2 
			1315.6,88.1 		"/>
		<polygon class="st1" points="533.1,88.1 533.1,82.5 528.6,82.5 528.6,85.8 528.6,88.1 523,88.1 523,93.2 538.6,93.2 538.6,88.1 		
			"/>
		<polygon class="st1" points="1348.9,88.1 1348.9,82.5 1344.4,82.5 1344.4,85.8 1344.4,88.1 1338.8,88.1 1338.8,93.2 1354.4,93.2 
			1354.5,88.1 		"/>
		<polygon class="st1" points="416.4,88.1 416.4,82.5 411.8,82.5 411.8,85.8 411.9,88.1 406.2,88.1 406.2,93.2 421.9,93.2 
			421.9,88.1 		"/>
		<polygon class="st1" points="494.2,88.1 494.2,82.5 489.6,82.5 489.6,85.8 489.7,88.1 484.1,88.1 484.1,93.2 499.7,93.2 
			499.7,88.1 		"/>
		<polygon class="st1" points="455.3,88.1 455.3,82.5 450.7,82.5 450.7,85.8 450.8,88.1 445.2,88.1 445.2,93.2 460.8,93.2 
			460.8,88.1 		"/>
		<polygon class="st1" points="804.9,88.1 804.9,82.5 800.3,82.5 800.3,85.8 800.3,88.1 794.7,88.1 794.7,93.2 810.3,93.2 
			810.4,88.1 		"/>
		<polygon class="st1" points="765.9,88.1 765.9,82.5 761.4,82.5 761.4,85.8 761.4,88.1 755.8,88.1 755.8,93.2 771.4,93.2 
			771.5,88.1 		"/>
		<polygon class="st1" points="843.8,88.1 843.8,82.5 839.2,82.5 839.2,85.8 839.2,88.1 833.6,88.1 833.6,93.2 849.3,93.2 
			849.3,88.1 		"/>
		<polygon class="st1" points="727,88.1 727,82.5 722.5,82.5 722.5,85.8 722.5,88.1 716.9,88.1 716.9,93.2 732.5,93.2 732.5,88.1 		
			"/>
		<polygon class="st1" points="570,65.8 570,56.1 561.9,56.1 561.9,60.2 567.5,60.2 567.5,62.5 567.5,65.8 570,65.8 570,65.8 		"/>
		<polygon class="st1" points="406.2,60.2 411.9,60.2 411.8,62.5 411.8,65.8 416.4,65.8 416.4,60.2 421.9,60.2 421.9,56.1 
			406.2,56.1 		"/>
		<polygon class="st1" points="567.5,82.5 567.5,85.8 567.5,88.1 561.9,88.1 561.9,93.2 570,93.2 570,82.5 		"/>
		<polygon class="st1" points="445.2,60.2 450.8,60.2 450.7,62.5 450.7,65.8 455.3,65.8 455.3,60.2 460.8,60.2 460.8,56.1 
			445.2,56.1 		"/>
		<polygon class="st1" points="367.3,60.2 373,60.2 372.9,62.5 372.9,65.8 377.5,65.8 377.5,60.2 383,60.2 383,56.1 367.3,56.1 		
			"/>
		<path class="st1" d="M814.2,82.4h5.6V88h4.2v-5.6h5.6v-5.6h5.6v-4.2h-5.6v-5.6h-5.6v-5.6h-4.2v5.6h-5.6v5.6h-5.6v4.2h5.6V82.4z
			 M817.9,71.2h6.3l0,0.5v-0.5h0.5v6.8h-6.8V71.2z"/>
		<path class="st1" d="M853.1,82.4h5.6V88h4.2v-5.6h5.6v-5.6h5.6v-4.2h-5.6v-5.6H863v-5.6h-4.2v5.6h-5.6v5.6h-5.6v4.2h5.6V82.4z
			 M856.8,71.2h6.3l0,0.5v-0.5h0.5v6.8h-6.8V71.2z"/>
		<rect x="818.9" y="72.2" class="st1" width="4.8" height="4.8"/>
		<rect x="780.7" y="72.2" class="st1" width="5" height="5"/>
		<rect x="857.8" y="72.2" class="st1" width="4.8" height="4.8"/>
		<rect x="897.4" y="72.2" class="st1" width="5" height="5"/>
		<path class="st1" d="M775.3,82.4h5.6V88h4.2v-5.6h5.6v-5.6h5.6v-4.2h-5.6v-5.6h-5.6v-5.6H781v5.6h-5.6v5.6h-5.6v4.2h5.6V82.4z
			 M779.7,71.2h6.5l0,0.5v-0.5h0.5v7h-7V71.2z"/>
		<path class="st1" d="M892,82.4h5.6V88h4.2v-5.6h5.6v-5.6h5.6v-4.2h-5.6v-5.6h-5.6v-5.6h-4.2v5.6H892v5.6h-5.6v4.2h5.6V82.4z
			 M896.4,71.2h6.5l0,0.5v-0.5h0.5v7h-7V71.2z"/>
		<path class="st1" d="M715.9,87.1h5.6l0-1.3v-4.3h6.6v5.6h5.5l0,6.1h21.3v-6.1h5.6l0-1.3v-4.3h6.6v5.6h5.5l0,6.1h21.3v-6.1h5.6
			l0-1.3v-4.3h6.6v5.6h5.5l0,6.1h21.3v-6.1h5.6l0-1.3v-4.3h6.6v5.6h5.5l0,6.1h21.3v-6.1h5.6l0-1.3l0-4.3h6.6v5.6h5.5l0,6.1h21.3
			v-6.1h5.6l0-1.3v-4.3h6.6v5.6h5.5l0,6.1h21.3v-6.1h5.6l0-1.3v-4.3h6.6v5.6h5.5l0,6.1h21.3v-6.1h5.6l0-1.3v-4.3h6.6v5.6h5.5l0,6.1
			h21.3v-6.1h5.6l0-1.3v-4.3h6.6v5.6h5.5l0,6.1h21.3v-6.1h5.6l0-1.3v-4.3h6.6v5.6h5.5l0,6.1h21.3v-6.1h5.6l0-1.3v-4.3h6.6v5.6h5.5
			l0,6.1h21.3v-6.1h5.6l0-1.3v-4.3h3.5v0h0V66.8h-3.5v-4.3l0-1.3h-5.6v-5.1h-21.3l0,5.1h-5.5v5.6h-6.6v-4.3l0-1.3h-5.6v-5.1h-21.3
			l0,5.1h-5.5v5.6h-6.6v-4.3l0-1.3h-5.6v-5.1h-21.3l0,5.1h-5.5v5.6h-6.6v-4.3l0-1.3h-5.6v-5.1h-21.3l0,5.1h-5.5v5.6h-6.6v-4.3l0-1.3
			h-5.6v-5.1H967l0,5.1h-5.5v5.6h-6.6v-4.3l0-1.3h-5.6v-5.1h-21.3l0,5.1h-5.5v5.6H916v-4.3l0-1.3h-5.6v-5.1h-21.3l0,5.1h-5.5v5.6
			h-6.6l0-4.3l0-1.3h-5.6v-5.1h-21.3l0,5.1h-5.5v5.6h-6.6v-4.3l0-1.3h-5.6v-5.1h-21.3l0,5.1h-5.5v5.6h-6.6v-4.3l0-1.3h-5.6v-5.1
			h-21.3l0,5.1h-5.5v5.6h-6.6v-4.3l0-1.3h-5.6v-5.1h-21.3l0,5.1H728v5.6h-6.6v-4.3l0-1.3h-5.6v-5.1H700v9.3h1.7v-5.6h7.1v5.6h5.6
			v5.6h5.6v7.1h-5.6v5.6h-5.6v5.6h-7.1v-0.7v-4.9H700v9.3h15.9V87.1z M1118.4,71.1h5.7v-5.6h5.6v-5.6h7.1v5.6h5.6v5.6h5.7v7.1h-5.7
			v5.6h-5.6v5.6h-7.1v-0.7v-4.9h-5.6v-5.6h-5.7V71.1z M1079.5,71.1h5.7v-5.6h5.6v-5.6h7.1v5.6h5.6v5.6h5.7v7.1h-5.7v5.6h-5.6v5.6
			h-7.1v-0.7v-4.9h-5.6v-5.6h-5.7V71.1z M1040.6,71.1h5.7v-5.6h5.7v-5.6h7.1v5.6h5.6v5.6h5.7v7.1h-5.7v5.6h-5.6v5.6h-7.1v-0.7v-4.9
			h-5.7v-5.6h-5.7V71.1z M1001.7,71.1h5.6v-5.6h5.7v-5.6h7.1v5.6h5.6v5.6h5.6v7.1h-5.6v5.6h-5.6v5.6h-7.1v-0.7v-4.9h-5.7v-5.6h-5.6
			V71.1z M962.8,71.1h5.6v-5.6h5.6v-5.6h7.1v5.6h5.6v5.6h5.6v7.1h-5.6v5.6h-5.6v5.6h-7.1v-0.7v-4.9h-5.6v-5.6h-5.6V71.1z
			 M923.9,71.1h5.6v-5.6h5.6v-5.6h7.1v5.6h5.6v5.6h5.6v7.1h-5.6v5.6h-5.6v5.6h-7.1v-0.7v-4.9h-5.6v-5.6h-5.6V71.1z M885,71.1h5.6
			v-5.6h5.6v-5.6h7.1v5.6h5.6v5.6h5.6v7.1H909v5.6h-5.6v5.6h-7.1v-0.7v-4.9h-5.6v-5.6H885V71.1z M846.1,71.1h5.6v-5.6h5.6v-5.6h7.1
			v5.6h5.6v5.6h5.6v7.1h-5.6v5.6h-5.6v5.6h-7.1v-0.7v-4.9h-5.6v-5.6h-5.6V71.1z M807.2,71.1h5.6v-5.6h5.6v-5.6h7.1v5.6h5.6v5.6h5.6
			v7.1h-5.6v5.6h-5.6v5.6h-7.1v-0.7v-4.9h-5.6v-5.6h-5.6V71.1z M768.3,71.1h5.6v-5.6h5.6v-5.6h7.1v5.6h5.6v5.6h5.6v7.1h-5.6v5.6
			h-5.6v5.6h-7.1v-0.7v-4.9h-5.6v-5.6h-5.6V71.1z M729.3,71.1h5.6v-5.6h5.6v-5.6h7.1v5.6h5.6v5.6h5.6v7.1h-5.6v5.6h-5.6v5.6h-7.1
			v-0.7v-4.9H735v-5.6h-5.6V71.1z"/>
		<path class="st1" d="M1286.2,88h4.2v-5.6h5.7v-5.6h5.6v-4.2h-5.6v-5.6h-5.7v-5.6h-4.2v5.6h-3.2v15.5h3.2V88z M1284.2,78.1v-6.8
			h6.3h0.5v6.8H1284.2z"/>
		<rect x="1285.2" y="72.2" class="st1" width="4.8" height="4.8"/>
		<polygon class="st1" points="328.4,60.2 334,60.2 334,62.5 334,65.8 338.6,65.8 338.6,60.2 344.1,60.2 344.1,56.1 328.4,56.1 		
			"/>
		<rect x="741.1" y="72.2" class="st1" width="4.8" height="4.8"/>
		<path class="st1" d="M736.4,82.4h5.6V88h4.2v-5.6h5.6v-5.6h5.6v-4.2h-5.6v-5.6h-5.6v-5.6h-4.2v5.6h-5.6v5.6h-5.6v4.2h5.6V82.4z
			 M740.1,71.2h6.3l0,0.5v-0.5h0.5v6.8h-6.8V71.2z"/>
		<polygon class="st1" points="700,95 700,102 1152,102 1153,102 1153,95 		"/>
		<path class="st1" d="M931,82.4h5.6V88h4.2v-5.6h5.6v-5.6h5.6v-4.2h-5.6v-5.6h-5.6v-5.6h-4.2v5.6H931v5.6h-5.6v4.2h5.6V82.4z
			 M934.6,71.2h6.3l0,0.5v-0.5h0.5v6.8h-6.8V71.2z"/>
		<polygon class="st1" points="1106,60.2 1111.6,60.2 1111.6,62.5 1111.6,65.8 1116.1,65.8 1116.1,60.2 1121.7,60.2 1121.6,56.1 
			1106,56.1 		"/>
		<path class="st1" d="M703.1,82.4V88h4.2v-5.6h5.6v-5.6h5.6v-4.2H713v-5.6h-5.6v-5.6h-4.2v5.6H700v15.5H703.1z M707.5,71.2l0,0.5
			L707.5,71.2h0.5v6.8h-6.8v-6.8H707.5z"/>
		<rect x="702.2" y="72.2" class="st1" width="4.8" height="4.8"/>
		<polygon class="st1" points="715.9,54.3 716.9,54.3 716.9,54.3 733,54.3 733.5,54.3 733.5,54.3 754.8,54.3 754.8,54.3 755.8,54.3 
			755.8,54.3 771.9,54.3 772.4,54.3 772.4,54.3 793.7,54.3 793.7,54.3 794.7,54.3 794.7,54.3 810.8,54.3 811.3,54.3 811.3,54.3 
			832.6,54.3 832.6,54.3 833.6,54.3 833.6,54.3 849.7,54.3 850.3,54.3 850.3,54.3 871.5,54.3 871.5,54.3 872.5,54.3 872.5,54.3 
			888.6,54.3 889.2,54.3 889.2,54.3 910.4,54.3 910.4,54.3 911.4,54.3 911.4,54.3 927.5,54.3 928.1,54.3 928.1,54.3 949.3,54.3 
			949.3,54.3 950.3,54.3 950.3,54.3 966.5,54.3 967,54.3 967,54.3 988.2,54.3 988.2,54.3 989.2,54.3 989.2,54.3 1005.4,54.3 
			1005.9,54.3 1005.9,54.3 1027.2,54.3 1027.2,54.3 1028.2,54.3 1028.2,54.3 1044.3,54.3 1044.8,54.3 1044.8,54.3 1066.1,54.3 
			1066.1,54.3 1067.1,54.3 1067.1,54.3 1083.2,54.3 1083.7,54.3 1083.7,54.3 1105,54.3 1105,54.3 1106,54.3 1106,54.3 1122.1,54.3 
			1122.6,54.3 1122.6,54.3 1143.9,54.3 1143.9,54.3 1144.9,54.3 1144.9,54.3 1153,54.3 1153,47 700,47 700,54.3 715.9,54.3 		"/>
		<rect x="1130.9" y="72.2" class="st1" width="5" height="5"/>
		<polygon class="st1" points="1150.5,60.2 1150.5,62.5 1150.5,65.8 1153,65.8 1153,65.8 1153,65.8 1153,56.1 1144.9,56.1 
			1144.9,60.2 		"/>
		<polygon class="st1" points="1067.1,60.2 1072.7,60.2 1072.6,62.5 1072.6,65.8 1077.2,65.8 1077.2,60.2 1082.7,60.2 1082.7,56.1 
			1067.1,56.1 		"/>
		<path class="st1" d="M1125.5,82.4h5.6V88h4.2v-5.6h5.7v-5.6h5.6v-4.2h-5.6v-5.6h-5.7v-5.6h-4.2v5.6h-5.6v5.6h-5.7v4.2h5.7V82.4z
			 M1129.9,71.2h6.5h0.5v7h-7V71.2z"/>
		<polygon class="st1" points="377.5,88.1 377.5,82.5 372.9,82.5 372.9,85.8 373,88.1 367.3,88.1 367.3,93.2 383,93.2 383,88.1 		
			"/>
		<path class="st1" d="M1047.7,82.4h5.6V88h4.2v-5.6h5.6v-5.6h5.6v-4.2h-5.6v-5.6h-5.6v-5.6h-4.2v5.6h-5.6v5.6h-5.6v4.2h5.6V82.4z
			 M1051.4,71.2h6.3h0.5v6.8h-6.8V71.2z"/>
		<rect x="1091.3" y="72.2" class="st1" width="4.8" height="4.8"/>
		<rect x="1014.1" y="72.2" class="st1" width="5" height="5"/>
		<rect x="974.6" y="72.2" class="st1" width="4.8" height="4.8"/>
		<path class="st1" d="M1008.8,82.4h5.6V88h4.2v-5.6h5.7v-5.6h5.6v-4.2h-5.6v-5.6h-5.7v-5.6h-4.2v5.6h-5.6v5.6h-5.7v4.2h5.7V82.4z
			 M1013.1,71.2h6.5h0.5v7h-7V71.2z"/>
		<rect x="935.6" y="72.2" class="st1" width="4.8" height="4.8"/>
		<path class="st1" d="M1086.6,82.4h5.6V88h4.2v-5.6h5.7v-5.6h5.6v-4.2h-5.6v-5.6h-5.7v-5.6h-4.2v5.6h-5.6v5.6h-5.7v4.2h5.7V82.4z
			 M1090.3,71.2h6.3h0.5v6.8h-6.8V71.2z"/>
		<rect x="1052.4" y="72.2" class="st1" width="4.8" height="4.8"/>
		<path class="st1" d="M969.9,82.4h5.6V88h4.2v-5.6h5.6v-5.6h5.6v-4.2h-5.6v-5.6h-5.6v-5.6h-4.2v5.6h-5.6v5.6h-5.6v4.2h5.6V82.4z
			 M973.6,71.2h6.3l0,0.5v-0.5h0.5v6.8h-6.8V71.2z"/>
		<rect x="508.3" y="72.2" class="st1" width="4.8" height="4.8"/>
		<path class="st1" d="M474.6,61.2h-4.2v5.6h-5.6v5.6H459v4.2h5.6v5.6h5.6V88h4.2v-5.6h5.6v-5.6h5.6v-4.2h-5.6v-5.6h-5.6V61.2z
			 M474.7,71.2l0,0.5L474.7,71.2h0.5v6.8h-6.8v-6.8H474.7z"/>
		<path class="st1" d="M435.7,61.2h-4.2v5.6h-5.6v5.6h-5.6v4.2h5.6v5.6h5.6V88h4.2v-5.6h5.6v-5.6h5.6v-4.2h-5.6v-5.6h-5.6V61.2z
			 M436.6,71.2l0,0.5L436.6,71.2h0.5v7h-7v-7H436.6z"/>
		<rect x="469.4" y="72.2" class="st1" width="4.8" height="4.8"/>
		<path class="st1" d="M513.5,61.2h-4.2v5.6h-5.6v5.6H498v4.2h5.6v5.6h5.6V88h4.2v-5.6h5.6v-5.6h5.6v-4.2h-5.6v-5.6h-5.6V61.2z
			 M513.6,71.2l0,0.5L513.6,71.2h0.5v6.8h-6.8v-6.8H513.6z"/>
		<polygon class="st1" points="1383.3,60.2 1383.3,62.5 1383.3,65.8 1387.8,65.8 1387.8,60.2 1393.4,60.2 1393.3,56.1 1377.7,56.1 
			1377.7,60.2 		"/>
		<rect x="431.1" y="72.2" class="st1" width="5" height="5"/>
		<path class="st1" d="M552.4,61.2h-4.2v5.6h-5.6v5.6h-5.6v4.2h5.6v5.6h5.6V88h4.2v-5.6h5.6v-5.6h5.6v-4.2H558v-5.6h-5.6V61.2z
			 M553.3,71.2l0,0.5L553.3,71.2h0.5v7h-7v-7H553.3z"/>
		<rect x="547.9" y="72.2" class="st1" width="5" height="5"/>
		<polygon class="st1" points="1305.5,60.2 1305.4,62.5 1305.4,65.8 1310,65.8 1310,60.2 1315.6,60.2 1315.5,56.1 1299.9,56.1 
			1299.9,60.2 		"/>
		<path class="st1" d="M357.8,61.2h-4.2v5.6H348v5.6h-5.6v4.2h5.6v5.6h5.6V88h4.2v-5.6h5.6v-5.6h5.6v-4.2h-5.6v-5.6h-5.6V61.2z
			 M358,71.2l0,0.5L358,71.2h0.5v6.8h-6.8v-6.8H358z"/>
		<path class="st1" d="M280,61.2h-4.2v5.6h-5.6v5.6h-5.6v4.2h5.6v5.6h5.6V88h4.2v-5.6h5.6v-5.6h5.6v-4.2h-5.6v-5.6H280V61.2z
			 M280.2,71.2l0,0.5L280.2,71.2h0.5v6.8h-6.8v-6.8H280.2z"/>
		<path class="st1" d="M396.7,61.2h-4.2v5.6h-5.6v5.6h-5.6v4.2h5.6v5.6h5.6V88h4.2v-5.6h5.6v-5.6h5.6v-4.2h-5.6v-5.6h-5.6V61.2z
			 M396.9,71.2l0,0.5L396.9,71.2h0.5v6.8h-6.8v-6.8H396.9z"/>
		<rect x="314.4" y="72.2" class="st1" width="5" height="5"/>
		<rect x="352.6" y="72.2" class="st1" width="4.8" height="4.8"/>
		<rect x="391.6" y="72.2" class="st1" width="4.8" height="4.8"/>
		<rect x="274.8" y="72.2" class="st1" width="4.8" height="4.8"/>
		<polygon class="st1" points="523,60.2 528.6,60.2 528.6,62.5 528.6,65.8 533.1,65.8 533.1,60.2 538.6,60.2 538.6,56.1 523,56.1 		
			"/>
		<polygon class="st1" points="1344.4,60.2 1344.4,62.5 1344.4,65.8 1348.9,65.8 1348.9,60.2 1354.5,60.2 1354.4,56.1 1338.8,56.1 
			1338.8,60.2 		"/>
		<rect x="1401.9" y="72.2" class="st1" width="4.8" height="4.8"/>
		<polygon class="st1" points="289.5,60.2 295.1,60.2 295.1,62.5 295.1,65.8 299.7,65.8 299.7,60.2 305.2,60.2 305.2,56.1 
			289.5,56.1 		"/>
		<path class="st1" d="M1402.9,88h4.2v-5.6h5.7v-5.6h5.6v-4.2h-5.6v-5.6h-5.7v-5.6h-4.2v5.6h-5.7v5.6h-5.7v4.2h5.7v5.6h5.7V88z
			 M1400.9,78.1v-6.8h6.3h0.5v6.8H1400.9z"/>
		<rect x="1324.1" y="72.2" class="st1" width="4.8" height="4.8"/>
		<path class="st1" d="M1364,88h4.2v-5.6h5.7v-5.6h5.6v-4.2h-5.6v-5.6h-5.7v-5.6h-4.2v5.6h-5.7v5.6h-5.6v4.2h5.6v5.6h5.7V88z
			 M1362.7,78.1v-7h6.4h0.5v7H1362.7z"/>
		<path class="st1" d="M318.9,61.2h-4.2v5.6H309v5.6h-5.6v4.2h5.6v5.6h5.6V88h4.2v-5.6h5.6v-5.6h5.6v-4.2h-5.6v-5.6h-5.6V61.2z
			 M319.9,71.2l0,0.5L319.9,71.2h0.5v7h-7v-7H319.9z"/>
		<rect x="1363.7" y="72.2" class="st1" width="4.9" height="5"/>
		<polygon class="st1" points="338.6,88.1 338.6,82.5 334,82.5 334,85.8 334,88.1 328.4,88.1 328.4,93.2 344.1,93.2 344.1,88.1 		
			"/>
		<path class="st1" d="M1325.1,88h4.2v-5.6h5.7v-5.6h5.6v-4.2h-5.6v-5.6h-5.7v-5.6h-4.2v5.6h-5.7v5.6h-5.7v4.2h5.7v5.6h5.7V88z
			 M1323.1,78.1v-6.8h6.3h0.5v6.8H1323.1z"/>
		<polygon class="st1" points="299.7,88.1 299.7,82.5 295.1,82.5 295.1,85.8 295.1,88.1 289.5,88.1 289.5,93.2 305.2,93.2 
			305.2,88.1 		"/>
		<polyline class="st2" points="24.7,104 569,104 569,102 24.7,102 		"/>
		<polyline class="st2" points="24.7,46.9 570,46.9 570,45 24.7,45 		"/>
		<polygon class="st2" points="344.1,56.1 344.1,54.3 344.5,54.3 328.4,54.3 328.4,56.1 		"/>
		<polygon class="st2" points="538.6,56.1 538.6,54.3 539.1,54.3 523,54.3 523,56.1 		"/>
		<polyline class="st2" points="24.7,56.1 288.5,56.1 288.5,54.3 24.7,54.3 		"/>
		<rect x="561.9" y="54.3" class="st2" width="8.1" height="1.9"/>
		<polygon class="st2" points="460.8,56.1 460.8,54.3 461.3,54.3 445.2,54.3 445.2,56.1 		"/>
		<polygon class="st2" points="421.9,56.1 421.9,54.3 422.4,54.3 406.2,54.3 406.2,56.1 		"/>
		<polygon class="st2" points="499.7,56.1 499.7,54.3 500.2,54.3 484.1,54.3 484.1,56.1 		"/>
		<polygon class="st2" points="461.8,54.3 461.8,56.1 483.1,56.1 483.1,54.3 		"/>
		<polygon class="st2" points="305.2,56.1 305.2,54.3 305.6,54.3 289.5,54.3 289.5,56.1 		"/>
		<polygon class="st2" points="384,54.3 384,56.1 405.2,56.1 405.2,54.3 		"/>
		<polygon class="st2" points="539.6,54.3 539.6,56.1 560.9,56.1 560.9,54.3 		"/>
		<polygon class="st2" points="345.1,54.3 345.1,56.1 366.3,56.1 366.3,54.3 		"/>
		<polygon class="st2" points="383,56.1 383,54.3 383.5,54.3 367.3,54.3 367.3,56.1 		"/>
		<polygon class="st2" points="422.9,54.3 422.9,56.1 444.2,56.1 444.2,54.3 		"/>
		<polygon class="st2" points="306.2,54.3 306.2,56.1 327.4,56.1 327.4,54.3 		"/>
		<polygon class="st2" points="500.7,54.3 500.7,56.1 522,56.1 522,54.3 		"/>
		<polyline class="st2" points="24.7,95 570,95 570,93.2 561.9,93.2 561.9,94.1 560.9,94.1 560.9,93.2 539.6,93.2 539.6,94.1 
			538.6,94.1 538.6,93.2 523,93.2 523,94.1 522,94.1 522,93.2 500.7,93.2 500.7,94.1 499.7,94.1 499.7,93.2 484.1,93.2 484.1,94.1 
			483.1,94.1 483.1,93.2 461.8,93.2 461.8,94.1 460.8,94.1 460.8,93.2 445.2,93.2 445.2,94.1 444.2,94.1 444.2,93.2 422.9,93.2 
			422.9,94.1 421.9,94.1 421.9,93.2 406.2,93.2 406.2,94.1 405.2,94.1 405.2,93.2 384,93.2 384,94.1 383,94.1 383,93.2 367.3,93.2 
			367.3,94.1 366.3,94.1 366.3,93.2 345.1,93.2 345.1,94.1 344.1,94.1 344.1,93.2 328.4,93.2 328.4,94.1 327.4,94.1 327.4,93.2 
			306.2,93.2 306.2,94.1 305.2,94.1 305.2,93.2 289.5,93.2 289.5,94.1 288.5,94.1 288.5,93.2 24.7,93.2 		"/>
		<rect x="288.5" y="54.3" class="st2" width="1" height="0"/>
		<polygon class="st2" points="305.2,60.2 299.7,60.2 299.7,65.8 295.1,65.8 295.1,62.5 295.1,60.2 289.5,60.2 289.5,56.1 
			288.5,56.1 288.5,61.2 294.1,61.2 294.1,62.5 294.1,66.8 300.7,66.8 300.7,61.2 306.2,61.2 306.2,56.1 305.2,56.1 		"/>
		<polygon class="st2" points="306.2,54.3 305.6,54.3 306.2,54.3 		"/>
		<rect x="288.5" y="54.3" class="st2" width="1" height="1.9"/>
		<polygon class="st2" points="305.6,54.3 305.2,54.3 305.2,56.1 306.2,56.1 306.2,54.3 		"/>
		<polygon class="st2" points="289.5,88.1 295.1,88.1 295.1,85.8 295.1,82.5 299.7,82.5 299.7,88.1 305.2,88.1 305.2,93.2 
			306.2,93.2 306.2,87.1 300.7,87.1 300.7,81.5 294.1,81.5 294.1,85.8 294.1,87.1 288.5,87.1 288.5,93.2 289.5,93.2 		"/>
		<rect x="288.5" y="93.2" class="st2" width="1" height="0.9"/>
		
			<rect x="305.2" y="93.1" transform="matrix(4.577589e-03 -1 1 4.577589e-03 210.6392 398.857)" class="st2" width="0.9" height="1"/>
		<polygon class="st2" points="345.1,54.3 344.5,54.3 345.1,54.3 		"/>
		<polygon class="st2" points="344.1,60.2 338.6,60.2 338.6,65.8 334,65.8 334,62.5 334,60.2 328.4,60.2 328.4,56.1 327.4,56.1 
			327.4,61.2 333,61.2 333,62.5 333,66.8 339.6,66.8 339.6,61.2 345.1,61.2 345.1,56.1 344.1,56.1 		"/>
		<rect x="327.4" y="54.3" class="st2" width="1" height="0"/>
		<polygon class="st2" points="344.5,54.3 344.1,54.3 344.1,56.1 345.1,56.1 345.1,54.3 		"/>
		<rect x="327.4" y="54.3" class="st2" width="1" height="1.9"/>
		<polygon class="st2" points="328.4,88.1 334,88.1 334,85.8 334,82.5 338.6,82.5 338.6,88.1 344.1,88.1 344.1,93.2 345.1,93.2 
			345.1,87.1 339.6,87.1 339.6,81.5 333,81.5 333,85.8 333,87.1 327.4,87.1 327.4,93.2 328.4,93.2 		"/>
		
			<rect x="344.1" y="93.1" transform="matrix(4.577589e-03 -1 1 4.577589e-03 249.3711 437.7666)" class="st2" width="0.9" height="1"/>
		<rect x="327.4" y="93.2" class="st2" width="1" height="0.9"/>
		<path class="st2" d="M313.3,59.8v5.6h-5.6v5.6H302v7.1h5.6v5.6h5.6v4.9v0.7h7.1v-5.6h5.6v-5.6h5.6v-7.1H326v-5.6h-5.6v-5.6H313.3z
			 M324.6,66.9v5.6h5.6v4.2h-5.6v5.6h-5.6V88h-4.2v-5.6H309v-5.6h-5.6v-4.2h5.6v-5.6h5.6v-5.6h4.2v5.6H324.6z"/>
		<path class="st2" d="M313.4,78.1h7v-7h-0.5v0.5l0-0.5h-6.5V78.1z M314.4,72.2h5v5h-5V72.2z"/>
		<path class="st2" d="M274.4,59.8v5.6h-5.6v5.6h-5.6v7.1h5.6v5.6h5.6v4.9v0.7h7.1v-5.6h5.6v-5.6h5.6v-7.1h-5.6v-5.6h-5.6v-5.6
			H274.4z M285.7,66.9v5.6h5.6v4.2h-5.6v5.6H280V88h-4.2v-5.6h-5.6v-5.6h-5.6v-4.2h5.6v-5.6h5.6v-5.6h4.2v5.6H285.7z"/>
		<path class="st2" d="M273.8,78.1h6.8v-6.8h-0.5v0.5l0-0.5h-6.3V78.1z M274.8,72.2h4.8v4.8h-4.8L274.8,72.2z"/>
		<path class="st2" d="M352.2,59.8v5.6h-5.6v5.6h-5.6v7.1h5.6v5.6h5.6v4.9v0.7h7.1v-5.6h5.6v-5.6h5.6v-7.1h-5.6v-5.6h-5.6v-5.6
			H352.2z M363.5,66.9v5.6h5.6v4.2h-5.6v5.6h-5.6V88h-4.2v-5.6H348v-5.6h-5.6v-4.2h5.6v-5.6h5.6v-5.6h4.2v5.6H363.5z"/>
		<path class="st2" d="M351.6,78.1h6.8v-6.8H358v0.5l0-0.5h-6.3V78.1z M352.6,72.2h4.8v4.8h-4.8L352.6,72.2z"/>
		<rect x="366.3" y="54.3" class="st2" width="1" height="0"/>
		<polygon class="st2" points="383,60.2 377.5,60.2 377.5,65.8 372.9,65.8 372.9,62.5 373,60.2 367.3,60.2 367.3,56.1 366.3,56.1 
			366.3,61.2 371.9,61.2 371.9,62.5 371.9,66.8 378.5,66.8 378.5,61.2 384,61.2 384,56.1 383,56.1 		"/>
		<polygon class="st2" points="384,54.3 383.5,54.3 384,54.3 		"/>
		<polygon class="st2" points="383.5,54.3 383,54.3 383,56.1 384,56.1 384,54.3 		"/>
		<rect x="366.3" y="54.3" class="st2" width="1" height="1.9"/>
		<polygon class="st2" points="367.3,88.1 373,88.1 372.9,85.8 372.9,82.5 377.5,82.5 377.5,88.1 383,88.1 383,93.2 384,93.2 
			384,87.1 378.5,87.1 378.5,81.5 371.9,81.5 371.9,85.8 371.9,87.1 366.3,87.1 366.3,93.2 367.3,93.2 		"/>
		
			<rect x="383" y="93.1" transform="matrix(4.577589e-03 -1 1 4.577589e-03 288.102 476.6754)" class="st2" width="0.9" height="1"/>
		<rect x="366.3" y="93.2" class="st2" width="1" height="0.9"/>
		<polygon class="st2" points="421.9,60.2 416.4,60.2 416.4,65.8 411.8,65.8 411.8,62.5 411.9,60.2 406.2,60.2 406.2,56.1 
			405.2,56.1 405.2,61.2 410.8,61.2 410.8,62.5 410.8,66.8 417.4,66.8 417.4,61.2 422.9,61.2 422.9,56.1 421.9,56.1 		"/>
		<polygon class="st2" points="422.9,54.3 422.4,54.3 422.9,54.3 		"/>
		<rect x="405.2" y="54.3" class="st2" width="1" height="0"/>
		<rect x="405.2" y="54.3" class="st2" width="1" height="1.9"/>
		<polygon class="st2" points="422.4,54.3 421.9,54.3 421.9,56.1 422.9,56.1 422.9,54.3 		"/>
		<polygon class="st2" points="406.2,88.1 411.9,88.1 411.8,85.8 411.8,82.5 416.4,82.5 416.4,88.1 421.9,88.1 421.9,93.2 
			422.9,93.2 422.9,87.1 417.4,87.1 417.4,81.5 410.8,81.5 410.8,85.8 410.8,87.1 405.2,87.1 405.2,93.2 406.2,93.2 		"/>
		
			<rect x="421.9" y="93.1" transform="matrix(4.577589e-03 -1 1 4.577589e-03 326.834 515.5849)" class="st2" width="0.9" height="1"/>
		<rect x="405.2" y="93.2" class="st2" width="1" height="0.9"/>
		<polygon class="st2" points="461.8,54.3 461.3,54.3 461.8,54.3 		"/>
		<polygon class="st2" points="460.8,60.2 455.3,60.2 455.3,65.8 450.7,65.8 450.7,62.5 450.8,60.2 445.2,60.2 445.2,56.1 
			444.2,56.1 444.2,61.2 449.8,61.2 449.7,62.5 449.7,66.8 456.3,66.8 456.3,61.2 461.8,61.2 461.8,56.1 460.8,56.1 		"/>
		<rect x="444.2" y="54.3" class="st2" width="1" height="0"/>
		<polygon class="st2" points="461.3,54.3 460.8,54.3 460.8,56.1 461.8,56.1 461.8,54.3 		"/>
		<rect x="444.2" y="54.3" class="st2" width="1" height="1.9"/>
		<polygon class="st2" points="445.2,88.1 450.8,88.1 450.7,85.8 450.7,82.5 455.3,82.5 455.3,88.1 460.8,88.1 460.8,93.2 
			461.8,93.2 461.8,87.1 456.3,87.1 456.3,81.5 449.7,81.5 449.7,85.8 449.8,87.1 444.2,87.1 444.2,93.2 445.2,93.2 		"/>
		
			<rect x="460.8" y="93.1" transform="matrix(4.577589e-03 -1 1 4.577589e-03 365.5658 554.4944)" class="st2" width="0.9" height="1"/>
		<rect x="444.2" y="93.2" class="st2" width="1" height="0.9"/>
		<path class="st2" d="M430,59.8v5.6h-5.6v5.6h-5.6v7.1h5.6v5.6h5.6v4.9v0.7h7.1v-5.6h5.6v-5.6h5.6v-7.1h-5.6v-5.6h-5.6v-5.6H430z
			 M441.3,66.9v5.6h5.6v4.2h-5.6v5.6h-5.6V88h-4.2v-5.6h-5.6v-5.6h-5.6v-4.2h5.6v-5.6h5.6v-5.6h4.2v5.6H441.3z"/>
		<path class="st2" d="M430.1,78.1h7v-7h-0.5v0.5l0-0.5h-6.5V78.1z M431.1,72.2h5v5h-5V72.2z"/>
		<path class="st2" d="M391.1,59.8v5.6h-5.6v5.6h-5.6v7.1h5.6v5.6h5.6v4.9v0.7h7.1v-5.6h5.6v-5.6h5.6v-7.1h-5.6v-5.6h-5.6v-5.6
			H391.1z M402.4,66.9v5.6h5.6v4.2h-5.6v5.6h-5.6V88h-4.2v-5.6h-5.6v-5.6h-5.6v-4.2h5.6v-5.6h5.6v-5.6h4.2v5.6H402.4z"/>
		<path class="st2" d="M390.6,78.1h6.8v-6.8h-0.5v0.5l0-0.5h-6.3V78.1z M391.6,72.2h4.8v4.8h-4.8L391.6,72.2z"/>
		<path class="st2" d="M468.9,59.8v5.6h-5.6v5.6h-5.6v7.1h5.6v5.6h5.6v4.9v0.7h7.1v-5.6h5.6v-5.6h5.6v-7.1h-5.6v-5.6H476v-5.6H468.9
			z M480.2,66.9v5.6h5.6v4.2h-5.6v5.6h-5.6V88h-4.2v-5.6h-5.6v-5.6H459v-4.2h5.6v-5.6h5.6v-5.6h4.2v5.6H480.2z"/>
		<path class="st2" d="M468.4,78.1h6.8v-6.8h-0.5v0.5l0-0.5h-6.3V78.1z M469.4,72.2h4.8v4.8h-4.8V72.2z"/>
		<polygon class="st2" points="499.7,60.2 494.2,60.2 494.2,65.8 489.6,65.8 489.6,62.5 489.7,60.2 484.1,60.2 484.1,56.1 
			483.1,56.1 483.1,61.2 488.7,61.2 488.6,62.5 488.6,66.8 495.2,66.8 495.2,61.2 500.7,61.2 500.7,56.1 499.7,56.1 		"/>
		<rect x="483.1" y="54.3" class="st2" width="1" height="0"/>
		<polygon class="st2" points="500.7,54.3 500.2,54.3 500.7,54.3 		"/>
		<rect x="483.1" y="54.3" class="st2" width="1" height="1.9"/>
		<polygon class="st2" points="500.2,54.3 499.7,54.3 499.7,56.1 500.7,56.1 500.7,54.3 		"/>
		<polygon class="st2" points="484.1,88.1 489.7,88.1 489.6,85.8 489.6,82.5 494.2,82.5 494.2,88.1 499.7,88.1 499.7,93.2 
			500.7,93.2 500.7,87.1 495.2,87.1 495.2,81.5 488.6,81.5 488.6,85.8 488.7,87.1 483.1,87.1 483.1,93.2 484.1,93.2 		"/>
		<rect x="483.1" y="93.2" class="st2" width="1" height="0.9"/>
		
			<rect x="499.7" y="93.1" transform="matrix(4.577589e-03 -1 1 4.577589e-03 404.2977 593.4041)" class="st2" width="0.9" height="1"/>
		<polygon class="st2" points="538.6,60.2 533.1,60.2 533.1,65.8 528.6,65.8 528.6,62.5 528.6,60.2 523,60.2 523,56.1 522,56.1 
			522,61.2 527.6,61.2 527.6,62.5 527.6,66.8 534.1,66.8 534.1,61.2 539.7,61.2 539.6,56.1 538.6,56.1 		"/>
		<polygon class="st2" points="539.6,54.3 539.1,54.3 539.6,54.3 		"/>
		<rect x="522" y="54.3" class="st2" width="1" height="0"/>
		<polygon class="st2" points="539.1,54.3 538.6,54.3 538.6,56.1 539.6,56.1 539.6,54.3 		"/>
		<rect x="522" y="54.3" class="st2" width="1" height="1.9"/>
		<polygon class="st2" points="523,88.1 528.6,88.1 528.6,85.8 528.6,82.5 533.1,82.5 533.1,88.1 538.6,88.1 538.6,93.2 539.6,93.2 
			539.7,87.1 534.1,87.1 534.1,81.5 527.6,81.5 527.6,85.8 527.6,87.1 522,87.1 522,93.2 523,93.2 		"/>
		
			<rect x="538.7" y="93.1" transform="matrix(4.577589e-03 -1 1 4.577589e-03 443.0296 632.3136)" class="st2" width="0.9" height="1"/>
		<rect x="522" y="93.2" class="st2" width="1" height="0.9"/>
		<polygon class="st2" points="570,66.8 570,65.8 567.5,65.8 567.5,62.5 567.5,60.2 561.9,60.2 561.9,56.1 560.9,56.1 560.9,61.2 
			566.5,61.2 566.5,62.5 566.5,66.8 570,66.8 570,66.8 		"/>
		<rect x="560.9" y="54.3" class="st2" width="1" height="0"/>
		<rect x="560.9" y="54.3" class="st2" width="1" height="1.9"/>
		<polygon class="st2" points="561.9,88.1 567.5,88.1 567.5,85.8 567.5,82.5 570,82.5 570,82.5 570,82.5 570,81.5 566.5,81.5 
			566.5,85.8 566.5,87.1 560.9,87.1 560.9,93.2 561.9,93.2 		"/>
		<rect x="560.9" y="93.2" class="st2" width="1" height="0.9"/>
		<path class="st2" d="M546.7,59.8v5.6h-5.6v5.6h-5.6v7.1h5.6v5.6h5.6v4.9v0.7h7.1v-5.6h5.6v-5.6h5.6v-7.1h-5.6v-5.6h-5.6v-5.6
			H546.7z M558,66.9v5.6h5.6v4.2H558v5.6h-5.6V88h-4.2v-5.6h-5.6v-5.6h-5.6v-4.2h5.6v-5.6h5.6v-5.6h4.2v5.6H558z"/>
		<path class="st2" d="M546.9,78.1h7v-7h-0.5v0.5l0-0.5h-6.5V78.1z M547.9,72.2h5v5h-5V72.2z"/>
		<path class="st2" d="M507.8,59.8v5.6h-5.6v5.6h-5.6v7.1h5.6v5.6h5.6v4.9v0.7h7.1v-5.6h5.6v-5.6h5.6v-7.1h-5.6v-5.6h-5.6v-5.6
			H507.8z M519.1,66.9v5.6h5.6v4.2h-5.6v5.6h-5.6V88h-4.2v-5.6h-5.6v-5.6H498v-4.2h5.6v-5.6h5.6v-5.6h4.2v5.6H519.1z"/>
		<path class="st2" d="M507.3,78.1h6.8v-6.8h-0.5v0.5l0-0.5h-6.3V78.1z M508.3,72.2h4.8v4.8h-4.8V72.2z"/>
		<polygon class="st3" points="573,66.8 572.9,66.8 570,66.8 570,66.8 573,66.8 		"/>
		<polygon class="st3" points="578.5,54.3 578,54.3 578.5,54.3 		"/>
		<polygon class="st3" points="572,60.2 572,65.8 572.4,65.8 572.4,61 572.4,60.5 572.9,60.5 578.2,60.5 578.2,56.1 577.5,56.1 
			577.6,60.2 		"/>
		<polygon class="st3" points="578.2,87.8 572.9,87.8 572.4,87.8 572.4,87.3 572.4,82.5 570,82.5 570,82.5 572,82.5 572,88.1 
			577.6,88.1 577.5,93.2 578.2,93.2 		"/>
		<rect x="591.3" y="82.4" class="st3" width="5" height="0"/>
		<rect x="574.4" y="71.1" class="st3" width="5" height="0"/>
		<polygon class="st3" points="592.1,65.5 597.7,65.5 597.7,71.1 603.4,71.1 603.4,78.2 604,78.2 604,71.1 598.4,71.1 598.4,65.5 
			592.7,65.5 592.7,59.8 585.6,59.8 585.6,59.8 592.1,59.8 		"/>
		<rect x="580.8" y="66.9" class="st3" width="0.6" height="5.6"/>
		<rect x="586.4" y="61.2" class="st3" width="0.6" height="5.6"/>
		<rect x="592.1" y="83.8" class="st3" width="0.6" height="5.6"/>
		<rect x="597.7" y="78.2" class="st3" width="0.6" height="5.6"/>
		<rect x="596.9" y="76.8" class="st3" width="5" height="0"/>
		<rect x="580" y="65.5" class="st3" width="5" height="0"/>
		<polygon class="st3" points="575.1,76.8 580.8,76.8 580.8,82.4 586.4,82.4 586.4,88 590.6,88 590.6,88 587.1,88 587.1,82.4 
			581.4,82.4 581.4,76.8 575.8,76.8 575.8,72.5 575.1,72.5 		"/>
		<polygon class="st3" points="590.9,77.1 586.1,77.1 586.1,77.1 591.1,77.1 591.1,72.2 586.1,72.2 586.1,72.2 590.9,72.2 		"/>
		<polygon class="st3" points="591.6,71.2 591.6,71.2 591.6,71.7 		"/>
		<rect x="585.1" y="71.2" class="st3" width="0" height="6.8"/>
		<rect x="700" y="102" class="st2" width="452" height="2"/>
		<rect x="569" y="102" class="st2" width="1" height="2"/>
		<rect x="595" y="102" class="st2" width="105" height="2"/>
		<rect x="570" y="102" class="st2" width="25" height="2"/>
		<rect x="700" y="45" class="st2" width="453" height="2"/>
		<polygon class="st2" points="700,45 592.9,45 592.9,46.9 570,46.9 570,47 700,47 		"/>
		<rect x="570" y="45" class="st2" width="22.9" height="1.9"/>
		<polygon class="st2" points="888.2,56.1 888.2,54.3 888.6,54.3 872.5,54.3 872.5,56.1 		"/>
		<polygon class="st2" points="811.3,54.3 811.3,56.1 832.6,56.1 832.6,54.3 		"/>
		<polygon class="st2" points="772.4,54.3 772.4,56.1 793.7,56.1 793.7,54.3 		"/>
		<polygon class="st2" points="1004.9,56.1 1004.9,54.3 1005.4,54.3 989.2,54.3 989.2,56.1 		"/>
		<polygon class="st2" points="1043.8,56.1 1043.8,54.3 1044.3,54.3 1028.2,54.3 1028.2,56.1 		"/>
		<polygon class="st2" points="810.3,56.1 810.3,54.3 810.8,54.3 794.7,54.3 794.7,56.1 		"/>
		<polygon class="st2" points="1122.6,54.3 1122.6,56.1 1143.9,56.1 1143.9,54.3 		"/>
		<polygon class="st2" points="1082.7,56.1 1082.7,54.3 1083.2,54.3 1067.1,54.3 1067.1,56.1 		"/>
		<polygon class="st2" points="771.4,56.1 771.4,54.3 771.9,54.3 755.8,54.3 755.8,56.1 		"/>
		<polygon class="st2" points="927.1,56.1 927.1,54.3 927.5,54.3 911.4,54.3 911.4,56.1 		"/>
		<polygon class="st2" points="1083.7,54.3 1083.7,56.1 1105,56.1 1105,54.3 		"/>
		<polygon class="st2" points="889.2,54.3 889.2,56.1 910.4,56.1 910.4,54.3 		"/>
		<polygon class="st2" points="1121.6,56.1 1121.6,54.3 1122.1,54.3 1106,54.3 1106,56.1 		"/>
		<polygon class="st2" points="849.3,56.1 849.3,54.3 849.7,54.3 833.6,54.3 833.6,56.1 		"/>
		<polygon class="st2" points="967,54.3 967,56.1 988.2,56.1 988.2,54.3 		"/>
		<polygon class="st2" points="850.3,54.3 850.3,56.1 871.5,56.1 871.5,54.3 		"/>
		<polygon class="st2" points="1044.8,54.3 1044.8,56.1 1066.1,56.1 1066.1,54.3 		"/>
		<polygon class="st2" points="966,56.1 966,54.3 966.5,54.3 950.3,54.3 950.3,56.1 		"/>
		<polygon class="st2" points="928.1,54.3 928.1,56.1 949.3,56.1 949.3,54.3 		"/>
		<rect x="700" y="54.3" class="st2" width="15.9" height="1.9"/>
		<rect x="1144.9" y="54.3" class="st2" width="8.1" height="1.9"/>
		<polygon class="st2" points="733.5,54.3 733.5,56.1 754.8,56.1 754.8,54.3 		"/>
		<polygon class="st2" points="1005.9,54.3 1005.9,56.1 1027.2,56.1 1027.2,54.3 		"/>
		<polygon class="st2" points="732.5,56.1 732.5,54.3 733,54.3 716.9,54.3 716.9,56.1 		"/>
		<polygon class="st2" points="616.8,54.3 616.8,56.1 638.1,56.1 638.1,54.3 		"/>
		<polygon class="st2" points="694.6,54.3 694.6,56.1 700,56.1 700,54.3 		"/>
		<polygon class="st2" points="654.7,56.1 654.7,54.3 655.2,54.3 639.1,54.3 639.1,56.1 		"/>
		<polygon class="st2" points="693.6,56.1 693.6,54.3 694.1,54.3 678,54.3 678,56.1 		"/>
		<polygon class="st2" points="655.7,54.3 655.7,56.1 677,56.1 677,54.3 		"/>
		<polygon class="st2" points="615.8,56.1 615.8,54.3 616.3,54.3 600.1,54.3 600.1,56.1 		"/>
		<rect x="592.9" y="54.3" class="st2" width="6.3" height="1.9"/>
		<polygon class="st2" points="577.5,56.1 577.5,54.3 578,54.3 570,54.3 570,56.1 		"/>
		<polygon class="st2" points="578.5,54.3 578.5,54.7 579.2,54.7 579.2,56.1 592.9,56.1 592.9,54.3 		"/>
		<polygon class="st2" points="578.2,54.7 578.5,54.7 578.5,54.3 578,54.3 577.5,54.3 577.5,56.1 578.2,56.1 		"/>
		<polygon class="st2" points="1153,93.2 1144.9,93.2 1144.9,94.1 1143.9,94.1 1143.9,93.2 1122.6,93.2 1122.6,94.1 1121.6,94.1 
			1121.6,93.2 1106,93.2 1106,94.1 1105,94.1 1105,93.2 1083.7,93.2 1083.7,94.1 1082.7,94.1 1082.7,93.2 1067.1,93.2 1067.1,94.1 
			1066.1,94.1 1066.1,93.2 1044.8,93.2 1044.8,94.1 1043.8,94.1 1043.8,93.2 1028.2,93.2 1028.2,94.1 1027.2,94.1 1027.2,93.2 
			1005.9,93.2 1005.9,94.1 1004.9,94.1 1004.9,93.2 989.2,93.2 989.2,94.1 988.2,94.1 988.2,93.2 967,93.2 967,94.1 966,94.1 
			966,93.2 950.3,93.2 950.3,94.1 949.3,94.1 949.3,93.2 928.1,93.2 928.1,94.1 927.1,94.1 927.1,93.2 911.4,93.2 911.4,94.1 
			910.4,94.1 910.4,93.2 889.2,93.2 889.2,94.1 888.2,94.1 888.2,93.2 872.5,93.2 872.5,94.1 871.5,94.1 871.5,93.2 850.3,93.2 
			850.3,94.1 849.3,94.1 849.3,93.2 833.6,93.2 833.6,94.1 832.6,94.1 832.6,93.2 811.3,93.2 811.3,94.1 810.3,94.1 810.3,93.2 
			794.7,93.2 794.7,94.1 793.7,94.1 793.7,93.2 772.4,93.2 772.4,94.1 771.4,94.1 771.4,93.2 755.8,93.2 755.8,94.1 754.8,94.1 
			754.8,93.2 733.5,93.2 733.5,94.1 732.5,94.1 732.5,93.2 716.9,93.2 716.9,94.1 715.9,94.1 715.9,93.2 700,93.2 700,95 1153,95 		
			"/>
		<polygon class="st2" points="694.6,93.2 694.6,94.1 693.6,94.1 693.6,93.2 678,93.2 678,94.1 677,94.1 677,93.2 655.7,93.2 
			655.7,94.1 654.7,94.1 654.7,93.2 639.1,93.2 639.1,94.1 638.1,94.1 638.1,93.2 616.8,93.2 616.8,94.1 615.8,94.1 615.8,93.2 
			600.1,93.2 600.1,94.1 599.1,94.1 599.1,93.2 592.9,93.2 592.9,95 700,95 700,93.2 		"/>
		<polygon class="st2" points="592.9,93.2 579.2,93.2 579.2,93.6 578.5,93.6 578.5,94.1 577.5,94.1 577.5,93.2 570,93.2 570,95 
			592.9,95 		"/>
		<polygon class="st2" points="578.2,93.2 577.5,93.2 577.5,94.1 578.5,94.1 578.5,93.6 578.2,93.6 		"/>
		<rect x="598.4" y="78.2" class="st2" width="5" height="0"/>
		<rect x="585" y="59.8" class="st2" width="0.6" height="5.6"/>
		<polygon class="st2" points="579.4,83.8 585,83.8 585,88.7 585,89.5 592.1,89.5 592.1,89.5 585.6,89.5 585.6,88.7 585.6,83.8 
			580,83.8 580,78.2 574.4,78.2 574.4,71.1 573.7,71.1 573.7,78.2 579.4,78.2 		"/>
		<rect x="579.4" y="65.5" class="st2" width="0.6" height="5.6"/>
		<rect x="581.4" y="66.9" class="st2" width="5" height="0"/>
		<polygon class="st2" points="590.6,66.9 596.3,66.9 596.3,72.5 601.9,72.5 601.9,76.8 602.6,76.8 602.6,72.5 596.9,72.5 
			596.9,66.9 591.3,66.9 591.3,61.2 587.1,61.2 587.1,61.2 590.6,61.2 		"/>
		<rect x="575.8" y="72.5" class="st2" width="5" height="0"/>
		<rect x="596.3" y="76.8" class="st2" width="0.6" height="5.6"/>
		<rect x="592.7" y="83.8" class="st2" width="5" height="0"/>
		<rect x="590.6" y="82.4" class="st2" width="0.6" height="5.6"/>
		<path class="st2" d="M580,78.2v5.6h5.6v4.9v0.7h6.4v-5.6h0.6v0h5v-5.6h0.6v0h5v-7.1h-5.6v-5.6h-5.6v-5.6h-6.4v5.6H585v0h-5v5.6
			h-0.6v0h-5v7.1H580z M575.8,72.5h5v-5.6h0.6v0h5v-5.6h0.6v0h4.2v5.6h5.6v5.6h5.6v4.2h-0.6v0h-5v5.6h-0.6v0h-5V88h-0.6v0h-4.2v-5.6
			h-5.6v-5.6h-5.6v-4.2L575.8,72.5L575.8,72.5z"/>
		<polygon class="st2" points="591.9,78.1 585.1,78.1 585.1,78.1 592.1,78.1 592.1,71.2 591.6,71.2 591.6,71.2 591.9,71.2 		"/>
		<rect x="586.1" y="72.2" class="st2" width="0" height="4.8"/>
		<polygon class="st2" points="591.4,71.7 591.4,71.2 591.6,71.2 591.6,71.2 585.1,71.2 585.1,71.2 591.4,71.2 		"/>
		<path class="st2" d="M591.9,78.1v-6.8h-0.4v0.4l0-0.4h-0.1v0.5l0-0.5h-6.3v6.8H591.9z M586.1,72.2h5v5h-5v-0.1h0L586.1,72.2
			L586.1,72.2L586.1,72.2z"/>
		<polygon class="st2" points="616.8,54.3 616.3,54.3 616.8,54.3 		"/>
		<polygon class="st2" points="615.8,60.2 610.3,60.2 610.3,65.8 605.7,65.8 605.7,62.5 605.8,60.2 600.1,60.2 600.1,56.1 
			599.1,56.1 599.1,61.2 604.7,61.2 604.7,62.5 604.7,66.8 611.3,66.8 611.3,61.2 616.8,61.2 616.8,56.1 615.8,56.1 		"/>
		<rect x="599.1" y="54.3" class="st2" width="1" height="0"/>
		<polygon class="st2" points="616.3,54.3 615.8,54.3 615.8,56.1 616.8,56.1 616.8,54.3 		"/>
		<rect x="599.1" y="54.3" class="st2" width="1" height="1.9"/>
		<polygon class="st2" points="600.1,88.1 605.8,88.1 605.7,85.8 605.7,82.5 610.3,82.5 610.3,88.1 615.8,88.1 615.8,93.2 
			616.8,93.2 616.8,87.1 611.3,87.1 611.3,81.5 604.7,81.5 604.7,85.8 604.7,87.1 599.1,87.1 599.1,93.2 600.1,93.2 		"/>
		
			<rect x="615.8" y="93.1" transform="matrix(4.577589e-03 -1 1 4.577589e-03 519.8473 709.4839)" class="st2" width="0.9" height="1"/>
		<rect x="599.1" y="93.2" class="st2" width="1" height="0.9"/>
		<rect x="638.1" y="54.3" class="st2" width="1" height="0"/>
		<polygon class="st2" points="654.7,60.2 649.2,60.2 649.2,65.8 644.6,65.8 644.6,62.5 644.7,60.2 639.1,60.2 639.1,56.1 
			638.1,56.1 638.1,61.2 643.7,61.2 643.6,62.5 643.6,66.8 650.2,66.8 650.2,61.2 655.7,61.2 655.7,56.1 654.7,56.1 		"/>
		<polygon class="st2" points="655.7,54.3 655.2,54.3 655.7,54.3 		"/>
		<polygon class="st2" points="655.2,54.3 654.7,54.3 654.7,56.1 655.7,56.1 655.7,54.3 		"/>
		<rect x="638.1" y="54.3" class="st2" width="1" height="1.9"/>
		<polygon class="st2" points="639.1,88.1 644.7,88.1 644.6,85.8 644.6,82.5 649.2,82.5 649.2,88.1 654.7,88.1 654.7,93.2 
			655.7,93.2 655.7,87.1 650.2,87.1 650.2,81.5 643.6,81.5 643.6,85.8 643.7,87.1 638.1,87.1 638.1,93.2 639.1,93.2 		"/>
		<rect x="638.1" y="93.2" class="st2" width="1" height="0.9"/>
		
			<rect x="654.7" y="93.1" transform="matrix(4.577589e-03 -1 1 4.577589e-03 558.5792 748.3934)" class="st2" width="0.9" height="1"/>
		<polygon class="st2" points="694.6,54.3 694.1,54.3 694.6,54.3 		"/>
		<polygon class="st2" points="693.6,60.2 688.1,60.2 688.1,65.8 683.5,65.8 683.5,62.5 683.6,60.2 678,60.2 678,56.1 677,56.1 
			677,61.2 682.6,61.2 682.5,62.5 682.5,66.8 689.1,66.8 689.1,61.2 694.6,61.2 694.6,56.1 693.6,56.1 		"/>
		<rect x="677" y="54.3" class="st2" width="1" height="0"/>
		<rect x="677" y="54.3" class="st2" width="1" height="1.9"/>
		<polygon class="st2" points="694.1,54.3 693.6,54.3 693.6,56.1 694.6,56.1 694.6,54.3 		"/>
		<polygon class="st2" points="678,88.1 683.6,88.1 683.5,85.8 683.5,82.5 688.1,82.5 688.1,88.1 693.6,88.1 693.6,93.2 694.6,93.2 
			694.6,87.1 689.1,87.1 689.1,81.5 682.5,81.5 682.5,85.8 682.6,87.1 677,87.1 677,93.2 678,93.2 		"/>
		
			<rect x="693.7" y="93.1" transform="matrix(4.577589e-03 -1 1 4.577589e-03 597.3111 787.303)" class="st2" width="0.9" height="1"/>
		<rect x="677" y="93.2" class="st2" width="1" height="0.9"/>
		<path class="st2" d="M657.2,83.8h5.6v4.9v0.7h7.1v-5.6h5.6v-5.6h5.6v-7.1h-5.6v-5.6h-5.6v-5.6h-7.1v5.6h-5.6v5.6h-5.6v7.1h5.6
			V83.8z M652.9,76.8v-4.2h5.6v-5.6h5.6v-5.6h4.2v5.6h5.6v5.6h5.6v4.2h-5.6v5.6h-5.6V88h-4.2v-5.6h-5.6v-5.6H652.9z"/>
		<path class="st2" d="M669.9,71.2h-0.5v0.5l0-0.5h-6.5v7h7V71.2z M668.9,77.1h-5v-5h5V77.1z"/>
		<path class="st2" d="M618.3,83.8h5.6v4.9v0.7h7.1v-5.6h5.6v-5.6h5.6v-7.1h-5.6v-5.6H631v-5.6h-7.1v5.6h-5.6v5.6h-5.6v7.1h5.6V83.8
			z M614,76.8v-4.2h5.6v-5.6h5.6v-5.6h4.2v5.6h5.6v5.6h5.6v4.2h-5.6v5.6h-5.6V88h-4.2v-5.6h-5.6v-5.6H614z"/>
		<path class="st2" d="M630.2,71.2h-0.5v0.5l0-0.5h-6.3v6.8h6.8V71.2z M629.2,77.1h-4.8v-4.8h4.8V77.1z"/>
		<polygon class="st2" points="701.7,88.7 701.7,89.5 708.8,89.5 708.8,83.8 714.4,83.8 714.4,78.2 720.1,78.2 720.1,71.1 
			714.4,71.1 714.4,65.5 708.8,65.5 708.8,59.8 701.7,59.8 701.7,65.5 700,65.5 700,66.9 703.1,66.9 703.1,61.2 707.4,61.2 
			707.4,66.9 713,66.9 713,72.5 718.7,72.5 718.7,76.8 713,76.8 713,82.4 707.4,82.4 707.4,88 703.1,88 703.1,82.4 700,82.4 
			700,83.8 701.7,83.8 		"/>
		<polygon class="st2" points="697.5,82.4 697.5,76.8 691.9,76.8 691.9,72.5 697.5,72.5 697.5,66.9 700,66.9 700,65.5 696.1,65.5 
			696.1,71.1 690.4,71.1 690.4,78.2 696.1,78.2 696.1,83.8 700,83.8 700,82.4 		"/>
		<path class="st2" d="M708,78.1v-6.8h-0.5v0.5l0-0.5h-6.3v6.8H708z M702.2,72.2h4.8v4.8h-4.8L702.2,72.2z"/>
		<polygon class="st2" points="733.5,54.3 733,54.3 733.5,54.3 		"/>
		<rect x="715.9" y="54.3" class="st2" width="1" height="0"/>
		<polygon class="st2" points="732.5,60.2 727,60.2 727,65.8 722.5,65.8 722.5,62.5 722.5,60.2 716.9,60.2 716.9,56.1 715.9,56.1 
			715.9,61.2 721.5,61.2 721.5,62.5 721.5,66.8 728,66.8 728,61.2 733.6,61.2 733.5,56.1 732.5,56.1 		"/>
		<rect x="715.9" y="54.3" class="st2" width="1" height="1.9"/>
		<polygon class="st2" points="733,54.3 732.5,54.3 732.5,56.1 733.5,56.1 733.5,54.3 		"/>
		<polygon class="st2" points="728,87.1 728,81.5 721.5,81.5 721.5,85.8 721.5,87.1 715.9,87.1 715.9,93.2 716.9,93.2 716.9,88.1 
			722.5,88.1 722.5,85.8 722.5,82.5 727,82.5 727,88.1 732.5,88.1 732.5,93.2 733.5,93.2 733.6,87.1 		"/>
		<rect x="715.9" y="93.2" class="st2" width="1" height="0.9"/>
		
			<rect x="732.6" y="93.1" transform="matrix(4.577589e-03 -1 1 4.577589e-03 636.0429 826.2126)" class="st2" width="0.9" height="1"/>
		<polygon class="st2" points="772.4,54.3 771.9,54.3 772.4,54.3 		"/>
		<polygon class="st2" points="771.5,60.2 765.9,60.2 765.9,65.8 761.4,65.8 761.4,62.5 761.4,60.2 755.8,60.2 755.8,56.1 
			754.8,56.1 754.8,61.2 760.4,61.2 760.4,62.5 760.4,66.8 766.9,66.8 766.9,61.2 772.5,61.2 772.4,56.1 771.4,56.1 		"/>
		<rect x="754.8" y="54.3" class="st2" width="1" height="0"/>
		<polygon class="st2" points="771.9,54.3 771.4,54.3 771.4,56.1 772.4,56.1 772.4,54.3 		"/>
		<rect x="754.8" y="54.3" class="st2" width="1" height="1.9"/>
		<polygon class="st2" points="766.9,87.1 766.9,81.5 760.4,81.5 760.4,85.8 760.4,87.1 754.8,87.1 754.8,93.2 755.8,93.2 
			755.8,88.1 761.4,88.1 761.4,85.8 761.4,82.5 765.9,82.5 765.9,88.1 771.5,88.1 771.4,93.2 772.4,93.2 772.5,87.1 		"/>
		
			<rect x="771.5" y="93.1" transform="matrix(4.577589e-03 -1 1 4.577589e-03 674.7749 865.1222)" class="st2" width="0.9" height="1"/>
		<rect x="754.8" y="93.2" class="st2" width="1" height="0.9"/>
		<rect x="793.7" y="54.3" class="st2" width="1" height="0"/>
		<polygon class="st2" points="811.3,54.3 810.8,54.3 811.3,54.3 		"/>
		<polygon class="st2" points="810.4,60.2 804.9,60.2 804.9,65.8 800.3,65.8 800.3,62.5 800.3,60.2 794.7,60.2 794.7,56.1 
			793.7,56.1 793.7,61.2 799.3,61.2 799.3,62.5 799.3,66.8 805.9,66.8 805.9,61.2 811.4,61.2 811.3,56.1 810.3,56.1 		"/>
		<polygon class="st2" points="810.8,54.3 810.3,54.3 810.3,56.1 811.3,56.1 811.3,54.3 		"/>
		<rect x="793.7" y="54.3" class="st2" width="1" height="1.9"/>
		<polygon class="st2" points="805.9,87.1 805.9,81.5 799.3,81.5 799.3,85.8 799.3,87.1 793.7,87.1 793.7,93.2 794.7,93.2 
			794.7,88.1 800.3,88.1 800.3,85.8 800.3,82.5 804.9,82.5 804.9,88.1 810.4,88.1 810.3,93.2 811.3,93.2 811.4,87.1 		"/>
		
			<rect x="810.4" y="93.1" transform="matrix(4.577589e-03 -1 1 4.577589e-03 713.5067 904.0317)" class="st2" width="0.9" height="1"/>
		<rect x="793.7" y="93.2" class="st2" width="1" height="0.9"/>
		<path class="st2" d="M773.9,83.8h5.6v4.9v0.7h7.1v-5.6h5.6v-5.6h5.6v-7.1h-5.6v-5.6h-5.6v-5.6h-7.1v5.6h-5.6v5.6h-5.6v7.1h5.6
			V83.8z M769.7,76.8v-4.2h5.6v-5.6h5.6v-5.6h4.2v5.6h5.6v5.6h5.6v4.2h-5.6v5.6h-5.6V88H781v-5.6h-5.6v-5.6H769.7z"/>
		<path class="st2" d="M786.6,71.2h-0.5v0.5l0-0.5h-6.5v7h7V71.2z M785.6,77.1h-5v-5h5V77.1z"/>
		<path class="st2" d="M735,83.8h5.6v4.9v0.7h7.1v-5.6h5.6v-5.6h5.6v-7.1h-5.6v-5.6h-5.6v-5.6h-7.1v5.6H735v5.6h-5.6v7.1h5.6V83.8z
			 M730.8,76.8v-4.2h5.6v-5.6h5.6v-5.6h4.2v5.6h5.6v5.6h5.6v4.2h-5.6v5.6h-5.6V88h-4.2v-5.6h-5.6v-5.6H730.8z"/>
		<path class="st2" d="M746.9,71.2h-0.5v0.5l0-0.5h-6.3v6.8h6.8V71.2z M745.9,77.1h-4.8l0-4.8h4.8V77.1z"/>
		<path class="st2" d="M812.8,83.8h5.6v4.9v0.7h7.1v-5.6h5.6v-5.6h5.6v-7.1h-5.6v-5.6h-5.6v-5.6h-7.1v5.6h-5.6v5.6h-5.6v7.1h5.6
			V83.8z M808.6,76.8v-4.2h5.6v-5.6h5.6v-5.6h4.2v5.6h5.6v5.6h5.6v4.2h-5.6v5.6h-5.6V88h-4.2v-5.6h-5.6v-5.6H808.6z"/>
		<path class="st2" d="M824.7,71.2h-0.5v0.5l0-0.5h-6.3v6.8h6.8V71.2z M823.7,77.1h-4.8l0-4.8h4.8V77.1z"/>
		<polygon class="st2" points="850.3,54.3 849.7,54.3 850.3,54.3 		"/>
		<polygon class="st2" points="849.3,60.2 843.8,60.2 843.8,65.8 839.2,65.8 839.2,62.5 839.2,60.2 833.6,60.2 833.6,56.1 
			832.6,56.1 832.6,61.2 838.2,61.2 838.2,62.5 838.2,66.8 844.8,66.8 844.8,61.2 850.3,61.2 850.3,56.1 849.3,56.1 		"/>
		<rect x="832.6" y="54.3" class="st2" width="1" height="0"/>
		<polygon class="st2" points="849.7,54.3 849.3,54.3 849.3,56.1 850.3,56.1 850.3,54.3 		"/>
		<rect x="832.6" y="54.3" class="st2" width="1" height="1.9"/>
		<polygon class="st2" points="844.8,87.1 844.8,81.5 838.2,81.5 838.2,85.8 838.2,87.1 832.6,87.1 832.6,93.2 833.6,93.2 
			833.6,88.1 839.2,88.1 839.2,85.8 839.2,82.5 843.8,82.5 843.8,88.1 849.3,88.1 849.3,93.2 850.3,93.2 850.3,87.1 		"/>
		
			<rect x="849.3" y="93.1" transform="matrix(4.577589e-03 -1 1 4.577589e-03 752.2385 942.9413)" class="st2" width="0.9" height="1"/>
		<rect x="832.6" y="93.2" class="st2" width="1" height="0.9"/>
		<polygon class="st2" points="888.2,60.2 882.7,60.2 882.7,65.8 878.1,65.8 878.1,62.5 878.1,60.2 872.5,60.2 872.5,56.1 
			871.5,56.1 871.5,61.2 877.1,61.2 877.1,62.5 877.1,66.8 883.7,66.8 883.7,61.2 889.2,61.2 889.2,56.1 888.2,56.1 		"/>
		<polygon class="st2" points="889.2,54.3 888.6,54.3 889.2,54.3 		"/>
		<rect x="871.5" y="54.3" class="st2" width="1" height="0"/>
		<rect x="871.5" y="54.3" class="st2" width="1" height="1.9"/>
		<polygon class="st2" points="888.6,54.3 888.2,54.3 888.2,56.1 889.2,56.1 889.2,54.3 		"/>
		<polygon class="st2" points="883.7,87.1 883.7,81.5 877.1,81.5 877.1,85.8 877.1,87.1 871.5,87.1 871.5,93.2 872.5,93.2 
			872.5,88.1 878.1,88.1 878.1,85.8 878.1,82.5 882.7,82.5 882.7,88.1 888.2,88.1 888.2,93.2 889.2,93.2 889.2,87.1 		"/>
		
			<rect x="888.2" y="93.1" transform="matrix(4.577589e-03 -1 1 4.577589e-03 790.9705 981.8509)" class="st2" width="0.9" height="1"/>
		<rect x="871.5" y="93.2" class="st2" width="1" height="0.9"/>
		<polygon class="st2" points="927.1,60.2 921.6,60.2 921.6,65.8 917,65.8 917,62.5 917,60.2 911.4,60.2 911.4,56.1 910.4,56.1 
			910.4,61.2 916,61.2 916,62.5 916,66.8 922.6,66.8 922.6,61.2 928.1,61.2 928.1,56.1 927.1,56.1 		"/>
		<polygon class="st2" points="928.1,54.3 927.5,54.3 928.1,54.3 		"/>
		<rect x="910.4" y="54.3" class="st2" width="1" height="0"/>
		<polygon class="st2" points="927.5,54.3 927.1,54.3 927.1,56.1 928.1,56.1 928.1,54.3 		"/>
		<rect x="910.4" y="54.3" class="st2" width="1" height="1.9"/>
		<polygon class="st2" points="922.6,87.1 922.6,81.5 916,81.5 916,85.8 916,87.1 910.4,87.1 910.4,93.2 911.4,93.2 911.4,88.1 
			917,88.1 917,85.8 917,82.5 921.6,82.5 921.6,88.1 927.1,88.1 927.1,93.2 928.1,93.2 928.1,87.1 		"/>
		
			<rect x="927.1" y="93.1" transform="matrix(4.577589e-03 -1 1 4.577589e-03 829.7023 1020.7605)" class="st2" width="0.9" height="1"/>
		<rect x="910.4" y="93.2" class="st2" width="1" height="0.9"/>
		<path class="st2" d="M890.6,83.8h5.6v4.9v0.7h7.1v-5.6h5.6v-5.6h5.6v-7.1H909v-5.6h-5.6v-5.6h-7.1v5.6h-5.6v5.6H885v7.1h5.6V83.8z
			 M886.4,76.8v-4.2h5.6v-5.6h5.6v-5.6h4.2v5.6h5.6v5.6h5.6v4.2h-5.6v5.6h-5.6V88h-4.2v-5.6H892v-5.6H886.4z"/>
		<path class="st2" d="M903.4,71.2h-0.5v0.5l0-0.5h-6.5v7h7V71.2z M902.4,77.1h-5v-5h5V77.1z"/>
		<path class="st2" d="M851.7,83.8h5.6v4.9v0.7h7.1v-5.6h5.6v-5.6h5.6v-7.1h-5.6v-5.6h-5.6v-5.6h-7.1v5.6h-5.6v5.6h-5.6v7.1h5.6
			V83.8z M847.5,76.8v-4.2h5.6v-5.6h5.6v-5.6h4.2v5.6h5.6v5.6h5.6v4.2h-5.6v5.6H863V88h-4.2v-5.6h-5.6v-5.6H847.5z"/>
		<path class="st2" d="M863.7,71.2h-0.5v0.5l0-0.5h-6.3v6.8h6.8V71.2z M862.7,77.1h-4.8l0-4.8h4.8V77.1z"/>
		<path class="st2" d="M929.5,83.8h5.6v4.9v0.7h7.1v-5.6h5.6v-5.6h5.6v-7.1h-5.6v-5.6h-5.6v-5.6h-7.1v5.6h-5.6v5.6h-5.6v7.1h5.6
			V83.8z M925.3,76.8v-4.2h5.6v-5.6h5.6v-5.6h4.2v5.6h5.6v5.6h5.6v4.2h-5.6v5.6h-5.6V88h-4.2v-5.6H931v-5.6H925.3z"/>
		<path class="st2" d="M941.5,71.2H941v0.5l0-0.5h-6.3v6.8h6.8V71.2z M940.5,77.1h-4.8l0-4.8h4.8V77.1z"/>
		<polygon class="st2" points="966,60.2 960.5,60.2 960.5,65.8 955.9,65.8 955.9,62.5 956,60.2 950.3,60.2 950.3,56.1 949.3,56.1 
			949.3,61.2 954.9,61.2 954.9,62.5 954.9,66.8 961.5,66.8 961.5,61.2 967,61.2 967,56.1 966,56.1 		"/>
		<polygon class="st2" points="967,54.3 966.5,54.3 967,54.3 		"/>
		<rect x="949.3" y="54.3" class="st2" width="1" height="0"/>
		<polygon class="st2" points="966.5,54.3 966,54.3 966,56.1 967,56.1 967,54.3 		"/>
		<rect x="949.3" y="54.3" class="st2" width="1" height="1.9"/>
		<polygon class="st2" points="961.5,87.1 961.5,81.5 954.9,81.5 954.9,85.8 954.9,87.1 949.3,87.1 949.3,93.2 950.3,93.2 
			950.3,88.1 956,88.1 955.9,85.8 955.9,82.5 960.5,82.5 960.5,88.1 966,88.1 966,93.2 967,93.2 967,87.1 		"/>
		
			<rect x="966" y="93.1" transform="matrix(4.577589e-03 -1 1 4.577589e-03 868.4332 1059.6692)" class="st2" width="0.9" height="1"/>
		<rect x="949.3" y="93.2" class="st2" width="1" height="0.9"/>
		<polygon class="st2" points="1004.9,60.2 999.4,60.2 999.4,65.8 994.8,65.8 994.8,62.5 994.9,60.2 989.2,60.2 989.2,56.1 
			988.2,56.1 988.2,61.2 993.8,61.2 993.8,62.5 993.8,66.8 1000.4,66.8 1000.4,61.2 1005.9,61.2 1005.9,56.1 1004.9,56.1 		"/>
		<rect x="988.2" y="54.3" class="st2" width="1" height="0"/>
		<polygon class="st2" points="1005.9,54.3 1005.4,54.3 1005.9,54.3 		"/>
		<rect x="988.2" y="54.3" class="st2" width="1" height="1.9"/>
		<polygon class="st2" points="1005.4,54.3 1004.9,54.3 1004.9,56.1 1005.9,56.1 1005.9,54.3 		"/>
		<polygon class="st2" points="1000.4,87.1 1000.4,81.5 993.8,81.5 993.8,85.8 993.8,87.1 988.2,87.1 988.2,93.2 989.2,93.2 
			989.2,88.1 994.9,88.1 994.8,85.8 994.8,82.5 999.4,82.5 999.4,88.1 1004.9,88.1 1004.9,93.2 1005.9,93.2 1005.9,87.1 		"/>
		
			<rect x="1004.9" y="93.1" transform="matrix(4.577589e-03 -1 1 4.577589e-03 907.1652 1098.5787)" class="st2" width="0.9" height="1"/>
		<rect x="988.2" y="93.2" class="st2" width="1" height="0.9"/>
		<polygon class="st2" points="1043.8,60.2 1038.3,60.2 1038.3,65.8 1033.7,65.8 1033.7,62.5 1033.8,60.2 1028.2,60.2 1028.2,56.1 
			1027.2,56.1 1027.2,61.2 1032.8,61.2 1032.7,62.5 1032.7,66.8 1039.3,66.8 1039.3,61.2 1044.8,61.2 1044.8,56.1 1043.8,56.1 		"/>
		<polygon class="st2" points="1044.8,54.3 1044.3,54.3 1044.8,54.3 		"/>
		<rect x="1027.2" y="54.3" class="st2" width="1" height="0"/>
		<polygon class="st2" points="1044.3,54.3 1043.8,54.3 1043.8,56.1 1044.8,56.1 1044.8,54.3 		"/>
		<rect x="1027.2" y="54.3" class="st2" width="1" height="1.9"/>
		<polygon class="st2" points="1039.3,87.1 1039.3,81.5 1032.7,81.5 1032.7,85.8 1032.8,87.1 1027.2,87.1 1027.2,93.2 1028.2,93.2 
			1028.2,88.1 1033.8,88.1 1033.7,85.8 1033.7,82.5 1038.3,82.5 1038.3,88.1 1043.8,88.1 1043.8,93.2 1044.8,93.2 1044.8,87.1 		"/>
		<rect x="1027.2" y="93.2" class="st2" width="1" height="0.9"/>
		
			<rect x="1043.8" y="93.1" transform="matrix(4.577589e-03 -1 1 4.577589e-03 945.8971 1137.4884)" class="st2" width="0.9" height="1"/>
		<path class="st2" d="M1007.4,83.8h5.7v4.9v0.7h7.1v-5.6h5.6v-5.6h5.6v-7.1h-5.6v-5.6h-5.6v-5.6h-7.1v5.6h-5.7v5.6h-5.6v7.1h5.6
			V83.8z M1003.1,76.8v-4.2h5.7v-5.6h5.6v-5.6h4.2v5.6h5.7v5.6h5.6v4.2h-5.6v5.6h-5.7V88h-4.2v-5.6h-5.6v-5.6H1003.1z"/>
		<path class="st2" d="M1020.1,71.2h-0.5h-6.5v7h7V71.2z M1019.1,77.1h-5v-5h5V77.1z"/>
		<path class="st2" d="M968.5,83.8h5.6v4.9v0.7h7.1v-5.6h5.6v-5.6h5.6v-7.1h-5.6v-5.6h-5.6v-5.6h-7.1v5.6h-5.6v5.6h-5.6v7.1h5.6
			V83.8z M964.2,76.8v-4.2h5.6v-5.6h5.6v-5.6h4.2v5.6h5.6v5.6h5.6v4.2h-5.6v5.6h-5.6V88h-4.2v-5.6h-5.6v-5.6H964.2z"/>
		<path class="st2" d="M980.4,71.2h-0.5v0.5l0-0.5h-6.3v6.8h6.8V71.2z M979.4,77.1h-4.8l0-4.8h4.8V77.1z"/>
		<path class="st2" d="M1046.3,83.8h5.7v4.9v0.7h7.1v-5.6h5.6v-5.6h5.7v-7.1h-5.7v-5.6h-5.6v-5.6h-7.1v5.6h-5.7v5.6h-5.7v7.1h5.7
			V83.8z M1042,76.8v-4.2h5.6v-5.6h5.6v-5.6h4.2v5.6h5.6v5.6h5.6v4.2h-5.6v5.6h-5.6V88h-4.2v-5.6h-5.6v-5.6H1042z"/>
		<path class="st2" d="M1058.2,71.2h-0.5h-6.3v6.8h6.8V71.2z M1057.2,77.1h-4.8v-4.8h4.8V77.1z"/>
		<polygon class="st2" points="1083.7,54.3 1083.2,54.3 1083.7,54.3 		"/>
		<polygon class="st2" points="1082.7,60.2 1077.2,60.2 1077.2,65.8 1072.6,65.8 1072.6,62.5 1072.7,60.2 1067.1,60.2 1067.1,56.1 
			1066.1,56.1 1066.1,61.2 1071.7,61.2 1071.6,62.5 1071.6,66.8 1078.2,66.8 1078.2,61.2 1083.7,61.2 1083.7,56.1 1082.7,56.1 		"/>
		<rect x="1066.1" y="54.3" class="st2" width="1" height="0"/>
		<polygon class="st2" points="1083.2,54.3 1082.7,54.3 1082.7,56.1 1083.7,56.1 1083.7,54.3 		"/>
		<rect x="1066.1" y="54.3" class="st2" width="1" height="1.9"/>
		<polygon class="st2" points="1078.2,87.1 1078.2,81.5 1071.6,81.5 1071.6,85.8 1071.7,87.1 1066.1,87.1 1066.1,93.2 1067.1,93.2 
			1067.1,88.1 1072.7,88.1 1072.6,85.8 1072.6,82.5 1077.2,82.5 1077.2,88.1 1082.7,88.1 1082.7,93.2 1083.7,93.2 1083.7,87.1 		"/>
		<rect x="1066.1" y="93.2" class="st2" width="1" height="0.9"/>
		
			<rect x="1082.7" y="93.1" transform="matrix(4.577589e-03 -1 1 4.577589e-03 984.6288 1176.3979)" class="st2" width="0.9" height="1"/>
		<rect x="1105" y="54.3" class="st2" width="1" height="0"/>
		<polygon class="st2" points="1121.7,60.2 1116.1,60.2 1116.1,65.8 1111.6,65.8 1111.6,62.5 1111.6,60.2 1106,60.2 1106,56.1 
			1105,56.1 1105,61.2 1110.6,61.2 1110.6,62.5 1110.6,66.8 1117.1,66.8 1117.1,61.2 1122.7,61.2 1122.6,56.1 1121.6,56.1 		"/>
		<polygon class="st2" points="1122.6,54.3 1122.1,54.3 1122.6,54.3 		"/>
		<polygon class="st2" points="1122.1,54.3 1121.6,54.3 1121.6,56.1 1122.6,56.1 1122.6,54.3 		"/>
		<rect x="1105" y="54.3" class="st2" width="1" height="1.9"/>
		<polygon class="st2" points="1117.1,87.1 1117.1,81.5 1110.6,81.5 1110.6,85.8 1110.6,87.1 1105,87.1 1105,93.2 1106,93.2 
			1106,88.1 1111.6,88.1 1111.6,85.8 1111.6,82.5 1116.1,82.5 1116.1,88.1 1121.7,88.1 1121.6,93.2 1122.6,93.2 1122.7,87.1 		"/>
		
			<rect x="1121.7" y="93.1" transform="matrix(4.577589e-03 -1 1 4.577589e-03 1023.3608 1215.3075)" class="st2" width="0.9" height="1"/>
		<rect x="1105" y="93.2" class="st2" width="1" height="0.9"/>
		<rect x="1143.9" y="54.3" class="st2" width="1" height="0"/>
		<polygon class="st2" points="1153,66.8 1153,65.8 1150.5,65.8 1150.5,62.5 1150.5,60.2 1144.9,60.2 1144.9,56.1 1143.9,56.1 
			1143.9,61.2 1149.5,61.2 1149.5,62.5 1149.5,66.8 1153,66.8 1153,66.8 		"/>
		<rect x="1143.9" y="54.3" class="st2" width="1" height="1.9"/>
		<polygon class="st2" points="1150.5,88.1 1150.5,85.8 1150.5,82.5 1153,82.5 1153,82.5 1153,82.5 1153,81.5 1149.5,81.5 
			1149.5,85.8 1149.5,87.1 1143.9,87.1 1143.9,93.2 1144.9,93.2 1144.9,88.1 		"/>
		<rect x="1143.9" y="93.2" class="st2" width="1" height="0.9"/>
		<path class="st2" d="M1124.1,83.8h5.6v4.9v0.7h7.1v-5.6h5.6v-5.6h5.7v-7.1h-5.7v-5.6h-5.6v-5.6h-7.1v5.6h-5.6v5.6h-5.7v7.1h5.7
			V83.8z M1119.9,76.8v-4.2h5.7v-5.6h5.6v-5.6h4.2v5.6h5.7v5.6h5.6v4.2h-5.6v5.6h-5.7V88h-4.2v-5.6h-5.6v-5.6H1119.9z"/>
		<path class="st2" d="M1136.8,71.2h-0.5h-6.5v7h7V71.2z M1135.8,77.1h-5v-5h5V77.1z"/>
		<path class="st2" d="M1085.2,83.8h5.6v4.9v0.7h7.1v-5.6h5.6v-5.6h5.7v-7.1h-5.7v-5.6h-5.6v-5.6h-7.1v5.6h-5.6v5.6h-5.7v7.1h5.7
			V83.8z M1080.9,76.8v-4.2h5.7v-5.6h5.6v-5.6h4.2v5.6h5.7v5.6h5.6v4.2h-5.6v5.6h-5.7V88h-4.2v-5.6h-5.6v-5.6H1080.9z"/>
		<path class="st2" d="M1097.1,71.2h-0.5h-6.3v6.8h6.8V71.2z M1096.1,77.1h-4.8v-4.8h4.8V77.1z"/>
		<rect x="570" y="65.8" class="st2" width="0" height="0"/>
		<rect x="570" y="65.8" class="st2" width="0" height="1"/>
		<polygon class="st2" points="578.6,61.2 573,61.2 573,66.8 573.4,66.8 573.4,66.3 573.4,61.5 578.7,61.5 579.2,61.5 579.2,61 
			579.2,56.1 578.5,56.1 		"/>
		<rect x="570" y="65.8" class="st2" width="2" height="0"/>
		<polygon class="st2" points="578.6,61.2 578.5,56.1 578.2,56.1 578.2,60.5 572.9,60.5 572.4,60.5 572.4,61 572.4,65.8 572,65.8 
			572,65.8 570,65.8 570,66.8 572.9,66.8 573,66.8 573,61.2 		"/>
		
			<rect x="578.5" y="54.7" transform="matrix(1 -4.565780e-03 4.565780e-03 1 -0.2469 2.6435)" class="st2" width="0.6" height="1.5"/>
		<rect x="578.2" y="54.7" class="st2" width="0.4" height="1.5"/>
		<rect x="570" y="81.5" class="st2" width="0" height="0"/>
		<rect x="570" y="81.5" class="st2" width="0" height="1"/>
		<polygon class="st2" points="573,81.5 573,87.1 578.6,87.1 578.5,93.2 579.2,93.2 579.2,87.3 579.2,86.8 578.7,86.8 573.4,86.8 
			573.4,82 573.4,81.5 572.9,81.5 570,81.5 570,81.5 		"/>
		<polygon class="st2" points="572.4,87.3 572.4,87.8 572.9,87.8 578.2,87.8 578.2,93.2 578.5,93.2 578.6,87.1 573,87.1 573,81.5 
			570,81.5 570,82.5 572.4,82.5 		"/>
		
			<rect x="578.6" y="93.1" transform="matrix(4.864498e-03 -1 1 4.864498e-03 482.6347 671.7958)" class="st2" width="0.5" height="0.6"/>
		
			<rect x="578.1" y="93.2" transform="matrix(4.973160e-03 -1 1 4.973160e-03 482.0756 671.2841)" class="st2" width="0.5" height="0.4"/>
		<rect x="1169.1" y="72.2" class="st3" width="4.8" height="4.8"/>
		<rect x="1207.4" y="72.2" class="st3" width="4.8" height="4.8"/>
		<rect x="1246.9" y="72.2" class="st3" width="5" height="5"/>
		<polygon class="st3" points="1161.5,54.3 1161,54.3 1161.5,54.3 		"/>
		<polygon class="st3" points="1153,66.8 1153,66.8 1156,66.8 1156,66.8 1155.9,66.8 		"/>
		<polygon class="st3" points="1155,60.2 1155,65.8 1155.4,65.8 1155.4,61 1155.4,60.5 1155.9,60.5 1161.2,60.5 1161.2,56.1 
			1160.5,56.1 1160.6,60.2 		"/>
		<polygon class="st3" points="1161.2,87.8 1155.9,87.8 1155.4,87.8 1155.4,87.3 1155.4,82.5 1153,82.5 1153,82.5 1155,82.5 
			1155,88.1 1160.6,88.1 1160.5,93.2 1161.2,93.2 		"/>
		<rect x="1174.3" y="82.4" class="st3" width="5" height="0"/>
		<rect x="1163.8" y="66.9" class="st3" width="0.7" height="5.6"/>
		<polygon class="st3" points="1170.1,82.4 1164.4,82.4 1164.4,76.8 1158.8,76.8 1158.8,72.5 1158.1,72.5 1158.1,76.8 1163.8,76.8 
			1163.8,82.4 1169.4,82.4 1169.4,88 1173.6,88 1173.6,88 1170.1,88 		"/>
		<rect x="1169.4" y="61.2" class="st3" width="0.6" height="5.6"/>
		<rect x="1163" y="65.5" class="st3" width="5" height="0"/>
		<rect x="1157.3" y="71.1" class="st3" width="5" height="0"/>
		<rect x="1175.1" y="83.8" class="st3" width="0.6" height="5.6"/>
		<rect x="1180.7" y="78.2" class="st3" width="0.6" height="5.6"/>
		<rect x="1179.9" y="76.8" class="st3" width="5" height="0"/>
		<rect x="1168.1" y="71.2" class="st3" width="0" height="6.8"/>
		<polygon class="st3" points="1169.1,72.2 1173.9,72.2 1173.9,77.1 1169.1,77.1 1169.1,77.1 1174.1,77.1 1174.1,72.2 1169.1,72.2 
					"/>
		<polyline class="st2" points="1425.2,102 1283,102 1283,104 1425.1,104 		"/>
		<rect x="1152" y="102" class="st2" width="1" height="2"/>
		<rect x="1178" y="102" class="st2" width="105" height="2"/>
		<rect x="1153" y="102" class="st2" width="25" height="2"/>
		<polyline class="st2" points="1424.4,45 1283,45 1283,47 1424.4,47 		"/>
		<rect x="1176" y="45" class="st2" width="107" height="2"/>
		<rect x="1153" y="45" class="st2" width="23" height="2"/>
		<polygon class="st2" points="1337.8,56.1 1337.8,54.3 1316.5,54.3 1316.5,56.1 		"/>
		<polygon class="st2" points="1315.5,56.1 1315.5,54.3 1316,54.3 1299.9,54.3 1299.9,56.1 		"/>
		<polygon class="st2" points="1354.4,56.1 1354.4,54.3 1354.9,54.3 1338.8,54.3 1338.8,56.1 		"/>
		<polyline class="st2" points="1424.4,54.3 1416.6,54.3 1416.6,56.1 1424.4,56.1 		"/>
		<polygon class="st2" points="1415.6,56.1 1415.6,54.3 1394.3,54.3 1394.3,56.1 		"/>
		<polygon class="st2" points="1376.7,56.1 1376.7,54.3 1355.4,54.3 1355.4,56.1 		"/>
		<polygon class="st2" points="1393.3,56.1 1393.3,54.3 1393.8,54.3 1377.7,54.3 1377.7,56.1 		"/>
		<rect x="1283" y="54.3" class="st2" width="15.9" height="1.9"/>
		<polygon class="st2" points="1198.8,56.1 1198.8,54.3 1199.3,54.3 1183.2,54.3 1183.2,56.1 		"/>
		<rect x="1175.9" y="54.3" class="st2" width="6.3" height="1.9"/>
		<polygon class="st2" points="1221.1,56.1 1221.1,54.3 1199.8,54.3 1199.8,56.1 		"/>
		<polygon class="st2" points="1277.6,56.1 1283,56.1 1283,54.3 1277.6,54.3 		"/>
		<polygon class="st2" points="1260,56.1 1260,54.3 1238.7,54.3 1238.7,56.1 		"/>
		<polygon class="st2" points="1276.6,56.1 1276.6,54.3 1277.1,54.3 1261,54.3 1261,56.1 		"/>
		<polygon class="st2" points="1237.7,56.1 1237.7,54.3 1238.2,54.3 1222.1,54.3 1222.1,56.1 		"/>
		<polygon class="st2" points="1160.5,56.1 1160.5,54.3 1161,54.3 1153,54.3 1153,56.1 		"/>
		<polygon class="st2" points="1162.2,54.7 1162.2,56.1 1175.9,56.1 1175.9,54.3 1161.5,54.3 1161.5,54.7 		"/>
		<polygon class="st2" points="1160.5,56.1 1161.2,56.1 1161.2,54.7 1161.5,54.7 1161.5,54.3 1161,54.3 1160.5,54.3 		"/>
		<polyline class="st2" points="1424.4,93.2 1416.6,93.2 1416.6,94.1 1415.6,94.1 1415.6,93.2 1394.3,93.2 1394.3,94.1 1393.3,94.1 
			1393.3,93.2 1377.7,93.2 1377.7,94.1 1376.7,94.1 1376.7,93.2 1355.4,93.2 1355.4,94.1 1354.4,94.1 1354.4,93.2 1338.8,93.2 
			1338.8,94.1 1337.8,94.1 1337.8,93.2 1316.5,93.2 1316.5,94.1 1315.5,94.1 1315.5,93.2 1299.9,93.2 1299.9,94.1 1298.9,94.1 
			1298.9,93.2 1283,93.2 1283,95 1424.4,95 		"/>
		<polygon class="st2" points="1277.6,94.1 1276.6,94.1 1276.6,93.2 1261,93.2 1261,94.1 1260,94.1 1260,93.2 1238.7,93.2 
			1238.7,94.1 1237.7,94.1 1237.7,93.2 1222.1,93.2 1222.1,94.1 1221.1,94.1 1221.1,93.2 1199.8,93.2 1199.8,94.1 1198.8,94.1 
			1198.8,93.2 1183.2,93.2 1183.2,94.1 1182.2,94.1 1182.2,93.2 1175.9,93.2 1175.9,95 1283,95 1283,93.2 1277.6,93.2 		"/>
		<polygon class="st2" points="1161.5,93.6 1161.5,94.1 1160.5,94.1 1160.5,93.2 1153,93.2 1153,95 1175.9,95 1175.9,93.2 
			1162.2,93.2 1162.2,93.6 		"/>
		<polygon class="st2" points="1161.2,93.2 1160.5,93.2 1160.5,94.1 1161.5,94.1 1161.5,93.6 1161.2,93.6 		"/>
		<polygon class="st2" points="1185.6,72.5 1179.9,72.5 1179.9,66.9 1174.3,66.9 1174.3,61.2 1170.1,61.2 1170.1,61.2 1173.6,61.2 
			1173.6,66.9 1179.3,66.9 1179.3,72.5 1184.9,72.5 1184.9,76.8 1185.6,76.8 		"/>
		<polygon class="st2" points="1168.6,88.7 1168.6,83.8 1163,83.8 1163,78.2 1157.3,78.2 1157.3,71.1 1156.7,71.1 1156.7,78.2 
			1162.3,78.2 1162.3,83.8 1168,83.8 1168,88.7 1168,89.5 1175.1,89.5 1175.1,89.5 1168.6,89.5 		"/>
		<rect x="1168" y="59.8" class="st2" width="0.6" height="5.6"/>
		<rect x="1162.3" y="65.5" class="st2" width="0.7" height="5.6"/>
		<rect x="1175.7" y="83.8" class="st2" width="5" height="0"/>
		<rect x="1158.8" y="72.5" class="st2" width="5" height="0"/>
		<rect x="1164.4" y="66.9" class="st2" width="5" height="0"/>
		<rect x="1173.6" y="82.4" class="st2" width="0.7" height="5.6"/>
		<rect x="1181.3" y="78.2" class="st2" width="5" height="0"/>
		<rect x="1179.3" y="76.8" class="st2" width="0.6" height="5.6"/>
		<path class="st2" d="M1180.7,71.1v-5.6h-5.6v-5.6h-6.4v5.6h-0.6v0h-5v5.6h-0.7v0h-5v7.1h5.7v5.6h5.6v4.9v0.7h6.4v-5.6h0.6v0h5
			v-5.6h0.6v0h5v-7.1H1180.7z M1184.9,76.8h-5v5.6h-0.6v0h-5V88h-0.7v0h-4.2v-5.6h-5.7v-5.6h-5.6v-4.2h0.6v0h5v-5.6h0.7v0h5v-5.6
			h0.6v0h4.2v5.6h5.6v5.6h5.6v4.2L1184.9,76.8L1184.9,76.8z"/>
		<rect x="1169.1" y="72.2" class="st2" width="0" height="4.8"/>
		<polygon class="st2" points="1168.1,71.2 1168.1,71.2 1174.4,71.2 1174.9,71.2 1174.9,78.1 1168.1,78.1 1168.1,78.1 1175.1,78.1 
			1175.1,71.2 1174.6,71.2 		"/>
		<path class="st2" d="M1174.9,71.2h-0.5h-6.3v6.8h6.8V71.2z M1174.1,77.1h-4.9v-0.1h0v-4.8h0v-0.1h4.9V77.1z"/>
		<polygon class="st2" points="1199.8,54.3 1199.3,54.3 1199.8,54.3 		"/>
		<polygon class="st2" points="1198.8,60.2 1193.3,60.2 1193.3,65.8 1188.7,65.8 1188.7,62.5 1188.8,60.2 1183.2,60.2 1183.2,56.1 
			1182.2,56.1 1182.2,61.2 1187.8,61.2 1187.7,62.5 1187.7,66.8 1194.3,66.8 1194.3,61.2 1199.8,61.2 1199.8,56.1 1198.8,56.1 		"/>
		<rect x="1182.2" y="54.3" class="st2" width="1" height="0"/>
		<rect x="1182.2" y="54.3" class="st2" width="1" height="1.9"/>
		<polygon class="st2" points="1198.8,56.1 1199.8,56.1 1199.8,54.3 1199.3,54.3 1198.8,54.3 		"/>
		<polygon class="st2" points="1183.2,88.1 1188.8,88.1 1188.7,85.8 1188.7,82.5 1193.3,82.5 1193.3,88.1 1198.8,88.1 1198.8,93.2 
			1199.8,93.2 1199.8,87.1 1194.3,87.1 1194.3,81.5 1187.7,81.5 1187.7,85.8 1187.8,87.1 1182.2,87.1 1182.2,93.2 1183.2,93.2 		"/>
		<rect x="1182.2" y="93.2" class="st2" width="1" height="0.9"/>
		
			<rect x="1198.8" y="93.1" transform="matrix(4.577589e-03 -1 1 4.577589e-03 1100.1775 1292.4768)" class="st2" width="0.9" height="1"/>
		<rect x="1221.1" y="54.3" class="st2" width="1" height="0"/>
		<polygon class="st2" points="1237.7,60.2 1232.2,60.2 1232.2,65.8 1227.6,65.8 1227.6,62.5 1227.7,60.2 1222.1,60.2 1222.1,56.1 
			1221.1,56.1 1221.1,61.2 1226.7,61.2 1226.6,62.5 1226.6,66.8 1233.2,66.8 1233.2,61.2 1238.7,61.2 1238.7,56.1 1237.7,56.1 		"/>
		<polygon class="st2" points="1238.7,54.3 1238.2,54.3 1238.7,54.3 		"/>
		<rect x="1221.1" y="54.3" class="st2" width="1" height="1.9"/>
		<polygon class="st2" points="1237.7,56.1 1238.7,56.1 1238.7,54.3 1238.2,54.3 1237.7,54.3 		"/>
		<polygon class="st2" points="1222.1,88.1 1227.7,88.1 1227.6,85.8 1227.6,82.5 1232.2,82.5 1232.2,88.1 1237.7,88.1 1237.7,93.2 
			1238.7,93.2 1238.7,87.1 1233.2,87.1 1233.2,81.5 1226.6,81.5 1226.6,85.8 1226.7,87.1 1221.1,87.1 1221.1,93.2 1222.1,93.2 		"/>
		<rect x="1221.1" y="93.2" class="st2" width="1" height="0.9"/>
		
			<rect x="1237.7" y="93.1" transform="matrix(4.577589e-03 -1 1 4.577589e-03 1138.9094 1331.3862)" class="st2" width="0.9" height="1"/>
		<rect x="1260" y="54.3" class="st2" width="1" height="0"/>
		<polygon class="st2" points="1276.6,60.2 1271.1,60.2 1271.1,65.8 1266.5,65.8 1266.5,62.5 1266.6,60.2 1261,60.2 1261,56.1 
			1260,56.1 1260,61.2 1265.6,61.2 1265.5,62.5 1265.5,66.8 1272.1,66.8 1272.1,61.2 1277.6,61.2 1277.6,56.1 1276.6,56.1 		"/>
		<polygon class="st2" points="1277.6,54.3 1277.1,54.3 1277.6,54.3 		"/>
		<polygon class="st2" points="1276.6,56.1 1277.6,56.1 1277.6,54.3 1277.1,54.3 1276.6,54.3 		"/>
		<rect x="1260" y="54.3" class="st2" width="1" height="1.9"/>
		<polygon class="st2" points="1261,88.1 1266.6,88.1 1266.5,85.8 1266.5,82.5 1271.1,82.5 1271.1,88.1 1276.6,88.1 1276.6,93.2 
			1277.6,93.2 1277.6,87.1 1272.1,87.1 1272.1,81.5 1265.5,81.5 1265.5,85.8 1265.6,87.1 1260,87.1 1260,93.2 1261,93.2 		"/>
		<rect x="1260" y="93.2" class="st2" width="1" height="0.9"/>
		
			<rect x="1276.6" y="93.1" transform="matrix(4.577589e-03 -1 1 4.577589e-03 1177.6414 1370.2959)" class="st2" width="0.9" height="1"/>
		<path class="st2" d="M1258.5,65.5h-5.7v-5.6h-7.1v5.6h-5.6v5.6h-5.6v7.1h5.6v5.6h5.6v4.9v0.7h7.1v-5.6h5.7v-5.6h5.6v-7.1h-5.6
			V65.5z M1262.8,72.5v4.2h-5.6v5.6h-5.7V88h-4.2v-5.6h-5.7v-5.6h-5.6v-4.2h5.6v-5.6h5.7v-5.6h4.2v5.6h5.7v5.6H1262.8z"/>
		<path class="st2" d="M1245.9,71.2v7h7v-7h-0.5H1245.9z M1251.9,77.1h-5v-5h5V77.1z"/>
		<path class="st2" d="M1219.6,65.5h-5.7v-5.6h-7.1v5.6h-5.7v5.6h-5.6v7.1h5.6v5.6h5.7v4.9v0.7h7.1v-5.6h5.7v-5.6h5.6v-7.1h-5.6
			V65.5z M1223.8,72.5v4.2h-5.6v5.6h-5.6V88h-4.2v-5.6h-5.6v-5.6h-5.6v-4.2h5.6v-5.6h5.6v-5.6h4.2v5.6h5.6v5.6H1223.8z"/>
		<path class="st2" d="M1206.4,71.2v6.8h6.8v-6.8h-0.5H1206.4z M1212.2,77.1h-4.8v-4.8h4.8V77.1z"/>
		<polygon class="st2" points="1286.2,66.9 1286.2,61.2 1290.4,61.2 1290.4,66.9 1296,66.9 1296,72.5 1301.7,72.5 1301.7,76.8 
			1296,76.8 1296,82.4 1290.4,82.4 1290.4,88 1286.2,88 1286.2,82.4 1283,82.4 1283,83.8 1284.7,83.8 1284.7,88.7 1284.7,89.5 
			1291.8,89.5 1291.8,83.8 1297.4,83.8 1297.4,78.2 1303.1,78.2 1303.1,71.1 1297.4,71.1 1297.4,65.5 1291.8,65.5 1291.8,59.8 
			1284.7,59.8 1284.7,65.5 1283,65.5 1283,66.9 		"/>
		<polygon class="st2" points="1279.1,71.1 1273.4,71.1 1273.4,78.2 1279.1,78.2 1279.1,83.8 1283,83.8 1283,82.4 1280.5,82.4 
			1280.5,76.8 1274.8,76.8 1274.8,72.5 1280.5,72.5 1280.5,66.9 1283,66.9 1283,65.5 1279.1,65.5 		"/>
		<path class="st2" d="M1291,71.2h-0.5h-6.3v6.8h6.8V71.2z M1290,77.1h-4.8v-4.8h4.8V77.1z"/>
		<rect x="1298.9" y="54.3" class="st2" width="1" height="0"/>
		<polygon class="st2" points="1316.5,54.3 1316,54.3 1316.5,54.3 		"/>
		<polygon class="st2" points="1315.6,60.2 1310,60.2 1310,65.8 1305.4,65.8 1305.4,62.5 1305.5,60.2 1299.9,60.2 1299.9,56.1 
			1298.9,56.1 1298.9,61.2 1304.5,61.2 1304.4,62.5 1304.4,66.8 1311,66.8 1311,61.2 1316.6,61.2 1316.5,56.1 1315.5,56.1 		"/>
		<polygon class="st2" points="1315.5,56.1 1316.5,56.1 1316.5,54.3 1316,54.3 1315.5,54.3 		"/>
		<rect x="1298.9" y="54.3" class="st2" width="1" height="1.9"/>
		<polygon class="st2" points="1299.9,88.1 1305.5,88.1 1305.4,85.8 1305.4,82.5 1310,82.5 1310,88.1 1315.6,88.1 1315.5,93.2 
			1316.5,93.2 1316.6,87.1 1311,87.1 1311,81.5 1304.4,81.5 1304.4,85.8 1304.5,87.1 1298.9,87.1 1298.9,93.2 1299.9,93.2 		"/>
		
			<rect x="1315.6" y="93.1" transform="matrix(4.577589e-03 -1 1 4.577589e-03 1216.3732 1409.2056)" class="st2" width="0.9" height="1"/>
		<rect x="1298.9" y="93.2" class="st2" width="1" height="0.9"/>
		<polygon class="st2" points="1355.4,54.3 1354.9,54.3 1355.4,54.3 		"/>
		<rect x="1337.8" y="54.3" class="st2" width="1" height="0"/>
		<polygon class="st2" points="1354.5,60.2 1348.9,60.2 1348.9,65.8 1344.4,65.8 1344.4,62.5 1344.4,60.2 1338.8,60.2 1338.8,56.1 
			1337.8,56.1 1337.8,61.2 1343.4,61.2 1343.4,62.5 1343.4,66.8 1349.9,66.8 1349.9,61.2 1355.5,61.2 1355.4,56.1 1354.4,56.1 		"/>
		<rect x="1337.8" y="54.3" class="st2" width="1" height="1.9"/>
		<polygon class="st2" points="1354.4,56.1 1355.4,56.1 1355.4,54.3 1354.9,54.3 1354.4,54.3 		"/>
		<polygon class="st2" points="1338.8,88.1 1344.4,88.1 1344.4,85.8 1344.4,82.5 1348.9,82.5 1348.9,88.1 1354.5,88.1 1354.4,93.2 
			1355.4,93.2 1355.5,87.1 1349.9,87.1 1349.9,81.5 1343.4,81.5 1343.4,85.8 1343.4,87.1 1337.8,87.1 1337.8,93.2 1338.8,93.2 		"/>
		<rect x="1337.8" y="93.2" class="st2" width="1" height="0.9"/>
		
			<rect x="1354.5" y="93.1" transform="matrix(4.577589e-03 -1 1 4.577589e-03 1255.1052 1448.1151)" class="st2" width="0.9" height="1"/>
		<polygon class="st2" points="1394.3,54.3 1393.8,54.3 1394.3,54.3 		"/>
		<rect x="1376.7" y="54.3" class="st2" width="1" height="0"/>
		<polygon class="st2" points="1393.4,60.2 1387.8,60.2 1387.8,65.8 1383.3,65.8 1383.3,62.5 1383.3,60.2 1377.7,60.2 1377.7,56.1 
			1376.7,56.1 1376.7,61.2 1382.3,61.2 1382.3,62.5 1382.3,66.8 1388.8,66.8 1388.8,61.2 1394.4,61.2 1394.3,56.1 1393.3,56.1 		"/>
		<rect x="1376.7" y="54.3" class="st2" width="1" height="1.9"/>
		<polygon class="st2" points="1393.3,56.1 1394.3,56.1 1394.3,54.3 1393.8,54.3 1393.3,54.3 		"/>
		<polygon class="st2" points="1377.7,88.1 1383.3,88.1 1383.3,85.8 1383.3,82.5 1387.8,82.5 1387.8,88.1 1393.4,88.1 1393.3,93.2 
			1394.3,93.2 1394.4,87.1 1388.8,87.1 1388.8,81.5 1382.3,81.5 1382.3,85.8 1382.3,87.1 1376.7,87.1 1376.7,93.2 1377.7,93.2 		"/>
		<rect x="1376.7" y="93.2" class="st2" width="1" height="0.9"/>
		
			<rect x="1393.4" y="93.1" transform="matrix(4.577589e-03 -1 1 4.577589e-03 1293.837 1487.0247)" class="st2" width="0.9" height="1"/>
		<path class="st2" d="M1362.6,89.5h7.1v-5.6h5.7v-5.6h5.6v-7.1h-5.6v-5.6h-5.7v-5.6h-7.1v5.6h-5.7v5.6h-5.6v7.1h5.6v5.6h5.7v4.9
			V89.5z M1358.3,82.4v-5.6h-5.6v-4.2h5.6v-5.6h5.7v-5.6h4.2v5.6h5.7v5.6h5.6v4.2h-5.6v5.6h-5.7V88h-4.2v-5.6H1358.3z"/>
		<path class="st2" d="M1369.6,71.2h-0.5h-6.4v7h6.9V71.2z M1368.6,77.1h-4.9v-5h4.9V77.1z"/>
		<path class="st2" d="M1323.6,89.5h7.1v-5.6h5.7v-5.6h5.6v-7.1h-5.6v-5.6h-5.7v-5.6h-7.1v5.6h-5.7v5.6h-5.6v7.1h5.6v5.6h5.7v4.9
			V89.5z M1319.4,82.4v-5.6h-5.7v-4.2h5.7v-5.6h5.7v-5.6h4.2v5.6h5.7v5.6h5.6v4.2h-5.6v5.6h-5.7V88h-4.2v-5.6H1319.4z"/>
		<path class="st2" d="M1329.9,71.2h-0.5h-6.3v6.8h6.8V71.2z M1328.9,77.1h-4.8v-4.8h4.8V77.1z"/>
		<path class="st2" d="M1401.5,89.5h7.1v-5.6h5.7v-5.6h5.6v-7.1h-5.6v-5.6h-5.7v-5.6h-7.1v5.6h-5.6v5.6h-5.6v7.1h5.6v5.6h5.6v4.9
			V89.5z M1397.2,82.4v-5.6h-5.7v-4.2h5.7v-5.6h5.7v-5.6h4.2v5.6h5.7v5.6h5.6v4.2h-5.6v5.6h-5.7V88h-4.2v-5.6H1397.2z"/>
		<path class="st2" d="M1407.7,71.2h-0.5h-6.3v6.8h6.8V71.2z M1406.7,77.1h-4.8v-4.8h4.8V77.1z"/>
		<rect x="1415.6" y="54.3" class="st2" width="1" height="0"/>
		<polyline class="st2" points="1424.4,65.8 1422.2,65.8 1422.2,62.5 1422.2,60.2 1416.6,60.2 1416.6,56.1 1415.6,56.1 1415.6,61.2 
			1421.2,61.2 1421.2,62.5 1421.2,66.8 1424.4,66.8 		"/>
		<rect x="1415.6" y="54.3" class="st2" width="1" height="1.9"/>
		<polyline class="st2" points="1424.4,81.5 1421.2,81.5 1421.2,85.8 1421.2,87.1 1415.6,87.1 1415.6,93.2 1416.6,93.2 1416.6,88.1 
			1422.2,88.1 1422.2,85.8 1422.2,82.5 1424.4,82.5 		"/>
		<rect x="1415.6" y="93.2" class="st2" width="1" height="0.9"/>
		<rect x="1153" y="65.8" class="st2" width="0" height="0"/>
		<rect x="1153" y="65.8" class="st2" width="0" height="1"/>
		<rect x="1153" y="65.8" class="st2" width="2" height="0"/>
		<polygon class="st2" points="1161.6,61.2 1156,61.2 1156,66.8 1156.4,66.8 1156.4,66.3 1156.4,61.5 1161.7,61.5 1162.2,61.5 
			1162.2,61 1162.2,56.1 1161.5,56.1 		"/>
		<polygon class="st2" points="1161.6,61.2 1161.5,56.1 1161.2,56.1 1161.2,60.5 1155.9,60.5 1155.4,60.5 1155.4,61 1155.4,65.8 
			1155,65.8 1155,65.8 1153,65.8 1153,66.8 1155.9,66.8 1156,66.8 1156,61.2 		"/>
		
			<rect x="1161.5" y="54.7" transform="matrix(1 -4.356345e-03 4.356345e-03 1 -0.2303 5.062)" class="st2" width="0.6" height="1.5"/>
		
			<rect x="1161.2" y="54.7" transform="matrix(1 -4.893630e-03 4.893630e-03 1 -0.2571 5.6839)" class="st2" width="0.4" height="1.5"/>
		<rect x="1153" y="81.5" class="st2" width="0" height="0"/>
		<rect x="1153" y="81.5" class="st2" width="0" height="1"/>
		<polygon class="st2" points="1156,81.5 1156,87.1 1161.6,87.1 1161.5,93.2 1162.2,93.2 1162.2,87.3 1162.2,86.8 1161.7,86.8 
			1156.4,86.8 1156.4,82 1156.4,81.5 1155.9,81.5 1153,81.5 1153,81.5 		"/>
		<polygon class="st2" points="1155.4,82.5 1155.4,87.3 1155.4,87.8 1155.9,87.8 1161.2,87.8 1161.2,93.2 1161.5,93.2 1161.6,87.1 
			1156,87.1 1156,81.5 1153,81.5 1153,82.5 		"/>
		
			<rect x="1161.6" y="93.1" transform="matrix(4.878457e-03 -1 1 4.878457e-03 1062.7814 1254.7864)" class="st2" width="0.5" height="0.6"/>
		
			<rect x="1161.1" y="93.2" transform="matrix(4.890329e-03 -1 1 4.890329e-03 1062.2712 1254.2841)" class="st2" width="0.5" height="0.4"/>
	</g>
</g>
</svg>
