<svg width="143" height="195" viewBox="0 0 143 195" fill="none" xmlns="http://www.w3.org/2000/svg">
<g clip-path="url(#clip0_91_73)">
<path d="M29.4664 38.9568C40.3199 40.587 51.1972 42.1453 61.8842 44.7104C63.8835 45.2378 65.9304 45.6933 67.787 46.6762C68.025 46.8201 68.2868 46.9879 68.4534 47.2276C68.6914 47.6591 68.5962 48.1866 68.5962 48.6421C68.4058 51.423 67.8584 54.132 67.3585 56.8649C65.1926 67.7009 63.2171 78.6328 59.385 89.0373C57.9807 92.945 56.3384 96.7568 54.5771 100.521C53.4346 103.038 46.6273 115.048 43.7473 118.069C40.1057 121.713 34.5599 126.7 29.4426 125.213C26.0866 125.405 23.04 123.08 21.9451 119.987C18.7319 110.997 18.351 101.36 18.3748 91.9381C18.3034 79.352 19.2079 66.742 20.9216 54.2758H20.9692C19.3269 66.766 18.5415 79.352 18.6367 91.9381C18.6367 101.336 19.0413 110.949 22.2545 119.867C22.8257 121.33 23.754 122.672 25.0155 123.559C26.277 124.446 27.8717 124.926 29.4188 124.854C32.1084 125.693 34.8931 124.494 37.1543 123.08C39.4631 121.593 41.51 119.747 43.4379 117.781C46.2703 114.809 53.03 102.87 54.1724 100.353C55.9338 96.6129 57.5761 92.8011 58.9804 88.9174C62.8124 78.5609 64.8356 67.629 67.0253 56.817C67.5251 54.108 68.0726 51.399 68.263 48.6421C68.2868 48.3064 68.2868 47.9468 68.2392 47.6112C68.1916 47.2756 67.8346 47.0838 67.5727 46.892C65.7638 45.9331 63.7169 45.4536 61.7414 44.9262C51.1972 42.337 40.1771 40.7548 29.4664 38.9568Z" stroke="#5B402C" stroke-miterlimit="10"/>
<path d="M20.0886 79.6158C20.4694 73.5745 21.112 67.0297 21.7309 61.0364C22.4211 55.067 23.1352 48.5222 24.1586 42.5529H24.2062C22.921 53.0053 21.4215 69.1634 20.0886 79.6158Z" stroke="#5B402C" stroke-miterlimit="10"/>
<path d="M19.4221 82.0132L30.1566 83.1159C32.7986 83.3317 35.512 83.7632 38.154 83.6673C44.4138 83.02 49.8406 79.3281 55.5767 76.9548C57.2429 76.3554 59.2184 76.1397 60.9321 76.715C59.266 76.3314 57.2905 76.4753 55.6482 77.1465C49.9358 79.6638 44.5328 83.4516 38.1778 84.0749C35.4882 84.1468 32.7986 83.7153 30.109 83.4516C26.5864 82.9961 22.8495 82.6365 19.4221 82.0132Z" stroke="#5B402C" stroke-miterlimit="10"/>
<path d="M27.4432 92.2258C28.2451 92.2258 28.8951 91.5711 28.8951 90.7634C28.8951 89.9558 28.2451 89.301 27.4432 89.301C26.6414 89.301 25.9913 89.9558 25.9913 90.7634C25.9913 91.5711 26.6414 92.2258 27.4432 92.2258Z" fill="#5B402C"/>
<path d="M25.4201 99.322C26.1957 99.322 26.8244 98.6888 26.8244 97.9076C26.8244 97.1264 26.1957 96.4932 25.4201 96.4932C24.6445 96.4932 24.0158 97.1264 24.0158 97.9076C24.0158 98.6888 24.6445 99.322 25.4201 99.322Z" fill="#5B402C"/>
<path d="M30.8231 111.932C31.8747 111.932 32.7272 111.073 32.7272 110.014C32.7272 108.955 31.8747 108.096 30.8231 108.096C29.7715 108.096 28.9189 108.955 28.9189 110.014C28.9189 111.073 29.7715 111.932 30.8231 111.932Z" fill="#5B402C"/>
<path d="M25.8724 124.638C23.3732 140.988 20.2552 158.057 17.5418 174.311L17.4942 174.191L20.1362 175.27L19.9934 175.342C22.3973 163.691 25.4201 149.379 27.9669 137.823L30.7517 125.333L30.8231 125.453L25.8724 124.638ZM25.8247 124.614L30.8231 125.333H30.9183C30.9183 125.405 28.3239 137.871 28.3001 137.943C25.92 149.498 22.7543 163.835 20.1838 175.438L20.16 175.558L20.041 175.51L17.4228 174.383L17.3514 174.359V174.287C20.16 158.033 22.8019 140.868 25.8247 124.614Z" stroke="#5B402C" stroke-miterlimit="10"/>
<path d="M36.8392 181.376C37.1426 179.24 29.2238 176.332 19.1522 174.881C9.08049 173.43 0.66984 173.985 0.366437 176.121C0.0630343 178.258 7.98177 181.166 18.0534 182.617C28.1251 184.068 36.5358 183.513 36.8392 181.376Z" fill="#5B402C"/>
<path d="M36.9163 181.383C36.3212 183.541 29.7282 183.469 27.7764 183.493C21.2786 183.421 14.8046 182.606 8.49715 180.975C-3.26084 177.859 -2.6896 173.448 9.52062 173.759C16.0185 173.975 22.4687 175.006 28.7285 176.78C30.585 177.356 36.9401 179.13 36.9163 181.383ZM36.8687 181.359C36.8687 179.154 30.5374 177.403 28.7047 176.852C22.4687 175.174 15.9947 174.239 9.52062 174.095C-2.07076 173.951 -2.642 177.427 8.59236 180.592C14.8284 182.294 21.3024 183.229 27.7764 183.373C29.7282 183.349 36.226 183.493 36.8687 181.359Z" fill="#5B402C"/>
<path d="M126.811 188.957C136.159 184.91 143.374 180.781 142.928 179.735C142.481 178.689 134.542 181.122 125.195 185.169C115.847 189.215 108.632 193.344 109.078 194.39C109.525 195.436 117.464 193.004 126.811 188.957Z" fill="#5B402C"/>
<path d="M143 179.753C143.357 182.51 109.94 197.781 108.773 194.568C107.179 191.596 141.096 177.595 143 179.753ZM142.952 179.777C142 178.818 135.431 181.287 133.979 181.743C128.1 183.876 122.34 186.37 116.747 189.222C106.155 194.688 106.798 196.438 118.127 192.435C124.03 190.325 129.766 187.832 135.36 184.979C136.716 184.236 143 181.119 142.952 179.777Z" fill="#5B402C"/>
<path d="M110.654 48.4264C110.868 48.5702 110.963 48.8099 111.082 49.0257C111.796 50.584 112.248 52.2381 112.724 53.8923C114.271 59.55 115.485 65.3037 116.675 71.0573C117.342 74.2218 117.961 77.9617 118.413 81.1741C120.127 94.2636 120.65 107.545 120.293 120.73L120.246 122.193L120.222 122.552C120.222 122.6 120.222 122.696 120.198 122.744C119.889 125.022 119.317 127.251 118.508 129.385C117.437 132.142 115.866 134.875 113.438 136.625C110.939 138.231 108.035 139.382 105.013 139.31C99.8477 139.094 96.1585 134.899 92.9452 131.303C89.97 127.371 87.9945 122.816 85.9 118.381C77.8788 100.449 71.1906 81.9892 64.6213 63.4817C74.4752 60.6049 88.9942 56.7451 98.5862 53.5087C96.3489 54.4677 92.6596 55.4506 90.2319 56.2417C82.1155 58.663 72.9043 61.396 64.9308 63.6255C71.5238 82.0132 78.2359 100.401 86.257 118.213C87.8993 121.761 89.5892 125.285 91.6124 128.618C92.5882 130.296 93.8735 131.782 95.2302 133.173C99.7287 137.943 104.203 140.58 110.654 137.656C114.39 136.265 116.818 132.861 118.175 129.217C118.865 127.395 119.389 125.501 119.722 123.583C120.031 121.665 119.936 119.675 120.031 117.734C120.103 113.826 120.103 109.918 120.008 105.987C119.722 94.2876 118.77 82.4926 116.485 71.0094C115.343 65.2557 114.176 59.5021 112.653 53.8444C112.177 52.2142 111.749 50.536 111.034 48.9778C110.939 48.762 110.82 48.5223 110.654 48.3784C110.63 48.4503 110.654 48.4264 110.654 48.4264Z" stroke="#5B402C" stroke-miterlimit="10"/>
<path d="M76.5936 92.2259C84.5433 89.1573 93.3975 86.2804 101.942 88.6298C103.585 89.1093 105.179 89.9963 106.726 90.7155C109.821 92.1779 113.296 92.969 116.628 93.3286C113.177 93.1848 109.773 92.4176 106.607 91.0272C105.013 90.3559 103.537 89.4449 101.847 89.0134C100.181 88.5339 98.4672 88.3182 96.7535 88.2463C92.4454 88.1024 88.1373 88.7977 83.9959 89.9244C81.5205 90.5957 78.9737 91.5546 76.5936 92.2259Z" stroke="#5B402C" stroke-miterlimit="10"/>
<path d="M77.8312 84.89C80.3304 91.9142 86.8282 119.628 101.276 129.912C101.276 129.912 104.798 130.368 103.037 128.354C92.4454 116.391 84.3291 92.7533 80.021 85.2496C79.545 84.5064 78.5215 84.3146 77.8312 84.89Z" fill="#5B402C"/>
<path d="M105.869 138.998C111.082 152.687 116.485 167.335 121.412 181.071L123.649 187.065L123.506 187.017L125.982 185.459L125.934 185.602C120.412 170.787 114.271 153.933 109.011 139.046L109.083 139.094L105.869 138.998ZM105.822 138.974L109.107 138.902H109.154L109.178 138.95C114.724 153.742 120.865 170.595 126.148 185.506L126.172 185.602L126.101 185.65L123.602 187.185L123.506 187.233L123.459 187.113C117.699 171.362 111.415 154.844 105.822 138.974Z" stroke="#5B402C" stroke-miterlimit="10"/>
<path d="M108.511 116.895C109.603 116.895 110.487 116.004 110.487 114.905C110.487 113.806 109.603 112.915 108.511 112.915C107.42 112.915 106.536 113.806 106.536 114.905C106.536 116.004 107.42 116.895 108.511 116.895Z" fill="#5B402C"/>
<path d="M115.842 110.949C117.025 110.949 117.985 109.983 117.985 108.792C117.985 107.6 117.025 106.634 115.842 106.634C114.659 106.634 113.7 107.6 113.7 108.792C113.7 109.983 114.659 110.949 115.842 110.949Z" fill="#5B402C"/>
<path d="M112.177 124.614C113.018 124.614 113.7 123.927 113.7 123.08C113.7 122.232 113.018 121.545 112.177 121.545C111.336 121.545 110.654 122.232 110.654 123.08C110.654 123.927 111.336 124.614 112.177 124.614Z" fill="#5B402C"/>
<path d="M68.382 5.01045C66.9539 2.63708 64.6927 0.335634 61.7651 0.311661C56.5764 0.527422 53.982 5.65774 55.1483 10.4045C55.5767 12.2025 56.4574 13.9046 57.7189 15.2711L61.6461 19.3945L69.5245 27.6654H68.977L76.5459 19.8021C79.1403 17.3328 81.2825 14.3361 81.8061 10.6922C82.1631 8.127 82.0203 5.10635 79.9972 3.28437C79.3545 2.68503 78.5453 2.30146 77.7122 2.06172C74.3562 0.958944 69.9767 1.34252 68.382 5.01045ZM68.382 4.96251C69.8339 1.24662 74.4038 0.767156 77.7598 1.84596C79.5211 2.30146 81.0682 3.59602 81.7109 5.34608C83.2104 9.70925 81.6633 14.7197 78.7119 18.1C77.4266 19.4904 70.6907 26.4907 69.2626 28.001C69.2388 28.025 61.4081 19.6822 61.3605 19.6822C60.0514 18.2917 58.7423 16.9253 57.4332 15.5348C54.8627 12.7059 53.7916 8.46263 55.1721 4.81867C56.148 2.10967 58.8851 0.119873 61.7651 0.119873C64.6927 0.191793 67.0491 2.54119 68.382 4.96251Z" stroke="#5B402C" stroke-miterlimit="10"/>
<path d="M97.7769 21.576C96.0632 20.0897 93.8021 18.9629 91.5171 19.2986C90.4222 19.4424 89.375 19.9698 88.9227 21.0247C88.0421 23.0864 88.4705 25.5796 89.5178 27.4975C90.0652 28.4804 90.7793 29.3434 91.6599 30.0866L96.8487 34.7375H96.3488C98.0864 33.2991 99.8239 31.8607 101.585 30.4222L102.918 29.3674C104.156 28.3126 104.941 26.7783 105.37 25.22C105.655 24.1652 105.798 23.0145 105.465 22.0315C104.894 20.5692 103.561 19.1787 101.918 19.1308C100.229 19.0828 98.848 20.3534 97.7769 21.576ZM97.7769 21.5281C98.8004 20.2815 100.229 18.939 101.966 18.939C103.704 18.939 105.132 20.3774 105.774 21.9356C106.155 23.0384 105.988 24.2131 105.727 25.3159C105.298 26.9461 104.489 28.5523 103.18 29.6791L101.847 30.7339C100.086 32.1723 98.372 33.6107 96.6345 35.0731L96.6107 35.0971L96.5869 35.0731L91.4219 30.3983C90.5413 29.6311 89.7558 28.7441 89.2084 27.7132C88.1135 25.6755 87.7327 23.1103 88.6847 20.9288C89.1846 19.802 90.327 19.2266 91.4933 19.1068C93.8021 18.7712 96.1108 19.9698 97.7769 21.5281Z" stroke="#5B402C" stroke-miterlimit="10"/>
</g>
<defs>
<clipPath id="clip0_91_73">
<rect width="143" height="195" fill="white"/>
</clipPath>
</defs>
</svg>
