<svg width="86" height="76" viewBox="0 0 86 76" fill="none" xmlns="http://www.w3.org/2000/svg">
<path d="M43 75.5001C42.4727 75.5001 41.9492 75.3673 41.4727 75.1017C39.8125 74.172 0.8125 52.0079 0.8125 23.9376C0.8125 11.0157 11.3281 0.50011 24.25 0.50011C31.7617 0.50011 38.6484 4.04698 43.0039 9.8673C49.2812 1.50011 60.6758 -1.90223 70.7656 2.3048C79.5273 5.95714 85.1875 14.4493 85.1875 23.9376C85.1875 52.0079 46.1875 74.172 44.5273 75.1017C44.0547 75.3673 43.5273 75.5001 43 75.5001ZM24.25 6.75011C14.7734 6.75011 7.0625 14.461 7.0625 23.9376C7.0625 45.4845 35.9609 64.4454 43 68.7423C50.0391 64.4454 78.9375 45.4845 78.9375 23.9376C78.9375 16.9767 74.7852 10.7501 68.3594 8.07042C64.1211 6.3048 59.4492 6.29308 55.2031 8.04308C50.957 9.79308 47.6484 13.086 45.8828 17.3243C45.3984 18.4884 44.2578 19.2462 43 19.2462C41.7422 19.2462 40.6016 18.4884 40.1172 17.3243C37.4414 10.8985 31.2109 6.7462 24.25 6.7462V6.75011Z" fill="white"/>
</svg>
